<?xml version="1.0" encoding="UTF-8"?><svg id="Layer_1" xmlns="http://www.w3.org/2000/svg" viewBox="0 0 1800 1800"><ellipse cx="900" cy="900" rx="898" ry="900" style="fill:#4b8cd2;"/><path d="m361.4,916.4h-14c1.7,14.5,6.3,14.5,14,0Z" style="fill:#96dc64;"/><path d="m352.7,1031.4c1.5,0,4.2-.9,7.8-2.6,3.7-1.7,5.5-4.3,5.2-7.7-6.2,0-12.3,0-18.5,0,1.8,3.4,3.6,6.9,5.4,10.3Z" style="fill:#96dc64;"/><path d="m387.2,993.2c-11.1-3.5-22.1-7.9-33.2-12.9-9.6-5.2-19.1-10.3-28.7-15.5-21.7,0-35.5,5.2-41.1,15.5,15.3-5.2,29.2-5.1,41.8,0,4.8,1.8,10.4,6.1,16.9,12.9,6.6,6.9,11.5,10.3,14.6,10.3h30.1c-.2,0-.4-6.9-.6-10.3Z" style="fill:#96dc64;"/><path d="m795.5,1255.3c1.8,3.3,3.6,6.6,5.5,9.9h8.9c-1.8-3.3-3.6-6.6-5.4-9.9h-9Z" style="fill:#96dc64;"/><path d="m442.3,1021.1c-.8-11.9-10.4-17.9-29-17.9s-30.6,6-31.3,17.9c6.4,3.5,15.8,5.2,28.1,5.2,1.3-3.5,12.1-5.2,32.2-5.2Z" style="fill:#96dc64;"/><path d="m353.3,962.2c-.3-7.7-.5-15.4-.8-23.1-1.5,1.7-3,3.4-4.5,5.1,1.7,6,3.5,12,5.3,17.9Z" style="fill:#96dc64;"/><path d="m361.8,939.1c6.5,10.3,13.1,20.5,19.7,30.8-1-6-2.1-11.9-3-17.9-1.6-1.8-7.1-6-16.7-12.8Z" style="fill:#96dc64;"/><path d="m449.5,1026.3c8.5-1.8,16.8-3.5,25.3-5.2-2.5-2.5-5-5.1-7.5-7.6-4.6,0-10.6,4.4-17.8,12.8Z" style="fill:#96dc64;"/><path d="m613,75.9c2.7-.7,5.3-1.2,8-1.9.3,2,.6,4.2.9,6.2-4.2,4.1-8.8,8.5-14.2,12.5,0,5.5,2.2,8.3,6.4,7,4.2-1.3,8.9-2.4,14.3-6.5,9.8-12.2,11-4.3,4-18.8h-8.8c1.4,0,1.7-13.5,1-22.1-9.6,3.1-19.2,6.2-28.7,9.7,1.2,7.8-1.3,19-7.9,34,10.9,0,19.1-6.7,25-20.2Z" style="fill:#96dc64;"/><path d="m1142.1,161.5h9.4c3.6,0,3,3.3-1.9,13.2,2.5,2.9,7.4,1.3,15.2,7,3.6-10,7.9-19.9,12.8-29.8,6.5,15.5,14.4,18.4,22.9,8.5-5.3-7.1-10.5-14.8-15.7-23.2-.7-3.5-1.4-6.9-2.1-10.4,4.9-4.2,13.3-10.3,25-18.5.9-6.8-2.2-12.1-9.6-16.1-5.4-.7-10.9-1.1-16.3-1.7-2.9,2.7-5.9,6-8.9,8.7-1.8-.7-3.6,0-5.4-.8-1.2,0-2.8,4.4-5.2,8.6-2.4,4-4.9,10.9-7.3,10.9h-19.9c-5,14.5-5.1,12-.3,21.7,4.8,9.7,7.3,21.9,7.2,21.9Z" style="fill:#96dc64;"/><path d="m592.4,133.1c-12.2,18-17.6,30.2-15.9,35.8,11.1,14.2,24.7,21.5,40.1,21.5,12.8,0,21.1-7.9,25.2-23.7,2.4-7-.8-10.9-10.1-11.6-9.1-.7-16.3-1.4-21.8-2.1-5.3-.7-5-7.4,1.1-19.9-.9-4.2-7-4.2-18.6,0Z" style="fill:#96dc64;"/><path d="m733.6,1228.8c-4.9-3.2-12.7-4.8-24-4.8s-19-.9-23.7-2.5c-8.4-8.3-27.4-17.4-57.1-27.3-1.6-7.5-3.3-14.9-4.9-22.5-18.9-21.6-32.2-32.7-39.7-32.7-12.2,0-22.3-2.3-30.4-7.3-8.1-5.1-19.1-15-32.8-30.3-1.8-3.3-2.6-7.2-2.3-12.4.3-5.1-1.9-7.8-6.6-9.4-.5,3.3-.9,8-1.4,11.3-7.7,0-17.5,5.1-29.6,5.1h-27.6c-1.9-14.5-3.7-9.3-5.5-12.7-21.9-3.5-35.2-9.4-40.2-12.8-5,11.9-16.6,24.5-34.8,38-3.1,0-9.3-1.9-18.9-5.3-7.8-1.6-18.3-.3-31.4,4.8-11.3-5-17.7-13.2-18.9-23.3-1-8.5-1-22.3.4-39.5-2.5-1.6-5-7.3-7.5-7.3h-32.3c-12.8,0-15.9-11.2-9.2-23.3,7.2-5.1,10.5-10.5,9.8-20.7,2.3-11.9,2.7-18.7,1.1-20.5-6.1,1.8-10.6,3-13.7,3.9-3.1.9-6.6,1.7-10.4,2.6-3.7.9-7,5.6-9.5,14-2.5,8.6-5.2,13.8-8.1,15.4-9.1,3.5-19.5,3.5-31.3,0-11.9-3.4-19-8.1-20.9-14.1-2-5.9-4.9-12.3-8.4-19.2-.3-5.1-.6-10.2-.9-15.4-.6-11.9,3.2-31.6,12.1-59.2,7.6-13.7,19.3-20.6,34.8-20.6s21,1.9,39.7,5.2c0-13.7,10.2-20.5,30.3-20.5,4.7,5.1,8.4,8.6,11.6,10.3,3.1,1.7,7,3.5,11.7,5,3.9,11.2,7.9,22.4,11.9,33.6,4.8,5.9,9.6,12,14.4,18,4.7,1.7,7.3,1.3,8.1-1.3.6-2.5,1-5.5.9-9-.3-13.6-5.1-28.2-14.5-43.6-3.1-5.2-1.5-12.4,4.9-21.8,6.3-9.4,13.5-16.6,21.4-21.7,7.9-5.2,18.2-11.8,30.9-20.4,3.3-5.1,5.2-13.2,5.7-25.2,5.1-10.3,11.1-20.5,18.2-32.5,6.8-11.9,14.5-23.8,22.6-23.8h16.2c1.9,0,4.8-15.8,8.5-23.4,3.8-7.7,8.9-14.8,15.3-18.2,15.4,0,25.1,3.4,29,10.2,3,1.7,8.6-1.6,17-10.2,11-3.4,22.1-6.8,33.1-10.2,3.2-1.6,3.6-7.6,1.6-17.8-7.4-3.3-14-6.7-19.6-10.1-5.8-3.3-10.1-6.6-12.7-10.1,3.3-2.5,6.6-5,9.9-7.5-2-2.6-4-5.1-6-7.6-5.8-1.6-10.9-4.1-15.1-7.5,4.1-8.4,11.5-10.4,22.4-6.3,10.8,4.2,17.9,6.3,20.9,6.3,16.1-8.4,32.2-16.7,48.2-25.1.6,1.7,1.2,3.4,1.7,5-.2,1.6-.4,3.4-.5,5.1-12.3,15-24.4,29.3-36.3,42.8,4.5,1.7,10,2.5,17,2.5s11.6,2.5,14.2,7.6c-1,2.5-2,5.1-2.9,7.6,7.9-3.3,13.3-4.1,16.3-2.6.6,2.5,1.1,5.1,1.7,7.6.4-5.1,4.5-9.2,12.5-12.6,0-10.1.2-20.3.4-30.3-9,0-15-1.6-17.7-5-.4-11.7.7-28.6,3.3-50.2-6.1-11.6-7.1-21.5-3-29.8-16-3.3-23.2-17.8-21.5-43.1,1.9-25.4,2.2-41,.5-47.6-2.9,0-6.2,5.7-9.6,17-11.7,16.2-23,22-33.8,17.1-6.5-4.8-1.9-18,13.8-38.8-2.3-3.2-4.5-6.5-6.7-9.7-3.1.8-6.2,1.6-9.3,2.4-2.5-1.6-4.8-8-6.7-19.3-6.9-1.6-14-3.6-21.4-6-7.3-2.3-12.2-1.2-14.8,3.6-4.8,14.4-8.4,28.1-11.2,41-3.7,3.2-9.8,8.1-18.5,14.6-.8,4.1-1.7,8.1-2.5,12.2,10.5,6.6,12.7,14.7,6.3,24.6-14,11.4-27.1,22.2-39.3,32.1-.6,3.3-2.7,11.1-6.3,23.6-3.5,12.4-7.5,18.8-12,18.8-7.5,0-10.3-6.7-8-20,3.2-18.3,4.2-28.1,3-29.8-11.1-12.4-21.9-24.6-32.5-36.9-4.9-4.9-11.2-9-19.3-12.3.9-4.1,1.9-8.1,2.8-12.2,0-5.7-.2-11.3-.2-17,6.5-11.3,12.9-22.6,19.5-33.8,9.8-9.7,22.9-19.2,39.7-28.6,2.6-4,4.4-8,7-12,3.2-1.5,9.9-7.4,22.7-17.7,12.7-10.1,27.6-16,27.6-17.6v7c-14.5,14-16.6,44.4-19.6,44.4h8.6c6.4,0,12.7-12.6,19.4-7.9,6.6,4.8,12.3,3.3,17,1.8-1-1.6-2.1-2.7-3.1-4.3,2.7-2.4,5.4-3.7,8.1-6-2.5-1.5-7.6-4.1-15.3-12,.8-3-.5-3-3.9-8.6-3.4-5.4-2.3-6.5,3.3-6.5h27.1c5,0,10.3-23.3,16.2-43.3,3.4-2.3,6.8-13.3,10.2-15.6,1.8-6.1,3.6-12.1,5.4-18.1.5-1.5,2.3-3.1,5.5-4.6,3.1-1.5,5.9-1.5,8.2,0,.8,1.6,1.7,3.1,2.6,4.6,4.6,3,9.4,3,14.2,0-1.3,2.2-2.7,4.5-4,6.8,3.3,7.7,7,15.2,11.1,22.9,4.2,7.7,3.2,16.1-3.5,25.4-6.4,6.2-12.8,12.4-19.3,18.6-2.2,3.1-7.5,10.2-15.7,21.1-2.1-3.1-4.2-6.3-6.2-9.4-8.8,1.6-14.1,3.1-15.9,4.7-1,3.9-2,7.8-2.9,11.8,4,12.7,11.9,12.7,23.4,0-1.9,7.9,1.4,15.1,10,21.4,3.9,1.6,7.9,6.4,12,14.4,4,8,8.2,12.8,12.2,14.4,1.8-1.6,3.5-3.2,5.3-4.8,15.3-4.8,24.1-13.4,26.7-26.2-1.9-4.7-4.8-14.8-8.4-30.5,3.7-.8,7.4-1.1,11.1-1.9,1.4,0,3.2,4.1,5.5,10.5,2.1,6.2,5,9.9,8.5,6.6,5.9-7.9,14.6-14.4,25.9-28.9h-8.3c-4.6,0-4.8-23.3-.6-29.5-8,4.7-12-3.2-11.8-15.4,3.3-2.3,6.6-4.6,9.9-6.9,4.1-16.8,4.4-28.9,1.1-36.4-2.9.7-5.8,1.5-8.7,2.3-5.6-4.6-5.3-10.5.8-18.1-8,0-13.2-2.9-15.5-8.9,6.9-23.7,6.9-38.3-.3-44.1-7.2-5.8-17.3-6.6-30.4-2.2,1-2.9,2-5.8,3-8.7-8.8-4.3-19.5-1.4-32.1,8.7-5.4,4.3-15.7,13.1-30.9,26.3.2,3,0,5.6-.8,7.8-.7,2.1-1.2,7-1,14.4-2.5,1.5-5,2.9-7.5,4.4-1.3,3.8-2.5,7.5-3.8,11.3,8.6-1.5,14.2,1.5,17.3,9-2.4,3-4.6,5.7-6.6,8-2.2,2.3-4.8,5.3-8,9-3.3,3.8-7.8,8.8-13.8,14.8-6,6.2-10.7,7.7-13.7,4.6,6.4-12.2,8.9-19.8,7.3-22.9-.9-1.4-3.7-3.3-8.4-5.6-4.6-2.3-5.5-5.7-2.5-10.2,3.7-3,7.4-6,11.1-9,2.6-7.5,7.2-20.9,14.3-40.1,7.5-13.2,14.7-19.9,21.5-20.7,6.8-.7,12.2-2.3,16.6-5.2,4.3-2.9,9-7.5,14.4-14.7-9,0-19.4-2-31.2-7.7-1.3,0-2.6,1.1-3.9-.3-1.3-1.5-2,11.7-2.1-2.9h-9.5c-20.4,29-31.2,31.6-31.7,46.2-3.1,2.9-6.2,2.2-9.3,5.1-3.7,16.3-6.9,26.8-9.7,31.1-6.3,6-16.6,14.3-31.3,24.9-2.5,3-5.1,6.6-7.8,10.3-2.8,3.8-7.6,8.4-14.7,12.8-15,0-25.6-6.1-31.2-19.8-.2-3,3.7-6.2,11.3-12.2,6.9,3,14.2,7.8,21.7,9.3,2.7-3.7,5.5-6.1,8.3-6.1h10.1c-.6,0-.5-23,.4-31.9,13-19.2,27.1-44,42.3-64.1,4.4-4.3,5.8-8.1,4.2-11.7-1.6-3.5-5.5-3.8-11.9-.9-11.7,7.8-23.6,16-35.5,24-3.2,1.5-7.4-.2-12.4-5.9,3.3-2.9,6.5-4.6,9.8-7.5-7.6-2.9-10.7-3.5-9.3-6.3,1.4-2.9,6.9-6.2,17-18.8-3.8-3.9-9.1-7-15.6-7.6-21.7,13.7-42.9,28.2-63.3,43.6,4.1,1,7.4,4.5,9.9,10.6-6.6,5.8-8.2,13-4.4,21.8-2,1.5-3.9,2.9-5.9,4.4-9.2,3-13.9,5.9-13.9,8.9-.8,7.4.5,14.8,4.1,22.2-2,1.5-4,3-6,4.5-10.7,0-19.2-6.7-25-20.1-2-5.5-3.7-10.1-5.4-14.3C132.7,375.4,15.1,601,2.7,854c.7,3.9,1.3,7.9,2,11.8,2.8,15.4,7.7,24.9,13.9,28.3-3.1,0-4.7,5.1-4.4,15.4,4.7,3.5,9.9,11.5,15.9,24.5,6,12.7,13,21.7,21.2,26.9,2.2-1.8,4.4-3.5,6.7-5.1-3.2,0-6-4.3-8.7-12.8-2.7-8.5-7.9-20.6-15.2-36-7.3-15.4-10-27.3-8.4-35.9,9.3,10.2,19.7,27,31.9,50.1,12.4,23.1,23.1,39.8,31.6,50.2,3.3,5.1,5.6,16.2,7.1,33.2,16.5,12,31.3,20.5,44.2,25.6,12.9,5.1,32.7,10.2,59.4,15.4,17.6,6.7,35.3,13.5,53,20.3,6.4,1.7,13.8,9.4,22.4,22.8,8.6,13.7,17.7,21.2,27.1,22.9,19.8,11.8,33,18.5,39.3,20.2.8-5.1,1.7-10.1,2.6-15.1,16.4,8.3,25.7,21.9,28.5,40.2,1.3,8.4-2.1,18.6-9.8,30.2-7.8,11.6-12.1,18.3-13.3,19.9,3.9,13.2,7.9,25.6,11.8,37-5.8,14.9-7.4,23.8-5.1,27.1,5.9,6.5,15.3,15.5,28.3,26.8,6,13,13.4,23.8,22.2,32.7,8.7,8.7,17.6,16.4,26.3,22.8,1.9,1.6,11.3,7.2,28,16.6,16.7,9.4,28.4,20.6,35.4,33.2,6.9,12.6,12.5,26.5,17,41.8,3,15.4,6.7,30.8,10.8,45.8,4.1,15,8.5,27,12.8,35.9,4.5,7.5,9,14.8,13.6,22.1.6,7.3,1.2,14.6,1.9,21.8-2.2,4.4-2,10.1.8,17.4,3.3,8.6,7.7,15.1,13.2,19.3,3.4,7,6.8,14,10.3,21-.8,2.8-1.5,5.6-2.2,8.4,4,12.6,7.2,20.2,9.6,22.9,4.8,2.7,9.1,4.8,12.6,6.2,3.6,1.4,5.9,4.8,7,10.1-.6,1.4-1.5,2-2.6,2-1.2,5.5-.7,10.8,1.7,16.1,3.9,3.4,7.8,6.8,11.6,10.1,3.3,7.3,6.6,14.6,10,21.7,4.1,2.7,8.2,5.4,12.3,7.9,5.8,12.5,14.7,23.3,26.1,32.2,19.7,5.4,39.6,11,59.8,15.1.6-2.2,1.2-2.6,1.8-2.6h-11.5c-7.2,0-13.6-9-19.2-16.6-5.6-7.7-11.3-14.8-16.9-22.6-2.1-12.6-4.1-25.8-5.9-39.3-5.7-4-11.5-8.1-17.3-12.2-2.8-4-2.6-9.3.8-16,3.5-6.6,2.7-13.6-2.2-20.5,1.1,0,3.2-1,6.2-3.1,2.9-2.2,2.5-5.2-1.5-9.4-5.1-2.1-10.2-4.1-15.3-6.2.2-2.8.5-5.4.8-8.2,2.7-2.7,7.8-2.4,15,.3-4.7-13.8-6.5-20.3-5.2-20.3h13.3c10.6-14.5,13.5-20.8,7.9-31-1.9-4.4-3.8-9.2-5.7-13.6,12.6-5.9,20.9-11.8,24.6-17.5-4.1-10.4-5.8-17.1-5.2-20.1,2.5-.7,5-1.5,7.5-2.2,1.4-10.5,4.2-26.1,9.1-47.3-2.5-2.3-5.1-4.6-7.6-6.9.8-15.4,5.5-23.1,13.7-23.1,3.6-3.1,9.4-8.4,17.8-16.2,8.2-.8,16.3-1.6,24.5-2.4,2.9-7.6,4.6-37,7.6-89.9,1.1-24,5.6-41.9,13.2-53.4,5-6.4,5-14.3-.2-23.3-5.4-9-18.3-18.4-38.8-28.5Zm-385.5-565.2c3.7.9,7.4,1.7,11.1,2.6,2.8,1.7,5.7,3.4,8.5,5.1-2.4,1.7-4.9,3.4-7.4,5.1-.5,4.2-.9,8.4-1.4,12.7-3.4,3.4-6.9,6.8-10.3,10.2-1.1-4.3-2.1-8.5-3.2-12.7-.4-3.4-.8-6.7-1.2-10.1-.4-3.4-.7-6.8-1.1-10.2,1.6-.8,3.2-1.7,4.9-2.6Zm-33.2,29.8c-.8,6.8-1.4,14.1-2.1,21-4.1,2.5-8.2,7.3-12.2,9.8,1.8-18.7,4.8-26.8,8.7-33.6,2.7-3.4,5.3-.9,8-.9h7.9c-3.5,0-6.9-.2-10.3,3.8Zm10.2-5c.2-.1.3-.1.5-.3,2.5-2.6,5.1.3,7.7.3h-8.2Zm-31.7-42.4c3.1-.9,6.3.9,9.4,0,1.2-2.5,2.3,0,3.4-2.5,1.3-1.7,2.6,0,3.9,1.4,1.4-.2,2.6.2,3.6,1.2h7.2c3.7,0,7.4-8.4,11.1-7.6,1.5,5,3,0,4.6,5-3.5,3.4-7,6.8-10.5,10.1-3.6-1.7-7.2-3.4-10.7-5.1-.5-1.1-1.1-1.8-1.8-2.4h-1.8c-.6,0-1.2-.5-1.8-1.2-1.8.3-3.8,1.4-6.1,3.6-3.6,3.4-6.2,5.4-8.3,3.7-2.1-1.6-2.9-2.8-2.4-6.3Zm-46.6-360.3c3.4-1.5,6.8-3.1,10.1-4.6.7,1.5,1.4,3.1,2,4.6,2.1,3.1,4.1,6.1,6.2,9.2.7,1.6,1.8,2.2,3.2,2.2,0,3.2-1,5.4-2.9,6.9,0,0,0,0,0,0h-20.6c1.2-4.6,2.5-9.2,3.8-13.7-.7-1.6-1.3-3.1-1.9-4.6Z" style="fill:#96dc64;"/><path d="m501.5,1041.5c3.4,4.3,6.7,8.6,10.1,12.9-.5-6.8-.9-13.6-1.4-20.4-3.1,0-6,2.6-8.7,7.6Z" style="fill:#96dc64;"/><path d="m466,145.7c4.2,1.4,20.3-.7,47.7-6.4,1.2,0,4.2-1.7,8.9-5.3,4.6-3.4,7-7.9,7.1-13.5,2.2-.6,4.3-1.3,6.5-2,2.3,2.8,3.4,8.6,3.2,17.6-.3,9.1,1.6,13.6,5.3,13.6,4.4,1.4,7.1,4.6,8.3,9.6,1.2,4.9,2.7,8.1,4.7,9.5,6.9-1.4,10.3-5.4,10.3-11.7,0-6.5-1.3-12.4-3.9-18,1.2-2.8,4.6-7.2,10.3-13.5,5.6-6.3,7.8-10.7,6.6-13.4-.7-1.4-4.4-2.4-11.5-3.1-6.9-.7-11-1-12.2-1,0-2.7.1-5.4.2-8.2-5.6,6.9-12,11.6-19.3,14.4-7.4,2.7-11.4,2.1-11.8-2.1,2.6-5.5,5.2-10.9,7.8-16.4-3.5-2.7-9-.7-16.5,6.2-7.5,6.8-12.4,10.9-14.2,12.3,1.6-6.8,1.7-11.1.4-13.1-15.6,7.7-30.8,15.9-45.9,24.4-2.8,11.2,0,18,8.2,19.9Z" style="fill:#96dc64;"/><path d="m732,1754c11.4-2.6,17.1-5.8,16.9-9.6-3.7-.7-7.4-1.3-11.1-2-8,0-9.9,3.9-5.9,11.5Z" style="fill:#96dc64;"/><path d="m1491.1,1351.9h-10.9c-6,14.5-11.3,27.8-15.9,42-12.8,12.6-12,22,1.6,34.3,2,4.7,6.3,6.3,12.9,4.7,6.5-1.5,11.3-5.4,14.3-11.5,3-6.3,6.8-15.7,11.4-28.4,4.6-12.6,7.9-21.3,10-26.1,9.5-17.5,14.8-39.9,15.5-70.8-3.3,3.3-9,13.1-17.2,26-8,12.9-15.2,15.2-21.6,29.8Z" style="fill:#96dc64;"/><path d="m1146.1,728.6c-2.3,3.4-4.6,6.8-7,10.3,0,10.2,1.5,17.1,4.6,20.5,3.2,3.4,6.1,4.3,9.1,2.4,4.7-1.6,6.3-7.6,4.7-17.9-1.6-10.2-5.5-15.3-11.5-15.3Z" style="fill:#96dc64;"/><path d="m973.6,408.9c6.4-9.5,4-17.4-6.8-23.7-8.5,0-22.2,1.6-40.7,4.7-9.4-6.2-15.4-8.6-18.4-7-3.8,9.4-4.4,15.8-1.8,19,1.3,8.7,2.6,17.4,3.9,26.2,7.8,2.4,15.4,4.8,23.2,7.2,21.5,3.2,35.2-5.7,40.7-26.3Z" style="fill:#96dc64;"/><path d="m1018.2,594.7c1-10,2.1-20,3.1-30-1.3-6.6-5.8-8.2-13.4-4.9-7.7,3.3-14.6,6.6-20.7,9.9.7,2.5,1.3,5,2,7.5-1.8,8.2-2.8,16.6-3.1,24.9,10.2,13.5,21,10.9,32.2-7.4Z" style="fill:#96dc64;"/><path d="m1564.5,305.1c-.9-4.2-1.7-8.4-2.5-12.6-5.2-5.7-10.6-11.2-15.9-16.7,1.1,1.7,2.2,3.4,3.4,5.1,2,9.9,3.9,19.8,5.8,29.8,1.5,3.6,3.1,6.1,4.6,7.5-.2.5-.4,1-.6,1.5-1.7-1.6-3.4-3.1-5.1-4.6-3.7-19.9-8.9-35.4-15.4-46.9-19.2-19.5-39.3-38.1-60.1-55.7.5,5.6.8,11.8,1.1,18.9,2.2,11.8,7.9,21.5,17.4,29,.1,4.5.2,9,.3,13.5-9.7-1.5-28.2-5.3-54.6-11.3-19.9-7.6-32.4-20.3-37.6-38-.5-12.5-1-25-1.7-37.3,5.2-13.6,9.4-21.1,12.8-23.2-7.3-5.2-14.7-10.3-22.2-15.3-.8,2.4-1.6,5-2.3,8.1-2.1,10-5.8,17.6-10.6,18.9,2.3,15.8,4.5,34.8,6.4,49.4-4.3,16.3-2.9,28.5,4.7,43h16c9.5,14.5,23.2,8.4,40.7,8.4,3.8,3,7.6-1.3,11.4,1.7,1.8,3,1.4,9.1-1.2,18.2-9.6,0-19.3,3.2-29.5,9.3-1.8-3-3.6-6.1-5.4-9.1-3.9,1.6-9.7,7-17.7,16.2-7.7,9.3-15.2,14.2-22,14.2-1.6-1.6-3-5-4.4-11.1-1.4-6.1-3.4-8.2-6.2-8.2-11.2-1.5-14.6,7.4-10.4,22.8,4.6,4.6,7.4,24.9,8.3,24.9h-8.5c-4.3,0-9.4-10.2-15.2-22.6-6-12.4-15.6-23.3-28.7-24.8-13.3-1.6-23.4-3.1-30.4-4.6-6.9-1.5-11.8-3.7-14.7-6.9-3-2.9-3.9-7.6-2.9-13.7-15.1-4.5-28-4.5-38.8,0-.7-2.3-1.5-4.5-2.3-6.8-3.8,3.1-10.5,8.7-19.6,17.1-9.4,8.3-17.9,14.5-25.5,18.3-7.6,3.8-12.3,12.7-14.3,26.6-1.9,14-4.7,26.5-8.1,37.6-3.5,11-8.2,22.4-13.8,34.4-5.8,12-18.8,21.2-39.3,27.6-7.4,19.3-5.7,38.7,5.9,58.4,5.8,9.7,13.4,10.2,22.2,1.2,8.9-9.1,14.7-12.6,17.6-11.1,4.5,11.5,9.7,22.9,15.6,34.4-1.4,4.9-2.8,9.8-4.2,14.8,4.3,0,12.5-1.6,24.5-4.9,3.6-11.5,7.2-23,10.7-34.4,5.9-3.3,9.9-7.1,12.1-11.1,2.1-4,2.3-7.7.9-10.9-4.5-6.4-9.1-12.9-13.6-19.4-1.5-9.7-.2-19.4,3.9-29,4.2-9.6,8.3-19.2,12.2-28.7,4-9.5,7.7-16.1,11.2-20.1,3.3-4,7.2-4.4,11.5-1.2,4.5,6.2,4.2,14.6-1.3,24.8-5.4,10.4-8.8,18.7-9.9,25.1-2.4,19.2,6.8,29.7,28.1,31.3,21.2,1.7,34.8,4.1,40.7,7.3-1.3,3.2-2.5,6.5-3.8,9.7-5.8,3.3-14,4-25.2,2.4-11.1-1.6-16.6.9-16.4,7.3,3.1,4.9,5.5,9.4,7,13.6,1.6,4.1.9,7.7-1.9,11-10.5-1.7-16.4-.8-17.8,2.5.5,21.3-4.5,33.7-14.7,37-13.4,2.5-26.9,4.9-40.3,7.4-16.5,6.7-28.5,2.5-35.8-12.4-1.5-8.2-.7-19,2.2-32-3.6,3.2-7.4,6.5-11.2,9.8,0,9.9,0,18.5,0,26,0,7.4-1.6,12-4.6,13.7-9.1,8.3-17.4,16.2-25.1,23.7-7.2,7-15.7,12.3-25.5,15.6-.7-.2-1.5-.3-2.2-.4-1.3-2.2-2.6-4.3-3.8-6.5,1.5-2.4,3.1-4.8,4.6-7.3-1.5-3.4-5.9-9.1-13.3-17.3.1-5-3.9-11.8-11.9-20.9-8-9-11.2-16.3-9.5-22.9,2.3-.8,4.5-.5,6.8-1.3,0-2.9-3.1-6.9-9.1-15.2-.1,0-.2-.2-.3-.5-.4-.6-.7-1-1.2-1.6.4-1.6.8.6,1.2,1.6.1.2.2.3.3.5.3,0,.6-1.7.9-7.1h-13.1c-10.4,14.5-14.6,17.2-12.3,35.4,5.4,11.5,12.6,15.8,21.4,20.7,0,3.3-.2,8-.3,11.3-3.8,2.5-7.5,7.7-11.4,10.2-3.2,10.1-5.9,38.6-7.8,53.1h11.2c10.2-14.5,26-30.8,47.6-26.5.2.4.4-4.5.6-4.2.5-.2,1,0,1.6-.2,1,.2,2,1.2,2.9,1.4,4.4,1.7,5.1,7.1,2.1,12.9-3.3,5.9-7,12.9-11.6,14.6-7.6,0-16.9,16.4-27.7,16.4h-20.5c10.3,14.5,20.8,16.3,31.5,26.4-.2,18.6-3.1,23.2-8.6,26.6-5.4,3.4-18,5.1-37.9,5.1s-17.9,5.5-21.2,16.5c-3.3,11.1-6.7,24.3-10,39.6,2.3,5.1,4.5,10.2,6.8,15.4,20.1,10.3,28.7,18.8,25.5,25.7,0,8.6-6.9,20.1-20.2,34.7-13.3,14.5-18.5,27.8-15.3,39.9-15.4,6.9-28.7,17.9-39.4,33.4-1.6,3.5-9.4,18.8-23.1,46.1,1.6,8.6,4.1,17.1,7.4,25.6-1.3,18.8-2.5,36.5-3.7,53.6.3,10.2,1.6,17.4,4.1,22.6,2.5,5.1,8.1,9.8,16.7,15.8,8.6,5.9,13,10,13.1,15.1,1.5,5.1,7.9,22.5,19,22.5h9c3.2,14.5,10.3,13,21.3,23.1,13.7-1.7,21.9-.6,24.9-2.2,4.5-3.4,16.6-3.4,36.5,0,7.7,1.6,16.8-1.3,27.3-8.9,10.5-7.5,17.4-9.7,20.4-6.3,20,13.4,32.6,19.3,38,17.7,5.1-1.6,9-2.1,11.3-1.3,2.3.9,4.8,4.7,7.8,11.3,1.5,5.1.7,12.2-2.2,21.4-3.1,9.2-4.5,14.6-4.5,16.2,0,11.7,5,24.1,15.4,37.4,4.5,6.6,13.4,17.4,26.6,32.1,1.5,6.6-.2,15.5-4.8,27,7.2,12.9,9.2,21.8,6.2,26.7-16.6,17.8-21,37.9-14.2,60.1,6.9,12.7,12.4,27.3,16.2,43.8,3.8,16.4,6.7,29.7,9.2,40.6,5.8,12.3,11.4,24.5,17,36.6,1.2,3,2.3,9.5,3.3,19,.9,9.8,3.3,15.4,7.2,16.9,7.8,4.4,17.1,5.2,27.8,2.2,10.7-3,21.7-6.7,32.8-11.2,11.2-4.5,20.2-11.4,27-21.3,7-9.7,17.4-23.8,31.7-42.3.5-5.4,1.1-10.9,1.6-16.3,6.2-6.1,13.1-12.4,20.8-18.4,7.5-6.3,9.7-14.1,6.5-23.6-6.6-4.8-8.1-12.7-4.1-23.8,10.7-9.5,22-19.3,33.7-29.8,11.8-10.4,19.1-21.3,21.6-32.6,2.4-9.6,1.2-24.7-3.8-45.1-5-20.5-5-37.4.5-50.7,21.2-23.2,43-46.5,65.8-70.1,3.7-10,13.8-24.3,30.2-42.8.1-1.7,1.5-5.1,4-10.2,2.6-5.1,6.4-10.1,11.1-15.2,1.7-3.4,2.2-11.9,1.2-25.4-3-.9-6-1.7-9-2.6-.1,3.4-3.4,7.6-9.8,12.7-7.6-3.4-16.9-3.4-27.9,0-10.8,3.4-17.1,5.1-18.6,5.1-10.3-8.5-13.2-16.1-8.2-23,10.7-1.7,22.2-4.2,34.8-7.7,15.8-8.5,33.2-18.2,52.2-29.3,18.9-11.1,32.4-21,40.4-29.4,17.4-18.8,24.8-35.1,21.9-48.9-4.6-1.7-9.2-3.4-13.8-5.1-3.1,0-6.2-3.9-9.3-11.6-3.1-7.6-6.9-11.5-11.7-11.6-3.1-1.7-11.7.9-25.6,7.7-4.7,1.7-10,1.7-16.1,0-.8-4.2-1.6-8.5-2.4-12.8-20.3-10.3-31.2-23.2-32.9-38.6,3.1-.9,6.2-1.7,9.4-2.6,12.6,22.3,35.8,31.8,70,28.3,6.2,0,9.4,3.5,9.4,10.2,9.4,0,24.1-.8,44.1-2.6,17.2,0,29.7,3.5,37.3,10.3,24.7,12,37.1,26.7,36.8,43.6,17.2-5,29.4,4.8,36.3,29.6,6.7,24.8,12.9,39.7,18.8,44.8-2.1,10.3-2.5,16.3-1,17.9,1.8,3,3.4,7.6,4.8,13.4,7.6-47.1,11.8-95.4,11.8-144.6,0-231.3-87.8-442.4-231.8-601.9,0,2.6-.4,5.4-1.1,8.4Zm-182,366.2c1.4-1.7-2.6-7.7-12.2-17.8,1.4-3.4,2.8-6.7,4.2-10.1,3.9,1.7,7.8,3.4,11.7,5.1-2.4,16.9,8.8,29.7,33.6,38.1,7.9,3.4,10.8,8.6,8.7,15.3-2.1,6.8-6.2,11.3-12.1,13-9.2,1.7-17.4,1.4-24.4-1-7.1-2.6-16.9-6.7-29.2-13.6-1.5-1.6-7.7,2-18.1,8.7-1.6,0-5.8,2.5-12.8,3.3-6.9.9-11.2,2.8-12.9-2.3-5-13.5.9-20.4,17.4-34.9h9.2c.4,14.5,5.1,10.4,14.4,12.1,9.1,1.7,16.7-9.1,22.7-15.9Zm-56-314c7.5-1.6,13.4-2.7,17.6-3.5,4-.8,6.9-.4,8.4,1.2,3.1,3.1,1.4,7.9-5,14.1-1.8,4.8-3.5,9.4-5.2,14.2-.3-3.1-3.4-6.2-9.1-9.4-2.7,3.1-5.3,6.3-7.9,9.4,2.3,3.2,4.7,6.3,7,9.5,1,4,2,7.9,3.1,11.8-11.9-4.8-18.8-11.9-20.9-21.4-.2-4.8-.6-9.4-.9-14.2,1-6.2,5.4-10.1,12.9-11.7Zm-115.8,338.2c9.1,4.3,16.1,12.3,20.8,24.1-1.6,0-10.1-3.9-25.5-11.4-15.6-7.7-23.3-16.6-23.3-26.8,9.2,5.1,18.6,9.8,28,14Zm154.2,131.7c-9.3,5.2-17.7,7.8-25.5,7.8-10.9,0-21.9-1.8-32.8-5.2-27.7-8.5-45-12.7-51.2-12.7s-7.8,4.1-9.3,11.7c-1.5,7.7,0,14.6,4.7,19.7-11,1.7-23.3-3.4-37.1-17.2-4.7-5.1-11-11.1-18.8-11.1h-14c-6.3,0-8.2-9.4-5.9-19.7,2.3-10.2,2.6-18.8,1-22.2-2.3-2.6-4.6-5.1-6.9-7.7-6.1,1.8-24.5,2.6-55.7,2.6s-19.2,1.7-34.7,5.2c-7.8,5.1-16,10-24.5,14.1-8.7,4.3-16.8,6.6-24.4,6.6,0-3.4,5.3-6.5,16.2-9.9,10.9-3.4,19.6-11.4,25.9-25,1.5-6.8,3.5-12,5.9-18,2.4-6,6.5-9,12.8-14.2,6.3-5.1,10.1-6.2,11.7-13,1.4-6.9,5.6-.5,12.6-.5h28.9c6-14.5,15.3-8.7,27.5,3.1,6.2,5,16.3,4.7,30.3,18.3,0,6,.1,11.9.1,17.9-1.5,1.7-5.4,2.6-11.7,2.6s-9.3,2.6-9.3,7.7c3.1,13.6,11.6,18.8,25.7,15.4,3.1-5.2,9.3-13.6,18.3-25.6,1.5-3.3,1.5-8.4,0-15.2,7.8-1.7,14.2,2,19.7,10.4,5.5,8.6,10.6,9,15.4,23.5h25.5c6.2,0,8.5-11.5,6.8-18.4-3.1-3.3-9.2-7.2-18.6-10.6-4.8-8.6-4-13.6,2.1-15.3,6-1.7,11.4-2.6,16.1-2.6-1.4,11.9,1.9,22.9,9.7,33.2,7.7,6.9,15.5,13.7,23.4,20.5,18.7,3.4,31.8,3.4,39.5,0,15.3-8.6,24.5-11,27.8-7.7.2,12,.3,19.7.4,23.1.1,8.6-9.1,18-27.6,28.2Zm105.4,195.2c-7.8,0-19.1-10.3-34.2-30.9-4.2-11.9-10.1-27.2-17.6-46.1,0-5.2-5.3-13.7-16.2-25.8-15.5-18.7-20.1-36-14-51.4,7.9-1.6,14.9,4.3,21.2,18,1.6,3.4,3.9,8.6,7,15.4,3.8,6,7.6,12,11.4,18,2.3,1.8,4.7,3.4,7,5.2.7,3.4,1.4,6.9,2.1,10.3,0,3.4,3,10.2,9.1,20.5,5.4,7.7,10.7,15.4,16,23.1,6,10.3,8.9,18.8,8.7,25.6-.1,6-.3,12-.5,17.9Z" style="fill:#96dc64;"/><path d="m937.3,307.9c6.6-10.7,3-26.9-10.2-40.4,2.4-3,4.7-6,7.1-9-1.6-3-3.3-6-5-9,3-2.9,9.7-4.4,20.4-4.4,3.3-6,7.3-11.8,11.9-17.8,1.2-11.8,2.6-23.5,3.9-35.1-.9-3.6-1.8-7.2-2.7-10.8,9.5-4.4,13.8-10.8,12.9-19.4-.9-8.5,2.4-22.7,9.7-42.1.1-1.4,2.5-5.6,7-12.4.2-1.4,1.3-3.5,3.5-6.2,2.2-2.7,6.1-8.9,12-18.4,4.5,1.3,7.9.7,10-2.1,2.1-2.6,5.2-7.4,9.5-14.1-.5-6.6-1.8-10.6-4-11.9-9.2-1.2-14.9-1.2-17.5,0-3.8,4-8.1,5.3-12.7,4-5.4-4-6.8-8.2-4.4-12.8,2.4-4.7,6.7-8.2,12.8-10.8,1.4-1.3.8-5.9-1.5-13.6-5.9-5.4-11.6-11.3-17.2-17.5-15.4-1.4-30.9-2.4-46.5-3-1.8,2.1-3.3,3.2-4.4,3.2-11.1,0-20.3,4.5-28.1,13.4-6,1.3-12,2.6-18.1,3.9-.2-1.3-.5-2.6-.7-3.9-.8-1.3-1.7-2.6-2.5-3.9-2.9,2.6-5.1,6.8-6.5,12.6-1.5,5.8-3.4,8.8-5.5,8.8-4.6,0-5.2-4.6-1.7-13.6-.4-2.6-4.4-2.6-11.8,0-11.8,1.3-18.6,1.3-20.6,0,5.7-3.9,8.2-8.7,7.6-14.4-.2-2-.5-3.5-.8-5.1-61.5,3.8-121.3,13.9-178.9,29.5-3.6,4.4-6.9,9.1-9.6,14.4-9.4,17.8-15.7,32.3-18.8,43.1,0,2.7,5.8,2.1,17-2,1.7-1.4,3.3-.6,4.6,2.1-3.9,6.8-14.2,15.1-31.3,24.8-1.8,1.4-3.9,7.2-6.4,16.9.7,1.4,1.4,3.4,2.1,4.9,1.4-2.1,2.8-3,4.2-5.1,2,2.7,4.2,8,6.2,10.8,13.4-2.8,21.4,11.1,24,11.1h7.5c3.9,0,8.9-14.7,14.9-21.7,6.1-6.9,13.5-16.7,22.4-19.4,8.8-2.7,15.5-11.1,20-24.6,1.7-1.4,3.4-2.7,5-4.1,1.6-1.3,5.7-4.7,12.3-10.1,12.3-1.3,27.8-8.7,46-22,1.4,1.3,2.7,2.6,4.1,3.9-2.2,1.3-4.4,2.7-6.5,4-2.9,9.3-5.7,18.7-8.6,28.2-8.9,1.4-17.2,3.1-25,5.1-7.9,2.1-13.8,3.8-17.9,5.1-4.5,2.7-6.8,7.5-6.5,14.4.3,6.9-.8,12.5-3.3,16.7-4.2,3.5-8.3,7-12.5,10.6-1.7,5.5-1.7,15.4.6,29.7,11-2.9,18.4-4.3,22.2-4.3,11.3,0,18,7.2,20.2,21.5,2.2,14.5,2.1,27.6-.6,39.4-4,17.7-9.9,32.7-17.9,44.7-7,19.6-4.8,32.6,6.5,38.8.6,3.1-1.7,7.3-7.7,12.7-5.9,5.4-8.5,9.7-7.6,12.7-3.8,1.6-7.6,3.1-11.4,4.7-2.1,10.9-5.9,20.3-11.6,28.1-.6,3.2.6,8.7,3.5,16.6-3.6,20.5-2.2,41,4.3,61.1,6.3,20.2,17.3,30.4,31.9,30.4,7-14.6,13.9-28.9,21-43.3,3.1-1.6,6.2-2.7,9.4-4.3,2.1-16,9.9-26.9,23-34.8,13.1-8,24.6-12.2,34.5-17,9.9-4.7,18.3-5,25.3-19.5h12.5c30.4,0,54.3-28,71.2-47.9Zm-252.3-218.8c-4.4-2.8-8.8-5.5-13.2-8.2,1.7-10.8,6.8-14.7,15.3-12.1-1.7,1.4-3.4,2.7-5.1,4.1.3,5.4,1.3,10.9,3,16.2Z" style="fill:#96dc64;"/><g style="fill:none; opacity:.1;"><path d="m1717.1,527.9c12.8,281.5-106,564.8-344.5,751.3-391,305.7-955.3,235.8-1260.3-156.1-44.5-57.2-80.8-118.2-109.6-181.5,8.2,179.9,69.9,359.1,188.8,511.9,305,391.9,869.3,461.8,1260.3,156.1,333.9-261.1,433.3-711.6,265.3-1081.7Z"/></g></svg>