<?xml version="1.0" encoding="UTF-8"?><svg id="Camada_1" xmlns="http://www.w3.org/2000/svg" viewBox="0 0 1400 700"><g id="PLANET_2"><path d="m1305.9,230.1c38.7,36.3,78.9,71,115.6,109.2,44.1,45.9,81.4,97.5,112.7,153.2-9.4,13.9-22.6,16.4-37.9,12.6-10.7-14.1-20.7-28.8-32.3-42.1-18.9-21.6-44.9-19.1-57.3,6.1-8.1,16.5-18,30.3-34.1,39.2-29.7,4.1-59.4,8.2-89.1,12.3-7.4-5.6-14.2-4.6-20.5,1.8-20.2,1.2-40.5,2.4-60.7,3.4-43.7,2.2-87.3,4.2-131,6.3-7.2-.6-14.4-1.7-21.7-1.9-92.1-2.6-182.8-15.7-272.1-37.9-5.6-1.4-10.7-4.6-16.1-7-.1-1.5-.3-3.1-.4-4.6,8.9-4.6,17.7-9.6,26.8-13.8,33.6-15.6,64.2-35.5,84.7-67,29.6-45.7,37.2-95.8,23.9-148.4-7.9-31.1-20.6-60-46.9-80.8,3.3-7.8,6.6-15.6,10.6-25.1,6.2,7.7,10.2,13.8,15.4,18.7,3.1,2.9,7.9,4.1,11.9,6.1,2-4.5,6.2-9.3,5.6-13.3-2.1-12.6-6.1-24.7,13.2-26.2,1.4-.1,3.5-2.8,3.8-4.5,3.1-17.9,12.3-36-1.2-53.5-3.2-4.1-6.5-8.2-9.7-12.3.6-2.7,1.2-5.4,1.8-8.1,6.4-5.6,12.8-11.2,19.1-16.7,18.6,5.6,37.2,11.3,55.8,16.9,14,12,27,25.3,42.2,35.5,21.3,14.3,29,27.7,18.9,51.3-8.1,18.8-21.5,35.3-32,53.2-11.1,18.8-23.4,37.1-31.6,57.1-8.2,19.9,3.8,37.5,25,42.1,17.6,3.9,32.9-1.2,46.7-12.3,7.3-5.9,14.5-12.2,22.6-16.8,15.8-9,25-5.8,35,8.2,3.1,4.3,9.6,6.7,15,8.6,10.2,3.4,20.9,5.3,31,8.8,12.7,4.4,24.8,11.4,37.7,14.6,24,6,38.4-.1,51.5-21.1,8.1-12.9,18.3-21,33.5-22.4,11.6-9.7,23.1-19.4,34.7-29.1Zm-77.7,121c-7.5-3.4-17.4-9.4-28.2-12.3-9.9-2.7-15.5,2.6-10.7,13.2,8.7,19.2,23.6,31.6,44.5,34.8,4.6.7,12.7-3.6,14.7-7.8,1.9-3.8-1-11.4-4-15.8-3.1-4.4-8.9-6.8-16.3-12Z" style="fill:#5aa6e6;"/><path d="m487.2,21.9C572.9,3.4,659.5-.3,746.8,6.4c19.7,1.5,39.3,4.2,59,6.3-.5,4.7-.9,9.4-1.4,14-10.9-7-16.9-5-17.1,8.9,0,4-1.3,8-1.9,12-5.3,5.5-10.5,11.1-15.8,16.6-6.7-1.1-13.3-2.2-20-3.1-17.9-2.4-35.8-4.7-53.6-7-18.2-3.4-35.6-1.3-49.9,11.1-19.5,16.8-19.9,37-2.8,62.9,9.6,14.5,8.5,18.3-7.5,24.7-2.4,1-4.9,1.6-7.4,2.4-11.8,3.3-18.1,10.9-14.9,23.2,2.5,9.6,16.4,11.9,28.4,5.5,2.7-1.5,6-2.9,7.6-5.3,14-20.8,33.6-24.2,56.3-18.8,13.8,4,24.7-.1,35.3-9.8,12.4-11.3,23.9-25.1,43.1-25.1,11.1,5.2,12.7,13,8.3,24.2-4.2,10.6-6.9,21.9-9.5,33-3.6,15.8.7,19.7,15.8,15.5,9.7-2.8,21.9-10.7,27.4,2,2.6,6-4.1,18.2-9.7,25-11.4,13.7-13.7,27.1-6.1,43.2,11,23.4,9.3,28.4-12.7,43.7-2.1.7-4.3,1.5-6.4,2.2v-.2c-15.3-4.1-31-7.5-46.2-12.5-12.4-4.1-24.1-10.3-36.2-15.5-7.9-18.4-24.9-25.6-36.2-16.6,9.2,7.5,18.5,15.1,27.9,22.7-3.4,2.6-6.7,5.3-10.1,7.9-14.5,0-21.4,10.6-13.8,22.6,3.1,5,10,7.7,13,12.7,3.1,5.2,3.6,12,5.2,18.1-19.9-2.6-39.9-5.1-59.8-7.7-5-4.8-10-9.6-15.1-14.4,0-2.5.1-4.9.2-7.4h0c-.2-1.5-.5-3-.7-4.5h0c-6.1-4.3-12.1-8.7-18.2-13h.3c-2.4-.4-4.8-.7-7.2-.9v-.3c-4.6-.1-9.2-.2-13.9-.3-5.8-5.4-10.8-12.3-17.5-15.9-42-22.2-86-39.1-134-43.1,12.8-19.3,27.4-36.7,49.1-46.9,5.9-2.8,11.5-7.6,15.6-12.8,8.9-11.3,17.9-25,8-38.4-17-22.9-27.7-47.3-29.3-75.7,1.5-7.8,3-15.6,4.5-23.5.7.3,1.3.5,2,.8,2.8-9,5.5-18,8.3-27Z" style="fill:#66e8b2;"/><path d="m1564.8,547c55.3,103.2,89.2,213.3,104.2,329.2,3.3,25.8,4.8,51.9,7.1,77.8-15.1,9.1-24.7-5.5-36.9-8.7-2.4-4-5.2-7.9-7-12.1-11.7-26.9-30.7-48.1-52.3-67.4-11.1-9.8-21.1-10.6-30.4,2-6.1-5.5-13.2-10.3-18.1-16.8-10.3-13.7-23.7-19.5-40.3-19.7-18.6-.2-25.3-10-20.7-28.5,2.1-8.4,4.3-17.6,3-25.8-4.4-28.6-18.9-52.5-38.2-73.6-13.2-14.4-30.4-18.2-49-20.4-17.1-2.1-22-11.2-22.1-29.7,0-5.2-3.6-10.5-5.6-15.7,11.6,3.5,20.2,3.6,20.9-12.6.3-6.9,5.3-13.6,8.2-20.4,20.8,6.6,21.3,7.7,15.5,35.2,7,4.2,15.2,7.2,21,12.8,18.2,17.5,37.9,20.6,61.1,10.9,9.7-4,11.3-7.9,5.3-15.7-.1-13.4,4.6-22.7,19.6-23.5,2.6-1.2,5.2-2.4,7.9-3.6-3.2-1.7-6.4-3.5-9.6-5.2,0,0,.1,0,.1,0-7.3-2.1-14.7-4.1-22-6.2-2.8-1.9-5.5-3.8-8.3-5.7-1.3-1.5-2.6-3-3.9-4.5-.7-3-1.4-5.9-2.1-8.9-.3-15.2-1.8-30.6-.5-45.7.8-9.7-.8-16.7-8.4-22.4,8-2.6,17.1-9,23.6-6.9,11.5,3.6,21.3,12.4,31.8,19l.8.6c2,2.8,3.9,5.6,5.9,8.4h0c1.7,2.3,3.4,4.7,5.1,7,12.4,8.3,23.2.9,34.3-3.3Z" style="fill:#66e8b2;"/><path d="m40.5,241.7c32.7-36.7,73-63.5,114.7-88.5.5,5.6-.3,11.8,1.7,16.8,8.5,21.1,3.5,41.8-1.3,62.4-5,21.6-11.4,42.8-17.1,64.2-2.9.9-5.9,1.9-8.8,2.8-52.1,16.9-81.9,55.5-101.4,104.2-6.1,14.3-1.8,28.3,9.5,35.5,8,5.1,21.5,3.9,31.9,2,9.2-1.7,17.9-7.7,26.3-12.7,8-4.7,16.9-7.3,21.8,1.2,3.1,5.3,1.2,14.4-.7,21.2-1.2,4.6-5.8,8.7-9.7,12-12.2,10.5-24.8,20.7-37.3,30.9-15.9,13-15.7,17.3,1.9,27.5,19.1,11.1,24.2,26.5,14.4,46.2-3.4,6.9-9.3,12.4-13.6,18.9-11.5,17.6-22.7,35.5-34,53.2,0,3.1-.1,6.2-.2,9.2v.3c-8,3.7-15.9,7.4-23.9,11.1,0,0,.2-.1.2-.1-.5-3.2-1-6.3-1.5-9.5,1.7-14.2,2.2-28.7,5.3-42.5,5.1-22.4,2.2-42-13.2-59.9-5.1-6-10.3-15-9.7-22.2,2.5-31-12-55.3-28-79.4-4.8-11.3-9.6-22.7-14.3-34-1.4-18.5,3.3-34.8,15.8-48.9C1,327.8,19.6,284.1,40.5,241.7Z" style="fill:#30867f;"/><path d="m1271.3,259.2c-15.2,1.4-25.5,9.6-33.5,22.4-13.1,21-27.4,27.1-51.5,21.1-13-3.2-25-10.2-37.7-14.6-10.1-3.5-20.8-5.4-31-8.8-5.4-1.8-12-4.3-15-8.6-10-14.1-19.3-17.2-35-8.2-8.1,4.6-15.3,10.9-22.6,16.8-13.8,11.1-29,16.2-46.7,12.3-21.2-4.7-33.2-22.2-25-42.1,8.2-20,20.6-38.3,31.6-57.1,10.5-17.8,23.9-34.4,32-53.2,10.1-23.6,2.4-36.9-18.9-51.3-15.2-10.2-28.2-23.6-42.2-35.5,23.9,8.6,47.8,17.2,71.8,25.9.5,3,.4,6.2,1.5,8.9,6.7,16.2,17.1,31.7,19.9,48.5,9.8,59,51.5,80.4,102.3,79.9,12.1-.1,25.3,2.6,36.2,7.8,21.9,10.5,42.6,23.6,63.9,35.7Z" style="fill:#66e8b2;"/><path d="m40.5,241.7C19.6,284.1,1,327.8-30.8,363.8c-12.5,14.1-17.2,30.4-15.8,48.9-3.2,5.3-7.6,10.1-9.5,15.9-17.1,53.1-33.7,106.4-50.5,159.6-5.4-2.6-10.8-5.3-17.1-8.3-12,21.1-4.2,50.7-31.9,65.6-4.3-14.6-8.7-28.6-12.6-42.8-3-11-9.2-17.2-21.2-15.9,14.8-30.3,29.7-60.6,44.5-90.9,3-4.3,6.2-8.4,8.9-12.8,23.6-38.4,47.1-76.9,70.7-115.4,11.1-15.5,22.4-30.9,33.1-46.6,9.2-13.5,17.7-27.5,26.4-41.3,15.4-12.6,30.8-25.3,46.2-37.9Zm-192.9,312.4c.6,8.6,1.1,14.5,1.5,20.3,5.7-2.5,13.5-3.7,16.6-8,3.2-4.4,1.7-12.1,2.3-18.4-6.1,1.8-12.2,3.6-20.5,6.1Z" style="fill:#13337c;"/><path d="m1271.3,259.2c-21.2-12-41.9-25.2-63.9-35.7-10.9-5.2-24.1-7.9-36.2-7.8-50.8.5-92.5-20.9-102.3-79.9-2.8-16.8-13.2-32.3-19.9-48.5-1.1-2.7-1-5.9-1.5-8.9,84.6,34.9,164.1,78.7,237.5,133.5,7.4,5.5,14,12.2,20.9,18.3-11.6,9.7-23.1,19.4-34.7,29.1Z" style="fill:#66e8b2;"/><path d="m138.4,296.6c5.8-21.4,12.1-42.6,17.1-64.2,4.8-20.5,9.9-41.2,1.3-62.4-2-5-1.2-11.2-1.7-16.8,29.5-16.9,59-33.8,88.6-50.6,1.5-.9,4-.2,6-.2.9,9.7,1.7,19.4,2.6,29.1-4.7,18.3-15.9,32.1-29.6,44.6-23,20.9-23.5,27.1-7.7,53,7.6,12.5,8.9,24.1-.3,37.6-9.2,13.5-22.5,27.6-10.3,46.4-20.6-11-42-18.9-66-16.6Z" style="fill:#17c05f;"/><path d="m252.4,131.6c-.9-9.7-1.7-19.4-2.6-29.1,26.7-12.5,52.5-27.8,80.4-36.7,51.7-16.6,104.6-29.4,157-43.8-2.8,9-5.5,18-8.3,27-.7-.3-1.3-.5-2-.8-1.5,7.8-3,15.6-4.5,23.5-2.6,7.8-5.2,15.7-8.5,25.4-2.9-4.5-5.5-6.9-6.1-9.7-3-14.8-10.6-16-23.6-10.7-14.6,5.9-30.1,9.5-45.3,13.9-6.3,1.9-12.8,3.2-19.2,5-25.8,7.4-51.3,17.1-77.6,21.3-15,2.4-27.7,6.6-39.7,14.8Z" style="fill:#5ee0a1;"/><path d="m804.3,26.7c.5-4.7.9-9.4,1.4-14,38.1,7.6,76.2,15.3,114.3,22.9-6.4,5.6-12.8,11.2-19.1,16.7-2.2-3.8-3.8-10.5-6.6-11-21.3-3.5-42.9-5.9-64.4-8.6-1.7.8-3.3,1.6-5,2.4,0,0-1.2.8-1.2.8-2.4,1.1-4.8,2.2-7.2,3.3l.4-.2c-2.5-1.5-5-3.1-7.5-4.6l-.9-.9c-1.5-2.3-2.9-4.7-4.4-7h.1Z" style="fill:#538ad5;"/><path d="m694.8,352.9c-1.6-6.1-2.1-12.9-5.2-18.1-3-5-9.9-7.7-13-12.7-7.5-12-.6-22.7,13.8-22.6,5.4,5.4,11,10.6,16.2,16.2,5.7,6.2,10.9,12.9,16.3,19.4,1.8,5.7,1.9,14.3,5.8,16.8,17.9,11.3,32.8,23.9,31.5,50.6,17.6-9.7,24.4-21.6,27.8-36.2,11.2-5,4.5-10.1,0-15.1h0c-.4-3-.8-5.9-1.2-8.8h0c-.2-1.5-.4-3-.7-4.4h0c-.3-1.6-.5-3-.8-4.5h-.1c2-6.7,4.1-13.4,6.1-20.1,0,0-.1.2-.1.2,2.1-.7,4.3-1.5,6.4-2.2,22-15.3,23.7-20.3,12.7-43.7-7.6-16.1-5.2-29.4,6.1-43.2,5.6-6.8,12.3-19,9.7-25-5.5-12.7-17.8-4.8-27.4-2-15.1,4.3-19.4.3-15.8-15.5,2.6-11.2,5.3-22.4,9.5-33,4.4-11.2,2.8-19-8.3-24.2,8,1.7,16.1,3.4,24.1,5.1,3.2,6.9,7,13.7,9.5,20.8,5.6,15.8,15.5,22.2,31.9,19.9,26.2,20.8,39,49.7,46.9,80.8,13.3,52.6,5.7,102.8-23.9,148.4-20.5,31.6-51,51.5-84.7,67-9.1,4.2-17.9,9.2-26.8,13.8.1,1.5.3,3.1.4,4.6,5.4,2.4,10.5,5.6,16.1,7,89.4,22.2,180,35.2,272.1,37.9,7.2.2,14.5,1.2,21.7,1.9,1.9,6.6,3.7,13.1,5.6,19.7-1.8,1.1-3.8,1.9-5.3,3.3-39.4,37.8-84.2,64.1-140.4,66.2-22.2-2.1-44.9-2-66.5-6.8-42.1-9.4-83.5-21.7-125.3-32.3-15.6-3.9-31.4-7.1-47.3-9.3-13-1.9-21.3,3.6-20.1,18.3-5.8-1.6-12.2-2.2-17.4-5-36-19.6-71.7-39.7-107.6-59.4-19.6-10.7-39.7-20.5-48.2-43.4,8.7-14.8,20.7-25.3,37.2-31.4,20.4-7.4,40.5-15.9,60.4-24.7,38.6-17,77.2-34.3,98.4-74.4Zm-39.1,148.5c9.6-3.8,17.2-4.5,19.3-8.2,2.1-3.7-1.2-10.5-2.1-16-5.3,1.6-11.9,1.8-15.3,5.3-2.6,2.6-1.1,9.3-1.8,18.9Z" style="fill:#5aa6e6;"/><path d="m1076.9,551.9c-1.9-6.6-3.7-13.1-5.6-19.7,43.7-2.1,87.3-4.2,131-6.3,20.2-1,40.5-2.3,60.7-3.4-1.5,6-2.2,12.3-4.6,18-1.7,4-5.3,9.9-8.4,10.1-20,1.2-24.6,15-26.5,30.9-.6,4.6-.2,12,2.5,13.5,4.2,2.4,11.3,2.6,15.9.7,4.8-2,7.8-8,12.2-11.4,4.1-3.1,9-5.2,13.5-7.7.1,5.6,2.1,12.1,0,16.6-4.9,10.7-11.9,20.4-20.3,34.3,14.8,3.9,26.9,7.5,39.1,10.2,30.3,6.6,31.4,5.3,22.7-24.4,18.3-14.3,36.6-28.6,54.8-42.9,6.8,1.5,14.3,5.7,20.2,4,16.5-4.5,24.8,2.4,28.7,16.9,2.2,8.3,3,16.9,3.9,25.5,1.7,16.4,8.4,19.9,22.3,10.7,3.4-2.3,6.3-5.4,9.4-8.1,14,9.4,28,18.9,42,28.3,6,7.9,4.4,11.7-5.3,15.7-23.2,9.6-42.9,6.6-61.1-10.9-5.8-5.6-14-8.6-21-12.8,5.8-27.5,5.3-28.6-15.5-35.2-2.8,6.7-7.9,13.4-8.2,20.4-.7,16.2-9.3,16.1-20.9,12.6-13.3-7.7-20.4-1.5-27,10.3-11.4,20.6-22.5,24.6-37.7,15.6-5.2-3.5-10.4-7-15.7-10.5h.6c-1.3-.1-2.7-.3-4-.5-1.1.4-2,.2-2.8-.6-1.6,0-3.1.2-4.7.3,0,0-.2,0-.2,0-5.5-.7-11.4-3.1-16.3-1.8-29.4,7.5-58.5,15.9-87.7,24-16.9,3.2-33.7,7.3-50.8,9.2-13.1,1.4-26.6,0-39.8-.2,22.4-28.7,38.9-59.8,39.3-97.5.3-30-5.5-35.9-34.6-34.1Z" style="fill:#136bb6;"/><path d="m1448.3,619.5c-3.1,2.7-6,5.8-9.4,8.1-13.9,9.2-20.6,5.7-22.3-10.7-.9-8.6-1.7-17.2-3.9-25.5-3.9-14.5-12.2-21.5-28.7-16.9-5.9,1.6-13.4-2.5-20.2-4.1,2.9-20.7,5.7-41.4,8.6-62.1,16.1-9,26-22.7,34.1-39.2,12.4-25.3,38.5-27.7,57.3-6.1,11.6,13.3,21.6,28,32.3,42.1,7.4,9.7,14.9,19.5,22.3,29.2-10.5-6.6-20.3-15.4-31.8-19-6.5-2.1-15.7,4.3-23.6,6.9-2.3-.1-4.5-.2-6.8-.3-.4,0-1.1-.3-1.2,0-.4.6-.6,1.3-.9,2-1.7,2.5-3.1,5.3-5.1,7.6-17.8,21.5-17.3,21.8.7,43.6,4.3,5.2,4.5,13.9,6.6,20.9-2.7,7.9-5.4,15.8-8.2,23.7Z" style="fill:#68f0b8;"/><path d="m849.5,170.7c-16.4,2.3-26.3-4.2-31.9-19.9-2.5-7.2-6.3-13.9-9.5-20.8-2.9-6.9-5.7-13.7-8.6-20.6,14.8-.7,29.7-1.5,44.5-2.2,15.8-.8,23.9-8,23.2-21.1-.8-15.4-11.7-18.7-24-18-12.3.6-24.6,3.1-36.9,5.1-8.4,1.4-13.1-1.4-13.4-10.2-.3-1.6-.6-3.3-.9-4.9,0,0,0,.3,0,.3-.5-1.5-1-2.9-1.5-4.4h0c-.9-1.7-1.9-3.5-2.8-5.3-.8-.5-1.7-.8-2.6-1.1.7-4,1.9-8,1.9-12,.2-13.9,6.2-15.9,17.1-8.9,0,0-.1-.1-.1-.1,1.5,2.3,2.9,4.7,4.4,7,0,0,.9.9.9.9.6,2.5,1.1,5,1.6,7.4,1.9-.9,3.9-1.9,5.8-2.8,0,0-.4.2-.4.2,2.4-1.1,4.8-2.2,7.2-3.3,0,0,1.2-.8,1.2-.8,1.7-.8,3.3-1.6,5-2.4,21.5,2.7,43,5.1,64.4,8.6,2.7.5,4.4,7.2,6.6,11-.6,2.7-1.2,5.4-1.8,8.1,3.2,4.1,6.5,8.2,9.7,12.3,13.5,17.5,4.3,35.6,1.2,53.5-.3,1.7-2.4,4.4-3.8,4.5-19.3,1.5-15.3,13.7-13.2,26.2.7,4-3.6,8.8-5.6,13.3-4-2-8.8-3.1-11.9-6.1-5.1-4.9-9.2-11-15.4-18.7-4,9.5-7.3,17.3-10.6,25.1Z" style="fill:#68f0b8;"/><path d="m1372.5,508.3c-2.9,20.7-5.7,41.4-8.6,62.1-18.3,14.3-36.6,28.6-54.8,42.9-4.4-14.6-9.1-29.1-13.1-43.7-4.5-16.2-8.3-32.6-12.5-49,29.7-4.1,59.4-8.2,89.1-12.3Z" style="fill:#538ad5;"/><path d="m1283.4,520.6c4.1,16.3,8,32.7,12.5,49,4,14.7,8.7,29.2,13.1,43.7,8.7,29.6,7.6,30.9-22.7,24.4-12.3-2.7-24.3-6.3-39.1-10.2,8.4-13.9,15.3-23.6,20.3-34.3,2.1-4.6.1-11,0-16.6-4.5,2.5-9.4,4.6-13.5,7.7-4.4,3.4-7.4,9.4-12.2,11.4-4.6,1.9-11.7,1.7-15.9-.7-2.6-1.5-3-9-2.5-13.5,1.9-15.9,6.5-29.7,26.5-30.9,3.1-.2,6.7-6.1,8.4-10.1,2.4-5.6,3.1-11.9,4.6-18,6.3-6.4,13.1-7.4,20.5-1.8Z" style="fill:#68f0b8;"/><path d="m1228.2,351.2c7.3,5.2,13.2,7.6,16.3,12,3,4.4,5.9,12,4,15.8-2.1,4.2-10.1,8.5-14.7,7.8-20.9-3.2-35.8-15.5-44.5-34.8-4.8-10.5.8-15.9,10.7-13.2,10.8,3,20.7,8.9,28.2,12.3Z" style="fill:#68f0b8;"/><path d="m908.7,72.8c-3.2-4.1-6.5-8.2-9.7-12.3,3.2,4.1,6.5,8.2,9.7,12.3Z" style="fill:#538ad5;"/><path d="m467.2,787.7c-18.2,11.1-36.6,21.9-54.5,33.4-12.8,8.2-15.7,21.5-11.3,34.5,6.6,19.6,15.6,38.4,24,57.3,10.3,23.3,22.3,45.9,30.8,69.8,4.1,11.6,5,26.3,2,38.2-13.4,53,11.2,90.9,44.7,127.5,26.2,28.6,53,57.7,73.4,90.3,22.8,36.4,17.4,76.7-5.8,112.3-31.4,48.1-69,91.3-113.4,128-25.4,21-54.7,33.4-87.1,39.8-36.5,7.3-67.5,26.7-97.4,48-31.1,22.3-65.9,34.2-104.3,37.7-29.5,2.7-58.6,9.1-87.9,13.8,1.5-32.8,22.5-57.5,55.5-65.4,42.3,7.1,57,.2,79.5-36.7,4.8-7.9,10.4-15.4,15.7-23.1,21.9-3.4,43.9-6.9,65.8-10.3,1.7-.2,3.3-.4,5-.5v.5c22.7,4.1,43.5-.2,62.7-12.9,24.1-16,36.6-39.5,43.1-66.6,4.9-20.5,15.5-33,37.4-38.9,15.2-4.1,31.1-13.7,41.7-25.4,31.5-35,27.4-86.1-7.7-123.2-15.4-16.3-35.4-29.3-47.1-47.7-18-28.3-40.8-51.3-64.8-73.6-8.5-7.9-10.1-14.9-3.5-24.2,26.4-37.1,20.7-99-17.5-134.9-22.2-20.8-33.7-45.1-38.9-74.5-4-23.1-11.3-45.7-29.6-62.5-7.8-6.6-14.7-15.3-23.6-19.3-26.2-11.9-43.1-30.8-52.7-57.7-4.5-12.6-14.3-21.5-28.9-22.7-1.2,0-2.3,0-3.5,0,0,0-.4,0-.4,0-15.2,2.1-30.5,4.2-45.7,6.3-9.1-5.3-18.2-10.7-27.3-16-9-5.3-17.5-12.4-27.2-15.4-13.8-4.2-25.4-9.3-29.6-24.4,0,0,0-.3,0-.3,0-3.1.1-6.2.2-9.2,11.3-17.8,22.5-35.6,34-53.2,4.2-6.5,10.2-12,13.6-18.9,9.8-19.7,4.7-35.1-14.4-46.2-17.6-10.2-17.8-14.6-1.9-27.5,12.5-10.2,25.1-20.3,37.3-30.9,3.9-3.4,8.4-7.4,9.7-12,1.8-6.8,3.7-15.9.7-21.2-4.9-8.5-13.8-5.9-21.8-1.2-8.4,5-17,11-26.3,12.7-10.4,1.9-23.9,3.1-31.9-2-11.3-7.2-15.6-21.1-9.5-35.5,8-3,15.9-5.9,24.9-9.3,1.7,4.2,2.1,9.1,4.9,11.3,4.8,3.8,13.1,9.8,16.1,8.1,21.8-12.4,48.3-15.9,66.1-36.7,17.4-20.3,55.7-31.4,84.1-12.2,6.2,4.2,14.4,5.3,20.9,7.5-5.3,9.8-10.9,20.2-16.5,30.6-.8,3-2.6,6.1-2.3,9,.9,6.8,1.2,17.9,4.5,19.1,6,2,16,.2,20.8-4,8.8-7.7,16.9-17.4,21.9-27.9,16.7-35,45.7-47.3,82.1-48.9,13.9-.6,27.7-3.3,41.6-5,12-6.5,26.3-10.8,35.6-20.1,13.7-13.8,28.3-18.2,46.4-15.2,9.7,1.6,19.5,3.4,29.1,5.4,25.5,5.5,49.5,1.6,72.2-11.1,4.6.1,9.2.2,13.8.3-8.7,7.1-18.5,13.1-25.8,21.4-31.2,35.2-67.5,63-110.4,82.8-27.8,12.8-57.1,10.3-86,12.2-31.5,2.1-50.5,11.3-56,33.1-5,20,2.6,38.7,14,54.3,28.8,39.2,46.7,83,61.4,128.9,8.5,26.6,24.6,49.2,45.9,67.8,7.5,13.4,14,27.4,22.7,39.9,9.4,13.6,16.8,26.4,7.1,42.7ZM205.6,444c-12-9.2-21.6-12.1-30.8-2.8-9.3,9.4-1,16.7,4.8,22.6,15.9,16.5,24.4,36,27.2,58.4.8,6.2.8,14,4.5,17.9,4.6,4.8,12.5,7.7,19.3,8.3,2,.2,8.1-11,6.9-15.6-6.4-24.7-14.1-49.1-22.3-73.3-2.2-6.6-7.5-12.3-9.6-15.6Zm69,125.3c-10.4-7.9-19.6-9.4-28-1.1-7.5,7.4-7.8,24.7-.7,31.4,11.3,10.7,22.9,21,34.7,31.1,6.7,5.7,14.4,5.2,14.1-4.5-.6-21.4-4.9-42.2-20-57Zm62.3,110.7c8.1-1.1,18.5.5,23.9-3.9,8.1-6.7-.3-25.5-13.7-35.5-7.3-5.5-13.3-4.9-18.6,2.3-7.3,9.9-3.7,24.5,8.4,37.1Zm-125.7-110.7c1.2-3,2.4-6.1,3.6-9.1-6.4-1.9-12.7-3.9-19.2-5.5-.2,0-2.4,5.9-2.1,6.1,5.8,3.1,11.8,5.8,17.8,8.6Z" style="fill:#00193e;"/><path d="m397.1,345.3c-13.9,1.7-27.7,4.5-41.6,5-36.4,1.5-65.3,13.9-82.1,48.9-5,10.5-13.1,20.2-21.9,27.9-4.8,4.2-14.8,6-20.8,4-3.3-1.1-3.7-12.3-4.5-19.1-.4-2.9,1.4-6,2.3-9,6.2-8.4,12.6-16.6,18.5-25.2,14.1-20.7,11.5-32.9-10.1-46.3-10.6-6.6-21.7-12.3-32.6-18.3-12.1-18.8,1.2-33,10.3-46.4,9.2-13.5,7.9-25.2.3-37.6-15.8-25.9-15.3-32.1,7.7-53,13.8-12.5,24.9-26.3,29.6-44.6,12.1-8.1,24.7-12.4,39.7-14.8,26.3-4.2,51.8-14,77.6-21.3,6.4-1.8,12.8-3.2,19.2-5,15.2-4.4,30.7-8,45.3-13.9,12.9-5.2,20.6-4,23.6,10.7.6,2.8,3.2,5.2,6.1,9.7,3.2-9.7,5.9-17.6,8.5-25.4,1.6,28.4,12.3,52.8,29.3,75.7,9.9,13.3.9,27.1-8,38.4-4.1,5.2-9.7,10-15.6,12.8-21.7,10.3-36.3,27.6-49.1,46.9-7,16-15.4,31.6-20.7,48.2-5.3,16.7-7.6,34.5-11.2,51.7Z" style="fill:#66e8b2;"/><path d="m437.4,705.1c-21.3-18.5-37.4-41.2-45.9-67.8-14.7-45.9-32.6-89.7-61.4-128.9-11.5-15.6-19.1-34.4-14-54.3,5.5-21.8,24.6-31,56-33.1,28.8-1.9,58.2.6,86-12.2,42.9-19.7,79.2-47.5,110.4-82.8,7.3-8.3,17.2-14.3,25.8-21.4,0,0,0,.3,0,.3,2.4.3,4.8.6,7.2.9,0,0-.3,0-.3,0,6.1,4.4,12.1,8.8,18.2,13.1,0,0,0,0,0,0,.2,1.5.5,3,.7,4.4,0,0,0,0,0,0,0,2.5-.1,4.9-.2,7.4,5,4.8,10,9.6,15.1,14.4-8.8,8.4-16.7,17.9-26.6,24.9-25,17.6-50.3,35.1-76.6,50.7-19.4,11.5-36.3,24.7-47,44.6-11,20.4-16.6,41.7-3.1,63.6,3.4,3.7,6.2,8.5,10.3,11.1,31.4,19.2,63,38.1,94.7,56.9,10.9,6.5,23.6,12.6,21.1,27.6-2.2,13.9-15.5,15.4-26.9,16.9-15.9,2-31.9,3.3-47.9,4.9-41.5,4-83.1,7.9-95.6,58.9Z" style="fill:#0f205e;"/><path d="m397.1,345.3c3.6-17.3,5.8-35,11.2-51.7,5.3-16.6,13.7-32.2,20.7-48.2,48,4,91.9,20.8,134,43.1,6.7,3.6,11.7,10.5,17.5,15.9-22.7,12.7-46.7,16.6-72.2,11.1-9.6-2.1-19.4-3.8-29.1-5.4-18.1-3-32.7,1.4-46.4,15.2-9.3,9.3-23.6,13.6-35.6,20.1Z" style="fill:#40d881;"/><path d="m481.7,528.9c-13.5-21.9-7.8-43.2,3.1-63.6,10.7-19.8,27.6-33.1,47-44.6,26.3-15.6,51.6-33.1,76.6-50.7,9.8-6.9,17.8-16.5,26.6-24.9,19.9,2.6,39.9,5.1,59.8,7.7-21.2,40.1-59.8,57.4-98.4,74.4-19.9,8.8-40,17.3-60.4,24.7-16.5,6-28.5,16.5-37.2,31.4-4,4.1-10.1,7.6-11.5,12.5-3.1,10.6-3.8,22-5.5,33.1Z" style="fill:#153e92;"/><path d="m705.6,159.7c-22.7-5.4-42.3-2-56.3,18.8-1.6,2.4-4.9,3.9-7.6,5.3-12.1,6.4-25.9,4.1-28.4-5.5-3.2-12.3,3.1-19.8,14.9-23.2,2.5-.7,5-1.4,7.4-2.4,15.9-6.5,17-10.2,7.5-24.7-17.2-25.9-16.7-46.1,2.8-62.9,14.3-12.4,31.7-14.5,49.9-11.1,1.4,5.4,2.1,11.2,4.4,16.2,13.2,29.2,12.7,59.1,5.4,89.4Z" style="fill:#5aa6e6;"/><path d="m705.6,159.7c7.2-30.4,7.8-60.3-5.4-89.4-2.3-5-3-10.8-4.4-16.2,17.9,2.3,35.8,4.6,53.6,7,6.7.9,13.3,2.1,20,3.1,4.2,6.2,8.5,12.4,12.7,18.6,5.8,8.8,11.6,17.7,17.4,26.5,2.9,6.9,5.7,13.7,8.6,20.6-8-1.7-16.1-3.4-24.1-5.1-19.2,0-30.8,13.8-43.1,25.1-10.6,9.7-21.5,13.8-35.3,9.8Z" style="fill:#5aa6e6;"/><path d="m799.5,109.4c-5.8-8.8-11.5-17.7-17.4-26.5-4.2-6.3-8.5-12.4-12.7-18.6,5.3-5.5,10.5-11.1,15.8-16.6.9.3,1.8.6,2.6,1.1.9,1.8,1.9,3.5,2.8,5.3,0,0,0,0,0,0,.5,1.5,1,2.9,1.5,4.4,0,0,0-.3,0-.3.3,1.6.6,3.3.9,4.9.3,8.8,5,11.6,13.4,10.2,12.2-2,24.5-4.4,36.9-5.1,12.2-.6,23.1,2.6,24,18,.7,13-7.4,20.3-23.2,21.1-14.8.7-29.7,1.5-44.5,2.2Z" style="fill:#5691e2;"/><path d="m791.3,313.5c-2,6.7-4.1,13.3-6.1,20-3.9-8.7-3.7-22.8-19.7-16.6-14.4,5.6-28.4,12.1-42.6,18.2-5.4-6.5-10.6-13.1-16.3-19.4-5.1-5.6-10.8-10.8-16.2-16.2,3.4-2.6,6.7-5.3,10.1-7.9,2.8-2.1,5.6-4.1,8.4-6.2,12,5.2,23.8,11.4,36.2,15.5,15.1,5,30.8,8.4,46.3,12.5Zm-88.6-13.7c-.4-.2-1.2-.7-1.2-.6-.5.6-.9,1.4-1.3,2.1.4.2,1.2.7,1.2.6.5-.6.9-1.4,1.3-2.1Z" style="fill:#5aa6e6;"/><path d="m708.8,285.4c-2.8,2.1-5.6,4.1-8.4,6.2-9.3-7.6-18.7-15.3-27.9-22.7,11.3-9.1,28.3-1.8,36.2,16.6Z" style="fill:#1d6dcf;"/><path d="m619.4,319c-6.1-4.4-12.1-8.8-18.2-13.1,6.1,4.4,12.1,8.8,18.2,13.1Z" style="fill:#00193e;"/><path d="m797.6,311.4c-2.1.7-4.3,1.5-6.4,2.2,2.1-.8,4.3-1.5,6.4-2.2Z" style="fill:#136bb6;"/><path d="m619.9,330.8c0-2.5.1-4.9.2-7.4,0,2.5-.1,4.9-.2,7.4Z" style="fill:#00193e;"/><path d="m601.5,305.8c-2.4-.3-4.8-.6-7.2-.9,2.4.3,4.8.6,7.2.9Z" style="fill:#00193e;"/><path d="m620.1,323.4c-.2-1.5-.5-3-.7-4.4.2,1.5.5,3,.7,4.4Z" style="fill:#00193e;"/><path d="m1177.8,839c-3-3.5-6.1-6.9-9.1-10.4-17.4-24.5-19.9-55.8-6.1-77.6,10.5-14.8,21.1-29.7,34.4-48.4,13.7,9.5,30.1,20.8,46.5,32.2,13.5,9.3,20.3,7.1,25.7-8.3,6-17.4,2.2-34-4.5-50.3-3.5-8.5-6.8-16.8,2.4-24,0,0,.2,0,.2,0,1.6,0,3.1-.2,4.7-.3.8.8,1.7,1,2.8.6,1.3.2,2.7.4,4,.5,0,0-.6,0-.6,0,5.2,3.5,10.4,7,15.7,10.5,15.3,9,26.3,5,37.7-15.6,6.6-11.9,13.7-18,27-10.3,2,5.2,5.6,10.5,5.6,15.7,0,18.5,5,27.6,22.1,29.7,18.6,2.3,35.8,6.1,49,20.4,19.3,21.1,33.8,45,38.2,73.6,1.3,8.3-.9,17.5-3,25.8-4.6,18.5,2.1,28.3,20.7,28.5,16.6.2,30,5.9,40.3,19.7,4.8,6.5,12,11.3,18.1,16.8-2.8,20-5.7,40-8.5,60-2.7,2.1-5.5,4.3-8.2,6.4-6.3-6.2-12.5-12.4-18.8-18.6-5.6-5.5-11.4-6.2-17.4-.6-9.7-1.4-19.4-2.7-29.1-4.1-.2-2-.9-4.1-.6-6,7.6-44.1-19.9-77.5-35.7-114.4-1.6-3.8-11.2-8.1-14-6.6-4.3,2.4-7.9,9.5-8.3,14.9-1.4,20,9.8,34.9,20.5,50.7,9.3,13.8,14.6,30.2,21.7,45.4-12.7,30.2-41.5,38.4-61,17.5-.2-4.4-.4-8.7-.7-13.1,4.3.2,8.7-.1,12.8.7,4,.8,7.7,2.9,11.6,4.4,13.2,4.9,18.3,1.3,13.9-12.2-4-12.4-11.3-24-18.2-35.3-8-13.1-17.3-25.4-26-38.1-4.4-30.1-41.2-53.2-69.6-43.4-3.7,1.3-8.9,3.7-9.9,6.8-5.8,16.8-19.4,17.8-33.8,18.8-4.3.3-8.5,3-12.7,4.7-5.8,5.6-12.5,10.5-17.2,16.8-10,13.4-22.1,21.1-39.3,20.3-4.4-.2-8.8,1.6-13.2,2.5-3.3-2.1-6.6-4.3-9.9-6.4Z" style="fill:#5ee0a1;"/><path d="m38.5,649.2c4.2,15,15.8,20.2,29.6,24.4,9.7,3,18.2,10.1,27.2,15.4,9.1,5.3,18.2,10.6,27.3,16,.3,2.8.8,5.6.8,8.4-.1,11.3-.4,22.6-.7,33.8-1.2,12.9-4.9,26.1-3.1,38.5,6,42.5,1,83.7-6,125.7-5.4,32.4-7.4,66.9-2.5,99.2,13.1,86.6,60.7,153.8,128.3,207.7,53,42.3,67,94.5,40.8,157.1-12.5,29.7-28.6,57.8-42,87.1-4.3,9.4-4.9,20.4-7.1,30.6-5.3,7.7-10.9,15.2-15.7,23.1-22.5,36.9-37.2,43.8-79.5,36.7-14-16.8-28.3-33.4-42.1-50.4-40.5-49.7-11.9-107.4,36.4-121.1,16-4.6,32.5-7.4,48.8-10.8,14.7-3,26.6-9.7,32.1-24.4,8.3-22.5,7.5-44.7-1.5-67.1-10.5-26.3-33.6-40.6-53.3-57.9-36-31.6-67.8-66.1-88.8-109.7-38.5-79.8-44.9-160.1-9-243.1,12.1-27.9,18.4-58.4,26.2-88.1,3.3-12.4.3-24-14.5-28.3,3.4-20.5-6.9-42.8-25-50.7-18.5-8-28.6-21.3-30.6-41.1,8-3.7,16-7.4,23.9-11.1Z" style="fill:#0e7259;"/><path d="m-.7,1251.3c-4.8-.4-12.9.8-14-1.5-17.7-35.9-36.4-71.5-50.9-108.7-16.6-42.6-22.2-88.3-19.6-133.7,3.4-62.2,11.5-124.2,16.1-186.4,1.3-18.3-1.3-37.2-4-55.6-6.6-45.1-10.2-90.3-2.6-135.3,9.1-53.9,19.9-107.6,30.9-161.2,1.6-7.9,8.3-14.8,12.6-22.2,16,24.1,30.5,48.3,28,79.4-.6,7.2,4.6,16.2,9.7,22.2,15.3,17.9,18.3,37.5,13.2,59.9-3.2,13.9-3.6,28.3-5.3,42.5.5,3.2,1,6.3,1.5,9.5,0,0-.2.1-.2.1,2,19.8,12.1,33,30.6,41.1,18.1,7.9,28.4,30.2,25,50.7-4.8,24.8-22.4,39-42.1,51.9-19.7,12.8-41.3,24-57.6,40.4-22.1,22.3-26.2,53.8-26.8,83.9-.7,41.1,1.1,82.3,3.3,123.4,1.8,33.9,11.7,66.7,32.4,93.3,25.7,33,26.3,68.5,19.8,106.4Z" style="fill:#00193e;"/><path d="m204.4,313.2c10.9,6.1,22,11.8,32.6,18.3,21.6,13.4,24.1,25.6,10.1,46.3-5.8,8.6-12.3,16.8-18.5,25.2,5.6-10.4,11.2-20.8,16.5-30.6-6.4-2.2-14.7-3.3-20.9-7.5-28.3-19.2-66.7-8.1-84.1,12.2-17.8,20.8-44.3,24.2-66.1,36.7-3,1.7-11.3-4.3-16.1-8.1-2.7-2.2-3.2-7.2-4.9-11.3-9,3.4-16.9,6.3-24.9,9.3,19.4-48.7,49.3-87.3,101.4-104.2,2.9-1,5.9-1.9,8.8-2.8,24-2.2,45.4,5.7,66,16.6Z" style="fill:#000c1d;"/><path d="m38.7,639.7c0,3.1-.1,6.2-.2,9.2,0-3.1.1-6.2.2-9.2Z" style="fill:#0e7259;"/><path d="m14.8,660.1c-.5-3.2-1-6.3-1.5-9.5.5,3.2,1,6.3,1.5,9.5Z" style="fill:#0e7259;"/><path d="m817,39.1c-1.9.9-3.9,1.9-5.8,2.8-.5-2.5-1.1-5-1.6-7.4,2.5,1.5,5,3.1,7.5,4.6Z" style="fill:#b2f2a0;"/><path d="m808.6,33.6c-1.5-2.3-2.9-4.7-4.4-7,1.5,2.3,2.9,4.7,4.4,7Z" style="fill:#b2f2a0;"/><path d="m823.7,35.9c-2.4,1.1-4.8,2.2-7.2,3.3,2.4-1.1,4.8-2.2,7.2-3.3Z" style="fill:#b2f2a0;"/><path d="m829.9,32.8c-1.7.8-3.3,1.6-5,2.4,1.6-.8,3.3-1.6,5-2.4Z" style="fill:#b2f2a0;"/><path d="m1162.5,751.1c-13.7,21.8-11.2,53.1,6.1,77.6-5.7,1.7-14,6.6-16.5,4.5-15.5-12.7-33.9-8.5-50.8-9.7-32.9-2.3-65.2,3-96.4,14.4-15,5.5-34.2,2.2-42.5,21.1-14.5-3.2-31.4,1.4-42.7-13.4-1-1.3-7.4,1.6-11.3,2.5-11.5-5.8-22.5-14.1-34.7-17-33.4-7.8-67.5-13.3-101.2-19.9-87.8-17.1-166.6-55-240.4-104.6-.5-5.1.6-11.3-1.9-15.1-11.9-18.6-11.6-30.9,2.5-45.2,16-1.6,32-2.9,47.9-4.9,11.4-1.4,24.7-3,26.9-16.9,2.4-15-10.2-21.2-21.1-27.6-31.7-18.8-63.3-37.6-94.7-56.9-4.1-2.5-6.9-7.3-10.3-11.1,1.7-11.1,2.4-22.4,5.5-33.1,1.4-4.9,7.5-8.4,11.5-12.5,8.5,22.9,28.7,32.7,48.2,43.4,35.9,19.7,71.6,39.9,107.6,59.4,5.2,2.8,11.6,3.4,17.4,5,32.6,19.1,65.2,38.2,97.8,57.3,38.8,18.9,77.2,38.9,116.6,56.4,65.7,29.1,128.7,27.8,185.8-21.4,13.3.2,26.7,1.6,39.8.2,17.1-1.9,33.9-6,50.8-9.2,3.2,9.1,9.3,18.3,8.8,27.2-1,16.6-5.8,33-9.1,49.4Zm-469.4-62.4c7.9-3.1,13.6-3.8,16.8-7.1,1.5-1.6-.6-10.4-2.9-11.2-4.2-1.6-10.7-1.2-14.2,1.3-2,1.4,0,8.5.3,17Z" style="fill:#154499;"/><path d="m1072.2,683.4c-57.1,49.3-120.1,50.6-185.8,21.4-39.5-17.5-77.8-37.5-116.6-56.4,3.4,0,7-1.1,10.1-.2,46.7,13.6,94.2,22.2,142.9,19.5,21.8-1.2,43.3-7.1,64.9-10.8.2-2.1.4-4.3.6-6.4-6.8-4.1-13.4-8.6-20.5-12.1-12.1-6-24.5-11.4-36.7-17.1,56.2-2,101-28.4,140.4-66.2,1.5-1.4,3.5-2.2,5.3-3.3,29.1-1.9,34.9,4.1,34.6,34.1-.4,37.7-16.9,68.7-39.3,97.5Z" style="fill:#538ad5;"/><path d="m931.2,621.3c12.3,5.7,24.6,11,36.7,17.1,7.1,3.5,13.7,8.1,20.5,12.1-.2,2.1-.4,4.3-.6,6.4-21.6,3.8-43.1,9.6-64.9,10.8-48.7,2.7-96.2-5.9-142.9-19.5-3.1-.9-6.7,0-10.1.2-32.6-19.1-65.2-38.2-97.7-57.3-1.2-14.7,7.1-20.2,20.1-18.3,15.9,2.3,31.7,5.4,47.3,9.3,41.8,10.6,83.2,22.9,125.3,32.3,21.6,4.8,44.3,4.7,66.5,6.8Z" style="fill:#5691e2;"/><path d="m722.9,335.1c14.2-6.1,28.2-12.6,42.6-18.2,16-6.3,15.8,7.9,19.7,16.6,0,0,.1,0,.1,0,.3,1.5.5,2.9.8,4.4,0,0,0,.1,0,.1.2,1.4.4,2.9.7,4.3,0,0,0,0,0,0,.4,2.9.8,5.8,1.2,8.6,0,0,0,.1,0,.1,0,5,0,10.1,0,15.1-3.4,14.6-10.2,26.5-27.8,36.2,1.3-26.7-13.6-39.3-31.5-50.6-3.9-2.5-4-11-5.8-16.8Z" style="fill:#b2f2a0;"/><path d="m655.7,501.4c.7-9.7-.8-16.3,1.8-18.9,3.4-3.4,10.1-3.7,15.3-5.3.9,5.4,4.3,12.3,2.1,16-2.2,3.8-9.7,4.5-19.3,8.2Z" style="fill:#5aa6e6;"/><path d="m787.9,366.4c0-5,0-10.1,0-15.1,4.5,5,11.2,10.1,0,15.1Z" style="fill:#136bb6;"/><path d="m788,351.1c-.4-2.9-.8-5.8-1.2-8.6.4,2.9.8,5.8,1.2,8.6Z" style="fill:#136bb6;"/><path d="m786.1,337.9c-.3-1.5-.5-2.9-.8-4.4.3,1.5.5,2.9.8,4.4Z" style="fill:#136bb6;"/><path d="m786.8,342.4c-.2-1.5-.4-2.9-.7-4.3.2,1.5.4,2.9.7,4.3Z" style="fill:#136bb6;"/><path d="m1162.5,751.1c3.3-16.5,8.1-32.8,9.1-49.4.5-8.9-5.6-18.1-8.8-27.2,29.2-8.1,58.4-16.5,87.7-24,5-1.3,10.9,1.1,16.3,1.8-9.1,7.2-5.9,15.5-2.4,24,6.8,16.3,10.5,32.9,4.5,50.3-5.3,15.4-12.2,17.6-25.7,8.3-16.4-11.3-32.8-22.7-46.5-32.2-13.3,18.8-23.9,33.6-34.4,48.4Z" style="fill:#1659ad;"/><path d="m1293.7,663.5c-5.2-3.5-10.4-7-15.7-10.5,5.2,3.5,10.4,7,15.7,10.5Z" style="fill:#1659ad;"/><path d="m1271.8,651.9c-1.6,0-3.1.2-4.7.3,1.6,0,3.1-.2,4.7-.3Z" style="fill:#1659ad;"/><path d="m1278.7,653.1c-1.3-.2-2.7-.4-4-.5,1.3.2,2.7.4,4,.5Z" style="fill:#1659ad;"/><path d="m790.7,54c-.9-1.8-1.9-3.5-2.8-5.3.9,1.8,1.9,3.5,2.8,5.3Z" style="fill:#b2f2a0;"/><path d="m792.2,58.3c-.5-1.5-1-2.9-1.5-4.4.5,1.5,1,2.9,1.5,4.4Z" style="fill:#b2f2a0;"/><path d="m793,62.9c-.3-1.6-.6-3.3-.9-4.9.3,1.6.6,3.3.9,4.9Z" style="fill:#b2f2a0;"/><path d="m533,646.2c-14.2,14.3-14.4,26.6-2.5,45.2,2.5,3.9,1.4,10,1.9,15.1-5.5-3.3-10.9-6.6-20.6-12.5,4.3,11.3,5.9,18.3,9.4,24.3,20.6,35.4,49.6,62.6,85.5,81.9,24.6,13.2,50.4,24.2,75.7,36.2-11,9.9-22,19.8-33.8,30.4,4.8,5.8,9.8,12,14.8,18.2-23.4-9.8-47.5-18.2-70-29.6-42.5-21.6-84.2-45.1-126.2-67.7,9.7-16.3,2.3-29.1-7.1-42.7-8.7-12.5-15.2-26.6-22.7-39.9,12.5-51,54.1-54.9,95.6-58.9Z" style="fill:#13337c;"/><path d="m682.3,836.5c-25.3-12-51.1-22.9-75.7-36.2-35.8-19.3-64.9-46.5-85.5-81.9-3.5-6-5.1-13.1-9.4-24.3,9.7,5.9,15.1,9.2,20.6,12.5,73.7,49.6,152.5,87.5,240.4,104.6,33.8,6.6,67.8,12,101.2,19.9,12.2,2.9,23.2,11.2,34.7,17-.6,11.6-8.7,14-18.2,15.1-65.6,7.4-129.4-1.5-191.7-22.3-5.3-1.8-10.9-2.9-16.4-4.3Z" style="fill:#1787e6;"/><path d="m277.6,798.3c-30.5-9.6-69.8,10.5-82.4,45.3-7.5,20.7-11.2,43.3-13.4,65.4-3.8,39.3-6.8,79,5.1,117.7,15,48.5,46.1,85.3,83.8,118,34.5,29.9,68.3,60.9,100,93.7,27,27.9,28.4,77,6.2,109-11.9,17-25.2,33.1-38.3,49.2-20.6,25.2-36.3,52.2-36.5,86,0,0-.1-.5-.1-.5-1.7.2-3.3.4-5,.5-21.9,3.4-43.9,6.9-65.8,10.3,2.3-10.3,2.9-21.3,7.1-30.6,13.4-29.3,29.5-57.4,42-87.1,26.3-62.6,12.3-114.8-40.8-157.1-67.7-54-115.2-121.2-128.3-207.7-4.9-32.3-3-66.8,2.5-99.2,7.1-42,12-83.2,6-125.7-1.8-12.4,1.9-25.7,3.1-38.5,4.3-4.2,8.7-8.2,12.8-12.6,11-11.9,21.9-23.9,32.8-35.9,0,0,.4,0,.4,0,1.2,0,2.3,0,3.5,0,14.6,1.3,24.4,10.1,28.9,22.7,9.6,27,26.5,45.9,52.7,57.7,9,4.1,15.8,12.7,23.6,19.3Z" style="fill:#17c05f;"/><path d="m205.6,444c2.1,3.3,7.4,8.9,9.6,15.6,8.1,24.2,15.9,48.6,22.3,73.3,1.2,4.6-4.9,15.8-6.9,15.6-6.8-.6-14.7-3.5-19.3-8.3-3.7-3.9-3.8-11.7-4.5-17.9-2.8-22.5-11.3-42-27.2-58.4-5.7-5.9-14.1-13.3-4.8-22.6,9.2-9.3,18.8-6.4,30.8,2.8Z" style="fill:#30cb72;"/><path d="m274.6,569.3c15.1,14.8,19.5,35.6,20,57,.3,9.7-7.5,10.2-14.1,4.5-11.8-10.1-23.4-20.5-34.7-31.1-7.1-6.7-6.8-24,.7-31.4,8.5-8.3,17.6-6.9,28,1.1Z" style="fill:#b2f2a0;"/><path d="m336.9,680c-12.1-12.6-15.7-27.2-8.4-37.1,5.3-7.2,11.3-7.8,18.6-2.3,13.4,10,21.8,28.8,13.7,35.5-5.4,4.4-15.8,2.8-23.9,3.9Z" style="fill:#edede9;"/><path d="m168.4,698.6c-10.9,12-21.8,24-32.8,35.9-4.1,4.4-8.5,8.4-12.8,12.6.2-11.3.6-22.6.7-33.8,0-2.8-.5-5.6-.8-8.4,15.2-2.1,30.5-4.2,45.7-6.3Z" style="fill:#339f96;"/><path d="m211.2,569.3c-6-2.8-12-5.5-17.8-8.6-.3-.2,1.9-6.1,2.1-6.1,6.5,1.6,12.8,3.6,19.2,5.5-1.2,3-2.4,6.1-3.6,9.1Z" style="fill:#30cb72;"/><path d="m172.3,698.6c-1.2,0-2.3,0-3.5,0,1.2,0,2.3,0,3.5,0Z" style="fill:#339f96;"/><path d="m702.7,299.8c-.4.7-.8,1.5-1.3,2.1,0,0-.8-.4-1.2-.6.4-.7.8-1.5,1.3-2.1,0,0,.8.4,1.2.6Z" style="fill:#1659ad;"/><path d="m693.1,688.6c-.3-8.5-2.3-15.5-.3-17,3.5-2.5,10-2.9,14.2-1.3,2.2.8,4.4,9.6,2.9,11.2-3.2,3.2-8.8,4-16.8,7.1Z" style="fill:#5691e2;"/></g></svg>