<?xml version="1.0" encoding="UTF-8"?><svg xmlns="http://www.w3.org/2000/svg" xmlns:xlink="http://www.w3.org/1999/xlink" viewBox="0 0 400 400"><defs><radialGradient id="radial-gradient" cx="152.7" cy="77.6" fx="152.7" fy="77.6" r="324.3" gradientTransform="translate(247.5 -57.3) rotate(61)" gradientUnits="userSpaceOnUse"><stop offset="0" stop-color="#3597d4"/><stop offset=".9" stop-color="#454e9d"/></radialGradient><radialGradient id="radial-gradient-2" cx="114.9" cy="23.7" fx="114.9" fy="23.7" r="328.3" xlink:href="#radial-gradient"/><radialGradient id="radial-gradient-3" cx="218.2" cy="185" fx="218.2" fy="185" r="224.9" gradientTransform="translate(247.5 -57.3) rotate(61)" gradientUnits="userSpaceOnUse"><stop offset="0" stop-color="#010101"/><stop offset=".8" stop-color="#010101"/><stop offset=".8" stop-color="#030304"/><stop offset=".9" stop-color="#3c4e55"/><stop offset=".9" stop-color="#698a96"/><stop offset="1" stop-color="#8ab5c5"/><stop offset="1" stop-color="#9ed0e2"/><stop offset="1" stop-color="#a6daed"/></radialGradient><radialGradient id="radial-gradient-4" cx="154.2" cy="92.4" fx="154.2" fy="92.4" r="308.4" gradientTransform="translate(247.5 -57.3) rotate(61)" gradientUnits="userSpaceOnUse"><stop offset=".6" stop-color="#f5f5fb"/><stop offset=".6" stop-color="#eee9f4"/><stop offset=".8" stop-color="#decce3"/><stop offset="1" stop-color="#c49cc8"/><stop offset="1" stop-color="#c299c6"/></radialGradient><radialGradient id="New_Gradient_Swatch_22" cx="150.6" cy="111.4" fx="150.6" fy="111.4" r="214.6" gradientTransform="translate(247.5 -57.3) rotate(61)" gradientUnits="userSpaceOnUse"><stop offset="0" stop-color="#96c11e"/><stop offset="1" stop-color="#10a238"/></radialGradient><radialGradient id="radial-gradient-5" cx="184.1" cy="67.2" fx="184.1" fy="67.2" r="227.5" gradientTransform="translate(247.5 -57.3) rotate(61)" gradientUnits="userSpaceOnUse"><stop offset="0" stop-color="#96c55e"/><stop offset="1" stop-color="#010101"/></radialGradient><radialGradient id="radial-gradient-6" cx="173" cy="45.2" fx="173" fy="45.2" r="268.5" gradientTransform="translate(247.5 -57.3) rotate(61)" gradientUnits="userSpaceOnUse"><stop offset="0" stop-color="#a4d5cc"/><stop offset=".2" stop-color="#97d1c8"/><stop offset=".6" stop-color="#77c7be"/><stop offset="1" stop-color="#4dbab2"/></radialGradient><radialGradient id="radial-gradient-7" cx="88.4" cy="137.9" fx="88.4" fy="137.9" r="180.8" gradientTransform="translate(247.5 -57.3) rotate(61)" gradientUnits="userSpaceOnUse"><stop offset="0" stop-color="#dedd0e"/><stop offset=".2" stop-color="#d1d110"/><stop offset=".4" stop-color="#b1b115"/><stop offset=".5" stop-color="#abab17"/><stop offset=".5" stop-color="#a5a518"/><stop offset=".8" stop-color="#7d7e1f"/><stop offset=".9" stop-color="#6e7022"/></radialGradient><radialGradient id="radial-gradient-8" cx="132.4" cy="175.4" fx="132.4" fy="175.4" r="81.6" gradientTransform="translate(247.5 -57.3) rotate(61)" gradientUnits="userSpaceOnUse"><stop offset="0" stop-color="#fff"/><stop offset="1" stop-color="#089939"/></radialGradient><radialGradient id="radial-gradient-9" cx="280" cy="110.3" fx="280" fy="110.3" r="168" gradientTransform="translate(247.5 -57.3) rotate(61)" gradientUnits="userSpaceOnUse"><stop offset="0" stop-color="#f1ac55"/><stop offset="1" stop-color="#b97225"/></radialGradient><radialGradient id="New_Gradient_Swatch_3" cx="224.7" cy="170.2" fx="224.7" fy="170.2" r="175.7" gradientTransform="translate(247.5 -57.3) rotate(61)" gradientUnits="userSpaceOnUse"><stop offset="0" stop-color="#86bf59"/><stop offset="1" stop-color="#179d38"/></radialGradient><radialGradient id="radial-gradient-10" cx="322.9" cy="63.7" fx="322.9" fy="63.7" r="102.2" gradientTransform="translate(247.5 -57.3) rotate(61)" gradientUnits="userSpaceOnUse"><stop offset="0" stop-color="#fff"/><stop offset="1" stop-color="#848431"/></radialGradient><radialGradient id="radial-gradient-11" cx="45.3" cy="172" fx="45.3" fy="172" r="173.5" xlink:href="#radial-gradient-8"/><radialGradient id="radial-gradient-12" cx="92.6" cy="251.3" fx="92.6" fy="251.3" r="109.7" xlink:href="#radial-gradient-9"/><radialGradient id="radial-gradient-13" cx="91" cy="253" fx="91" fy="253" r="106.2" xlink:href="#radial-gradient-10"/><radialGradient id="radial-gradient-14" cx="20.8" cy="19.2" fx="20.8" fy="19.2" r="198.2" gradientTransform="translate(210.4 -41.3) rotate(41.7)" gradientUnits="userSpaceOnUse"><stop offset="0" stop-color="#fff"/><stop offset=".2" stop-color="#f9fbfd"/><stop offset=".4" stop-color="#e8f2fa"/><stop offset=".7" stop-color="#cde3f5"/><stop offset="1" stop-color="#a7ceee"/><stop offset="1" stop-color="#a3ccee"/></radialGradient><radialGradient id="radial-gradient-15" cx="96.2" cy="76.4" fx="96.2" fy="76.4" r="131.3" gradientTransform="translate(210.4 -41.3) rotate(41.7)" gradientUnits="userSpaceOnUse"><stop offset="0" stop-color="#f2f5fc"/><stop offset="1" stop-color="#010101"/></radialGradient><radialGradient id="radial-gradient-16" cx="87.8" cy="123" fx="87.8" fy="123" r="113.8" gradientTransform="translate(247.5 -57.3) rotate(61)" gradientUnits="userSpaceOnUse"><stop offset="0" stop-color="#c5c55d"/><stop offset="1" stop-color="#050b08"/></radialGradient></defs><g style="fill:none; isolation:isolate;"><g id="Layer_1"><path d="m375.2,103c53.5,96.5,18.6,218.2-78,271.6-96.5,53.5-218.2,18.6-271.6-78C-27.8,200.2,7.1,78.5,103.6,25.1,200.2-28.4,321.8,6.5,375.2,103h0Z" style="fill:url(#radial-gradient); fill-rule:evenodd;"/><path d="m87.6,257.6c-2-2.3-2.3-4.9-4.9-5.3-3.5-.6-6.7,1.3-3,7.3,1.7,2.8-4.5,3.1-4,6.1,1.3,7.6,5.6,13.1,13,14.7,2.6.6,3.7,1,6.8,4.4,2.4,2.6,1.1-4.8,7.9,3.2,7.5,8.8,4.7.9,14.1,4.4,2.8,1,3.6-8.2,11.1-.8,6,5.9,5.2,5.8,12.7,3,4-1.5,2.8-2.8,1.3-6.7-2.1-5.4-9.9-1-15-6.4-3.1-3.3-9.9-8.1-14.1-4.9-5,3.8-12.8,0-3.6-5.4,7.1-4.1,4.4-8.4,0-8-2.2.2-5,1.2-7,1.4-4.4.3-6.5-2.2-9.1-3-2.5-.7-3.4-1.1-6.2-4.2h0Zm248.8-187.2c.4.7,1,1.2,1.6,1.8,1.1,1.2,2.5,2.2,3.5,3.5,3.6,4.8,7.2,9.7,10.1,14.9.7,1.2,0,2.7.5,4,.5,1.8,1.4,3.4,2.3,5,1.2,2.1,3.2,3.7,4.2,5.9,2,4.7,3.7,9.6,4.7,14.7.9,4.4.3,9,1,13.5.4,2.9,2,5.6,2.3,8.6.3,3.2.4,6.5-.4,9.6-.8,3-3,5.4-4.5,8.2,0,.1,0,.2,0,.3-.6,2.7-1.3,5.3-1.6,8-.3,2.7,0,5.6-.4,8.3-.4,2.5-1.1,5-2.1,7.4-1.2,2.9-2.6,5.7-4.5,8.2-3.2,4.3-7.1,8-10.6,12-5.3,6-9.9,12.8-16.1,17.8-6.2,5-13.3,9.2-20.9,11.9-15.7,5.6-31.7,11.1-48.3,12.7-4.8.4-8.1-5.9-12.8-7-4.9-1.1-10,1.1-15,.5-2.3-.3-3.9-3.1-6.2-3.2-9.7-.5-19.3,1.4-29,1.2-4.2,0-8.7-.3-12.6-1.9-6.6-2.7-12.2-7.7-18.6-10.8-3.4-1.6-7.6-1.3-10.8-3.3-7.9-5.2-14.4-12.1-21.8-18-.9-.7-2-.9-2.9-1.5-4.4-3-8.7-6-12.9-9.2-3.1-2.4-6.7-4.3-9-7.5-1.7-2.4-1-5.8-2.1-8.5-.8-2.1-2.2-4-3.6-5.8-1.6-2.1-3.2-4.4-5.3-6-3-2.3-7.2-2.8-9.9-5.5-1.4-1.3-1.7-3.7-1.4-5.5.4-2.2,2.9-3.7,3.2-5.9.2-1.7-1.2-3.2-1.7-4.8-1.1-3.7-3.3-7.4-3.1-11.3.2-2.9,2.7-5.2,4.3-7.6,1.1-1.6,3.7-2.6,3.8-4.5.1-2.1-2.4-3.4-3.3-5.2-.6-1.3-2.1-3-1.2-4.2,1.3-1.7,4.7-.6,6.2-2.3.9-1.1.3-3-.5-4.2-1.1-1.7-3.9-1.8-4.8-3.6-.9-1.8-.2-4.1.2-6,.6-3.1,1.6-6.1,2.9-9,.5-1.1,1.4-2,2.5-2.6,1.1-.7,2.9-.1,3.8-1.1.8-.9,0-2.6.6-3.6.6-.9,2.3-.6,3-1.5.3-.4-.5-.9-.7-1.4-.7-2.7-1.9-5.3-1.8-8.1,0-1.2,1-2.3,2.1-2.8,1.4-.6,3.3.7,4.5-.3,1.1-.9.9-2.7,1-4.1,0-1.1-.4-2.2-.5-3.3,0-.1.2-.1.3-.2.9-.3,1.8-.8,2.8-.8,1.3,0,2.4.7,3.7.6,1.2,0,2.5-.2,3.6-.8.6-.3,1.2-.9,1.1-1.5-.4-2-1.9-3.5-2.4-5.5-.3-.9-.2-2,0-2.8.4-1.1,1.1-2.3,2.1-2.9,4-2.2,8.7-3.2,12.8-5.4,1.8-1,3.4-2.6,4.8-4.1,1.7-1.9,2.6-4.5,4.5-6.2,1.5-1.3,3.5-2,5.5-2.5,2.1-.5,4.3-.3,6.4-.6,2-.2,4.1-.3,6-.9,2-.7,3.8-1.9,5.6-2.9,2.9-1.6,5.4-3.9,8.5-5.1,3-1.2,6.3-2,9.6-2.1,3.1,0,6.1,1.1,9.2,1.6,1.4.2,2.7.4,4.1.3,2,0,4.1-.4,6.1-.8,2.7-.5,5.4-1.4,8.1-1.7,4-.4,8.2-1.1,12.2-.4,2.8.4,5,2.7,7.7,3.5,2.4.7,4.9.8,7.3,1.1,2.9.4,6,0,8.8.9,2,.6,3.1,2.9,5.1,3.5,2.1.6,4.4-.6,6.5,0,4,1.1,7.4,3.9,11.3,5,2.6.8,5.4.5,8.2.7,3,.2,6-.5,8.9.3,2,.5,3.7,2,5.2,3.4,2.6,2.3,4.6,5.4,7.2,7.7,1.1,1,2.7,1.5,4,2.2,3.5,1.9,7,4,10.6,5.8,2.5,1.2,5.3,1.8,7.7,3.2,2.4,1.4,4.5,3.2,6.5,5,.9.9,1.4,2.2,2.3,3.1,1,1,2.5,1.5,3.5,2.4,1.7,1.6,3.2,3.5,4.7,5.4,1.1,1.4,1.8,3.1,2.7,4.5h0Zm40.1,102.6c-.8-1.5-.6-1.3-1.8-2.3-2.5,1.1-2.1,0-3.6,2.6-2.7,4.6-5.7-.4-8.5,5.7-.8,1.7,3.7,4.9,1.2,6.5-1.9,1.2,3.4,4.2-1.4,9.4-.5.5-.8,2.1-2.6,3.8-5.4,4.9-3.9-2.8-8,1.2-1.5,1.4.9,3.4-1.9,5.1-.3.2-.8,4.9-2.6,6.4-3.5,3.1-.6,7.1,4.8,4,1.9-1.1,4.3-1.3,6.5-3.7,2.6-2.8,8.2-6.1,9-10.3.3-1.3-.6-4.9.6-5.6,7.6-4.2,1.1-6.4,6.5-10,1.8-1.2-.7-5.6,1.4-7,1.2-.8,1.6-3.8.7-5.4l-.2-.4h0Zm-153.3,77c-3.1-8-8.5,1.1-14.9-1.7-2.1-.9-7.4,1.1-9.2.1-2.2-1.2-9.1,2.9.3,7.9,5.7,3,3.7-2.2,9.2,9,2.7,5.4,8.5,5.9,11.6.9,3.2-5.2,5.8,2.9,10-3.5,3.2-4.9,4.5,2.5,15.1.2,7.9-1.7-1.1-3.6,7.2-7.3,2.4-1-.7-4-3.6-4.7-9.6-2.4-4.4-3.1-14.2,2.1-2.4,1.3-4.6-1.5-7.8-2.8-2.8-1.1-3.3.8-3.7-.2h0Zm-62.8-7.8c-3-9.5-9.6-6.8-12.6-8.1-.7-.3-3.1,1.4-6-1.7-1.5-1.7-7-4-9.5-8.8-.9-1.6-15.7-7.7-8.8,4,3.4,5.7,13,8.8,17.5,17.5,1.8,3.4,8.3,8.8,12.9,8.1,4.9-.7,5.9,7.7,13.3,2.3,2.5-1.8,3.5,1.7,7.8-.8,1.3-.8,4.5-2.1,6.4-3.7,3.6-3.1,1.3-6.2-4.6-4.3-2.1.7-4.8,1.1-7.8-.5-4.2-2.3-1.7-4.4-7.8-3.2-.6.1-.8-.3-1-.8h0Zm88.6-20.2c-3.5-3.8-8.4,3.3-13.4.9-1.9-.9-2.9,4.5-10.1.7-3.1-1.6-10.1,2.2-18.4-3.2-3.1-2-6.1-2.8-8.4-6.2-2.4-3.6-4-1.2-7.1-5.4-.4-.6-10.9-6.4-9-7.7-.2-.7,4.1-2.6,6.9.8,0,0,3.7,2,5.1,3.2,7.9,6.9,14.2,1.8,15.3,3,2.2,2.4,10.5,1.6,12.3,3.8,1,1.2,6.4.9,8.4-1.8,1.7-2.3,8.8-.9,10.5,2.1,4,7,6.2-3.3,12,3.5,1.6,1.8,4.2.4,5.3,1.5,5.6,5.5,24.5-6,24.1-.2,0,0-11.1,13.3-14.9,10.5-7.2-5.3-6.2,6.3-14.3,1.2-2.6-1.6-2.5-4.6-4.4-6.6h0Z" style="fill:url(#radial-gradient-2); fill-rule:evenodd;"/><path d="m374.2,102.5c53.5,96.5,18.6,218.2-78,271.6-96.5,53.5-218.2,18.6-271.6-78C-28.9,199.6,6,78,102.6,24.5,199.1-28.9,320.7,6,374.2,102.5h0Z" style="fill:url(#radial-gradient-3); fill-rule:evenodd; mix-blend-mode:screen;"/><path d="m117.9,317c-5.3-9.1.6-10.5-12.3-13.7-4-1-8.7-2-10.4-2.6-2.5-.8-5-1.7-7.3-3-2.3-1.4-3.8-3.9-6.2-5.1-2.2-1.1-5.2,0-7.2-1.6-5.6-4.3-3.6-14-6.1-19.7-5.1-11.8-18.3-15.2-23.9-20.9-1.6-1.6,0-5-1.7-6.5-2-1.8-6-.3-7.9-2.3-1.7-1.7-1.9-4.7-1.3-7.1,1.6-6.2,8.7-11.4,8.3-19.8-.5-11.1-7.5-37.9-5.9-46.1,1.1-5.9,6.7-10.2,8.2-16,.7-2.9-2.3-5.7-1.8-8.6.7-4.4,8.1-2.5,1.4-13.6-6.8-11.2-19.5-13.7,10-25.4,2.9-1.1,10.4-3.3,4.2-6.4-4.3-2.2-13.9-2.5-15.5-10-.5-2.4,1.8-5,4-6.3,4-2.4,8.8-2.9,13.3-4.1,6.7-1.6,13.7-2.3,20.3-4.2,6.4-1.8,5.1-5.8.6-7-4.9-1.3-10.3-1.1-14.8-3.3-5.1-2.4,2-9.3,5.7-10.6,4.1-1.4,8.6-1,12.9-.8,2,0,3.4-.4,1.6-2-1.7-1.5-4.2-3.4-5.9-5.2-.8-.8-.9-2.1.9-2.4,6.7-.8,13.9-1.1,20-4,2.5-1.2,1.9-5.3,3.8-7.3,1.4-1.4,3.9-1,5.4-2.3,1.1-.9.8-3,2-3.7,3.4-1.9,7.4-2.2,11-3.5,2.6-.9,5.2-1.7,7.5-3.2,3.4-2.2.7-4.6,5.1-7.8-11,3.8-21.8,8.5-32.3,14.4C7.1,78.5-27.8,200.2,25.6,296.7c53.5,96.5,175.1,131.4,271.6,78,73.8-40.9,111.6-121.5,101.4-200.4,0,.7,0,1.4,0,2.2,0,11.4-3.9,8.9-4.8,11-.7,1.6-.5,3.5-.6,5.3-.2,4.7.4,9.5-.3,14.3-.2,1.6-1.4,2.9-2.2,4.4-1.3,2.4-3.1,4.6-4,7.2-.6,1.8.6,4.2-.5,5.8-1.3,1.9-3.2,2.3-4,4.4-1.1,3,3.1,6.9-2,13.7-1.6,2.1-9.1,3.9-12,7.8-2.4,3.2-3.9,7-5.2,10.7-1.8,5-1.5,10.7-4.2,15.3-2.1,3.5-4.8,7.4-8.2,9.6-1.6,1-3.6,1.5-5.5,1.5-2.1,0-4.3-2.2-6.3-1.3-9.5,4-21.1,31.7-30.6,41.6-7.9,8.3-17.2,15.6-27.3,21.1-2.6,1.4-9.6,1.2-8.6-1.5,2.2-6.4,17.1-10.3,21.1-19.1,4.2-9-9.9-3-12.1-1.4-12.3,8.6-10.4,17.6-27.3,18.5-1.5,0-6.4-2-6.4-3.5,0-2.1,3.3-3,3.9-5.1.2-.9-1.2-1.7-2.1-1.8-3.2-.5-6.7-1.2-9.6.1-4.9,2.2-8.1,7.2-12.7,10-2,1.2-4.5,1.4-6.8,1.9-2.3.5-4.6.9-6.9,1-1.9,0-3.9-.7-5.8-.5-2.3.2-4.4,1.4-6.6,1.8-2,.4-4,.9-5.9.7-2.3-.2-4.4-2-6.7-2-2.6,0-5,2.2-7.6,2-1.9-.1-3-2.7-4.9-2.8-2.6-.1-5,2.6-7.5,2.1-1.6-.3-1.3-3.5-2.9-3.8-2.5-.5-4.9,2.3-7.5,1.9-1.6-.2-3-1.9-3.4-3.5-.3-1.2,1.5-2,1.8-3.2,1.4-6.8-2.1-4.9-4.5-5.5-2.2-.5-2.8-2.2-2.9-3.8-.2-3.3,5-7,6.7-9.1,1.4-1.7-1.6-4.3-4.7-4.1-2.8.2-5.3,2.2-8,2.6-.9.1-1.7-1.2-2.6-1-6.2,1.2-10.1,6.5-18.1,1.9-1.8-1.1-3.3-2.8-4.4-4.6h0Z" style="fill:url(#radial-gradient-4); fill-rule:evenodd; mix-blend-mode:multiply;"/><path d="m135.4,8.2c-6,.9-16.9,1.7-18.1,2.2-1.2.6-5.7,6-9.3,8.1-2.7,1.6-8.1,1.9-8.9,2.7-8.1,8.7-17.8,15.9-27.4,23-2.6,1.9-8.2,3-9,3.9-1.3,1.5-9,12.8-14.2,18.6-2.3,2.5-6.3,3.4-8,6.3-7.1,12.2-16.5,19-24.7,28.5-.9,1.1-.9,9.4-1.9,14-2.8,13.8-6.4,17-9.6,26.9-2.3,7-4.2,14.2-5.1,21.6-.6,4.9.9,9.9.6,14.9-.2,3.5-2,6.9-2,10.4-.1,6.6.7,13.2,1.5,19.8.3,2.7,1.3,5.3,1.9,8-.2-1.8-.1-3.7.5-5.3.3-.7,1.3-.9,1.6-1.5.3-.7-.2-1.8.2-2.4.4-.6,1.5-.3,1.9-.9.5-.7.3-1.8.4-2.6,0-.8-.3-1.8.2-2.4.4-.5,1.3,0,1.8-.4.6-.4,1.2-1.1,1.4-1.9.3-1.5-.5-3.1,0-4.6.2-.8,1.2-1.5,2-1.5,1.1,0,1.9,1.6,2.9,1.4.9-.1,1.5-1.2,1.7-2.1.3-.9-.2-1.9-.2-2.8,0-.9-.5-2.2.3-2.7s1.1,1.1,1.3,1.8c.5,1.6,0,3.4.7,5,.4.9,1.6,1.3,2.3,2,.8.8,1.8,1.4,2.1,2.5.3,1.3-.4,2.6-.3,3.9,0,.5.4,1,.6,1.5.8,2,1.3,4.2,2.4,6,.5.8,1.4,1.8,2.4,1.8,1.1,0,2.3-.9,2.8-1.9.5-1,.4-2.4-.2-3.4-.7-1.2-2.3-1.6-3.3-2.6-.7-.7-1.4-1.5-1.6-2.5-.3-1.8.4-3.7,0-5.5-.2-1.3-1.9-2.2-1.7-3.5.7-4.2,3.3-7.9,4.4-12.1.2-.9.1-2.1-.4-2.8-1.2-1.6-3.4-2.2-4.7-3.7-.5-.5-.3-1.4-.6-2-.6-1.1-1.7-1.8-2-3-.3-1.1-.3-2.4.1-3.4.4-.9,1.6-1.1,2.3-1.8.6-.6,1.5-1.3,1.5-2.2,0-2.6-1.6-4.9-1.7-7.5,0-.7,1.1-.8,1.4-1.4.5-1.6.3-3.3.8-4.9.1-.3.8-.9.9-.6.1,1.3-.6,2.6-.5,3.9,0,.8.8,1.3.9,2.1,0,1-.9,2-.6,2.9.4,1.5,1.9,2.4,2.4,3.9.6,1.6.4,3.5,1.1,5,.2.5,1,1.1,1.6.8,1.8-.9,2.7-3.3,4.6-3.9,1.1-.3,2.6.4,3,1.5.5,1.3-1.4,2.8-1,4.1.6,1.9,2.9,2.8,3.9,4.5.8,1.3.3,3.4,1.4,4.4.6.6,1.7-1.3,2.4-.9.7.4,0,1.8.4,2.5.4.7,1.5.6,1.9,1.3.4.7,0,1.8.3,2.5.6,1.2,1.5,2.2,2.4,3.1.7.7,1.4,1.5,2.3,1.7,1.1.3,2.2,0,3.3-.3.7-.3,1.3-.9,1.6-1.6.6-1.4.2-3.1,1-4.4.4-.6,1.5,0,2.1-.5,1.1-.9,1.3-2.6,2.4-3.5.5-.4,1.5.2,2-.2.8-.6.9-1.9,1.7-2.4.4-.2.9,1,1.2.7,1.2-1,1.5-2.9,2.7-4,.4-.4,1.2-.5,1.7-.2.8.5,1.7,1.4,1.7,2.3,0,2.5-1.5,4.8-1.7,7.3-.1,1.5.1,3.1.7,4.5.4.8,1.1,1.9,2,1.8s1.1-1.7,2-2c.7-.2,1.5.9,2.3.6.6-.2,0-1.9.6-1.7.8.2.4,1.7,1,2.2,1.1,1,2.9,1.2,4,2.3.4.5-.1,1.3,0,2,.2,1.3.2,2.7,1,3.7.6.9,1.9,1,2.7,1.7.8.7,1,2.1,2,2.4.9.3,1.8-.9,2.7-1,.6,0,1.6,0,1.6.6-.1.8-1.1,1.4-1.9,1.7-.9.4-2.1,0-3.1.5-.3.1-.1.8-.5,1-.7.4-1.8,0-2.3.6-.8,1.2-1.4,2.7-1.1,4.2.3,1.5,1.3,2.8,2.5,3.8,1.2,1,2.6,2,4.2,2,1.2,0,1.8-2.2,3-2,1,.1.8,2,1.6,2.7.9.7,2.1,1.4,3.2,1,1.3-.5,1.3-2.5,2.5-3.2,1.4-.8,3.3-1.3,4.8-.7,2.4.9,3.9,3.5,6.2,4.8.4.2,1-.4,1.2-.8.3-.5-.1-1.1.1-1.6.7-1.5,1.5-3,2.7-4.3.4-.4,1.3-.7,1.8-.4.7.4.6,1.7,1.3,2.2.7.4,1.7-.3,2.4,0,1,.7,1.2,2.3,2.3,2.9,1.7,1,3.6,1.6,5.6,1.8.5,0,1-.4,1.4-.9.4-.5.1-1.3.6-1.6.7-.6,1.8-1.1,2.6-.8,1.4.5,2.1,2.5,3.5,3,1,.3,2-.9,3-.7.7.2.7,1.7,1.5,1.7,2,0,4.2-.6,5.8-1.7.8-.6,1.1-1.9.8-2.8-.6-1.6-2.1-2.6-3.2-3.8-.3-.3-.9-.3-1.2-.7-.5-.6-1.4-1.4-1-2.1.4-.6,1.6.1,2.3,0,.6,0,1-.7,1.6-.7,1.7,0,3.4.7,5.1.6,1.1,0,2.8-.1,3-1.2.4-1.9-.6-3.9-1.7-5.6-.7-1.1-2.3-1.1-3.2-2-1.2-1.3-1.4-3.5-2.9-4.3-1-.6-2.3.8-3.5.7-.6,0-.9-1-1.5-1.1-.7-.2-1.4,0-2,.2-1.3.6-2.3,2.8-3.7,2.4-1.3-.3-1.4-2.4-1.2-3.7.1-1.2,1.9-1.8,2-3,.1-1.5-.2-3.4-1.4-4.4-1.6-1.4-4-1.6-6.1-1.9-1.3-.2-2.9,1.5-3.8.6-1.2-1.3.7-4.1-.6-5.3-1.7-1.6-4.4-1.6-6.8-1.6-1,0-1.5,1.8-2.5,1.6-1-.2-.9-1.8-1.7-2.4-.8-.7-2.3-.5-3-1.3-.6-.7.2-1.9-.3-2.6-.5-.7-1.6-.5-2.3-1.1-1.4-1.2-2.3-2.9-3.8-4-.7-.5-1.9-.2-2.6-.8-.7-.5-.5-1.7-1.1-2.2-.9-.7-2.9-.1-3.4-1.2-1.1-2.6.9-5.9-.5-8.3-1-1.7-4.2-.6-5.5-2.1-.7-.9,1.3-2.2,1-3.3-.4-1.3-1.9-1.8-2.8-2.8-1.3-1.4-1.9-4.3-.5-5.2,2.6-1.7,10-1.1,14.8,3.5,2.4,2.3,2.6,6.2,4.8,8.8,1.3,1.5,3.1,2.7,5.1,2.9,1.2.2,2.3-.9,3-1.9,1-1.3.6-3.5,1.8-4.5.8-.7,2.2,0,3.3,0,1.2,0,2.7-1.3,3.5-.4.7.8-.4,2.3-1.2,3.1-.4.4-1.2,0-1.7.1-1,.3-2.2.4-2.8,1.3-.4.6.2,1.4.5,2.1.5,1,1.5,1.6,1.9,2.6.6,1.3,0,3.1,1,4.1.9.9,2.6,1.1,3.9.6,1.5-.6,2.2-2.5,3.6-3.3,2.6-1.4,5.3-2.7,8.2-3.3,1.5-.3,2.9,1.1,4.4.9,3.1-.3,6-2.2,9.1-2.3,4,0,8.1.7,11.9,2,2.7.9,4.8,3.4,7.5,4.4,2,.8,4.4,0,6.3,1,3.5,1.9,5.6,5.8,9.2,7.5,2.6,1.2,5.7,1.2,8.5,1,1.7,0,3.9-.3,4.8-1.7.6-1-1.2-2.2-2.2-2.7-3.2-1.4-6.8-1.3-10-2.6-4.1-1.7-7.8-4.3-11.6-6.6-2.2-1.3-4.2-3-6.6-3.9-2.2-.9-4.8-.5-7-1.3-4.7-1.6-9.5-3.1-13.8-5.7-2.9-1.8-4.2-5.5-7.1-7.2-1.5-.9-3.9,1.2-5.2,0-1.6-1.4-.4-4.6-1.8-6.2-.8-1-2.6-.7-3.9-.6-2.4.2-4.6,1.8-7,1.5-1.8-.3-2.7-2.6-4.4-3.2-3-1-6.4-.6-9.4-1.6-2.5-.8-5-2-6.8-3.9-1.3-1.4-2.2-3.6-2-5.6.2-1.7,2.2-2.6,3-4.1,1.1-2,2.8-4.1,2.6-6.4-.1-1.4-2.1-2-3.5-2.5-2.1-.9-5-.1-6.5-1.8-1.8-1.8-.8-5.4-2.4-7.4-1-1.3-3.9,0-4.7-1.5-.9-1.5-.5-3.9.6-5.3,1-1.3,3.3-.7,4.7-1.7,1.3-.9,1.6-3.3,3.1-3.8,3.4-1,7.1.1,10.6-.3,1.4-.2,3.3-.3,3.8-1.5.4-1-1.8-1.3-2.5-2.1-1.5-1.9-3.8-3.6-4.1-6.1-.2-2,1.1-4.3,2.9-5.1,1.4-.6,2.6,2,4.1,2,1.7,0,3.1-1.8,4.9-1.9.9,0,2,.6,2.5,1.4.7,1.3-.2,3.3.9,4.3,1.3,1.2,3.8.2,5.2,1.4,1.7,1.5,1.7,4.5,3.4,5.9.8.7,2.3,0,3.2-.6,2-1.4,3-4.3,5.3-5.2,1.3-.5,2.3,1.8,3.6,1.9,1.4,0,2.4-1.6,3.8-1.5,2.2,0,4.4.8,6.3,1.9,2.4,1.4,3.5,4.9,6.2,5.5,2.1.4,3.6-2.2,5.6-2.9,2.4-.8,4.9-1.7,7.4-1.7.9,0,1.3,1.6,2.3,1.7,2.6.4,5.4-1.1,8-.3,1.8.6,2.9,2.4,3.7,4.1.7,1.5,0,3.5.7,5,.5.8,2.3.2,2.7,1.1.4,1.2-1.4,2.6-.9,3.8.6,1.4,2.3,2.7,3.8,2.5,2.4-.3,3.9-3,6.2-4,.5-.2,1.3,0,1.4.5.2,1.8-.5,3.6-.7,5.4-.2,2.5-.9,4.9-.6,7.4.2,1.1.9,2.4,2,2.6,3.2.5,6.5-1,9.7-.9,2.5,0,5.1.3,7.2,1.6,2.6,1.7,3.3,5.6,6.1,7,3.8,1.9,8.4,1.5,12.6,2.3,2.5.5,5.2.4,7.6,1.4,2.1.8,5.1,1.7,5.5,3.8.3,1.6-3.2-.3-4.8-.3-2.1,0-5.1-1.6-6.2.1-1,1.5,2.3,2.8,3.7,3.9,1.3,1,4.6.7,4.2,2.3-.3,1.6-3.2.8-4.8.4-3.3-.8-6.5-2.1-9.5-3.7-1.4-.8-2-2.8-3.5-3.3-1.6-.6-3.5.8-5.2.3-3.9-1.1-7.2-3.8-11.1-5-1.5-.4-3.3-.5-4.6.3-.6.4,1,1.1,1.4,1.6.9,1,2.1,1.9,2.7,3.2.6,1.3,0,3,1,4.1,1.1,1.4,3.8,1.1,4.6,2.6.4.9-1.9.9-2.9.8-2.6-.1-5-1.2-7.6-1.4-1.4,0-4.5-.6-4.2.8.5,2.2,3.3,3.3,5.3,4.3,3.7,1.7,8.1,1.4,11.6,3.4,1.8,1.1-4.2-.6-6.3-.4-.8,0-1.9.4-2.1,1.2-.2.8.4,1.7,1,2.2,1.6,1.5,3.3,3.4,5.5,3.8,4.4.8,8.9-1,13.3-.5.9.1,2.7,1.9,1.8,2.2-3.8,1.2-8,0-11.8,1.2-.7.2-.8,1.9-.2,2.3,3.5,2.3,7.4,4.1,11.4,5.2,4.2,1.2,8.8.7,13.1,1.6,2.2.4,4.3,1.1,6.3,2.1.7.4.8,1.5,1.5,2,1.3,1,3.2,1.2,4.2,2.5,1.1,1.4.5,3.7,1.7,5,1.2,1.4,3,2.2,4.8,2.6,1.3.2,2.6-1.3,3.9-1,2.6.6,4.6,3,7.3,3.4.8.1,1.4-1.2,1.4-2.1-.2-2.2-.9-4.4-2.1-6.2-.8-1.1-2.7-1-3.7-2-.8-.8-.5-2.5-1.5-3.1-2.9-1.6-6.6-1.3-9.5-3-.7-.4,0-1.7.5-2.2,1.2-1.1,2.7-1.9,4.3-2.3,2.1-.5,4.3-.5,6.4-.3,1.3.1,2.6.5,3.6,1.3,3.2,2.5,6.4,5.2,8.9,8.4,1.2,1.6,1.9,3.6,2.1,5.6,0,.1-3.3,2.4-1.1,4.3,1,.9,2.7,0,3.9.2,1.2.3,2.2,1.5,3.4,1.4,1.6-.2,3-1.2,4.1-2.4.2-.2,0-1.5-.3-2.3-.7-2-3.2-2.7-3.8-3.5-.4-.5-.6-1.4-.3-2,.2-.4.9-.2,1.3,0,.7.4,5.4,5,6.6,6,3,2.5,6.5,4.6,9.1,7.5.9,1.1.4,2.9,1.2,4.1.8,1,2.6.9,3.4,1.9.5.6.5,1.7,0,2.3-.9,1.4-3.3,1.6-3.8,3.2-1,3.5.4,7.4-.3,11-.4,2-2.4,3.4-3,5.4-.5,1.8-1.3,4.3,0,5.6,1,.9,2.5-1.3,3.4-2.3,2.1-2.2,3.3-5.3,5.7-7.1,1.6-1.2,4-.7,5.7-1.8,1.3-.9,1.1-3.4,2.5-3.8,2.4-.7,5,1.2,7.5.8,1.7-.3,3.2-1.6,4.2-3,.6-.8.3-2.1,0-3-.6-1.5-2.1-2.5-2.9-3.9-1.2-2.3-1.4-5.2-3.1-7.2-1.4-1.6-3.6-2.3-5.7-3-1.3-.5-2.9.2-4.1-.4-2.4-1.3-4-3.7-6.3-5.2-1.6-1-3.8-.9-5.3-2.1-3.3-2.4-6.2-5.3-9-8.3-3.1-3.4-6.1-7-8.6-10.9-.4-.7-.2-1.7.2-2.4.2-.4.9-.8,1.3-.6,1.3.5,1.9,2.1,3.2,2.5,1.8.5,3.8.5,5.7,0,1.7-.4,4.5-.5,4.8-2.3.3-2.2-2-4.1-3.7-5.4-1.4-1.1-3.3-1.2-5.1-1.3-.8,0-1.4.8-2.1,1-.5.2-1.3.6-1.7.2-1.6-1.5-2.1-3.9-3.7-5.3-3-2.3-6.7-3.5-10-5.4-2.8-1.7-5.6-3.5-8.1-5.5-2.9-2.4-5.9-4.9-8.3-7.9-.8-1-1.1-2.3-.9-3.6,0-.6,1.3-.4,1.6-.9.4-.6-.1-1.9.6-2.1,2.3-.5,4.8.7,7.2.3.9-.1,1.9-.9,2.1-1.8.1-.8-.8-1.4-1.4-1.9-2.6-2-5.3-4-8.3-5.4-2.1-1-4.6-.9-6.7-1.8-1.1-.5-2-1.4-2.8-2.2-.2-.2-.2-.7,0-.8.5-.4,1.3-.2,1.7-.6.5-.5.9-1.2,1-1.9,0-.7,0-1.5-.6-1.9-1.3-.9-3-1.3-4.6-1.6-1-.2-2.2.7-3,.2-2.3-1.4-3.6-4.2-5.9-5.6-.9-.6-2.1.2-3.1-.1-.4-.2-1-.9-.7-1.2.5-.6,1.5-.2,2.2-.5.4-.2.6-1,1-1,2.7.5,5,2.2,7.7,2.7.5,0,1.1-.6,1.1-1.1-.1-1.1-.6-2.2-1.5-2.8-5.3-3.7-11-7.1-16.8-10-.7-.3-1.6,0-2.2.5-.5.3,0,1.6-.6,1.6-2,0-3.8-1.4-5.8-1.7-.8-.1-1.7.6-2.5.5-.8-.1-1.3-1.2-2.2-1.2-2.5,0-4.9.8-7.3,1.3-1,.2-1.9.7-2.9.6-1.2-.1-2.1-1-3.3-1.2-3.1-.7-6.5-.3-9.5-1.4-1.5-.6-2.5-2.1-3.3-3.6-.3-.5.7-1.2.5-1.8-.3-1.2-1.6-2.1-1.8-3.3,0-.5.5-1.1,1-1.1,3.1-.1,6.3.4,9.4.7,3.1.3,6.1.9,9.2,1,.5,0,1.2-.2,1.3-.7.1-.4-.4-.9-.8-1.1-1-.5-2.1-.5-3.1-1-.6-.2-1-.8-1.6-1-.6-.1-1.2.3-1.8.2-3.8-.7-7.4-2.1-11.2-2.7-2.6-.5-5.4.2-7.9-.6-1.2-.4-1.2-2.2-2.2-3-2.4-1.7-5.4-2.4-7.7-4.2-.4-.3,0-1.2.5-1.4.8-.3,1.6.5,2.5.4,1.7-.1,3.3-1.3,4.9-1,.6.1-.4,1.5.1,1.9,1.6,1.1,3.6,1.7,5.5,1.9,5,.7,10.1.5,15.1,1.1,4.4.6,8.7,1.8,13,2.4,1.9.2,3.7.2,5.6,0,.3,0,.8-.3.6-.5-.7-1.2-2.2-1.7-2.9-3-.2-.4.2-1.3.7-1.3,4.8-.3,9.7.5,14.6.5.9,0,2,0,2.5-.7.4-.5-.3-1.3-.8-1.7-1.3-1.1-2.8-2-4.4-2.5-5.1-1.7-10.5-2.1-15.5-4-2-.8-3-3.2-5-3.9-4.5-1.6-9.5-1.1-14-2.8-4.4-1.7-8.4-4.3-12.1-7.2-.6-.5-.6-1.7-.2-2.5.3-.6,1.1-.7,1.8-.7,2.3,0,4.6.8,7,.7,1.7,0,3.3-1.6,5-1.4,2.5.3,4.6,2.2,7.1,2.9,3.2.8,6.5,1.2,9.7,1.5,1,0,2.6.6,2.9-.4.3-1.1-1.1-2.1-2.1-2.6-4-2.1-8.4-3.6-12.7-5.2-3.8-1.4-7.5-3.1-11.4-3.9-2.2-.4-4.7,1.2-6.8.4-2.1-.8-2.7-3.9-4.7-4.8-2.5-1.1-5.4-.5-8-1.1-2.6-.6-4.9-2.3-7.5-2.6-12.1-1.3-20.9,1.8-32.4,3.6h0Z" style="fill:url(#New_Gradient_Swatch_22); fill-rule:evenodd;"/><path d="m186.8,53.1c-1.2-.4-1.2-2.2-2.2-3-2.4-1.7-5.4-2.4-7.7-4.2-.4-.3,0-1.2.5-1.4.8-.3,1.6.5,2.5.4,1.7-.1,3.3-1.3,4.9-1,.6.1-.4,1.5.1,1.9,1.6,1.1,3.6,1.7,5.5,1.9,5,.7,10.1.5,15.1,1.1,4.4.6,8.7,1.8,13,2.4,1.9.2,3.7.2,5.6,0,.3,0,.8-.3.6-.5-.7-1.2-2.2-1.7-2.9-3-.2-.4.2-1.3.7-1.3,4.8-.3,9.7.5,14.6.5.9,0,2,0,2.5-.7.4-.5-.3-1.3-.8-1.7-1.3-1.1-2.8-2-4.4-2.5-5.1-1.7-10.5-2.1-15.5-4-2-.8-3-3.2-5-3.9-4.5-1.6-9.5-1.1-14-2.8-4.4-1.7-8.4-4.3-12.1-7.2-.6-.5-.6-1.7-.2-2.5.3-.6,1.1-.7,1.8-.7,2.3,0,4.6.8,7,.7,1.7,0,3.3-1.6,5-1.4,2.5.3,4.6,2.2,7.1,2.9,3.2.8,6.5,1.2,9.7,1.5,1,0,2.6.6,2.9-.4.3-1.1-1.1-2.1-2.1-2.6-4-2.1-8.4-3.6-12.7-5.2-2-.8-3.9-1.6-5.9-2.3-.9.2-1.7.4-2.6.6-2,.4-4,.7-6.1.8-1.4,0-2.7-.1-4.1-.3-3.1-.4-6.1-1.7-9.2-1.6-3.3.1-6.5.9-9.6,2.1-3.1,1.2-5.6,3.5-8.5,5.1-1.8,1-3.6,2.3-5.6,2.9-1.9.6-4,.7-6,.9-2.1.3-4.3,0-6.4.6-1.9.5-4,1.2-5.5,2.5-1.9,1.7-2.8,4.3-4.5,6.2-1.4,1.6-2.9,3.1-4.8,4.1-4.1,2.2-8.7,3.2-12.8,5.4s-1.7,1.7-2.1,2.9c-.3.9-.3,1.9,0,2.8.5,1.9,2,3.5,2.4,5.5.1.6-.5,1.3-1.1,1.5-1.1.5-2.4.7-3.6.8-1.3,0-2.4-.7-3.7-.6-1,0-1.9.5-2.8.8-.1,0-.3,0-.3.2,0,1.1.6,2.2.5,3.3,0,1.4.1,3.2-1,4.1-1.2.9-3.1-.4-4.5.3-1.1.5-2,1.7-2.1,2.8,0,2.8,1.1,5.4,1.8,8.1.1.5,1,1,.7,1.4-.7.9-2.3.6-3,1.5-.7,1,.2,2.7-.6,3.6-.9,1-2.6.4-3.8,1.1-1,.6-2,1.5-2.5,2.6-1.3,2.8-2.3,5.9-2.9,9-.4,2-1,4.2-.2,6,.9,1.8,3.7,2,4.8,3.6.8,1.2,1.4,3.1.5,4.2-1.4,1.6-4.8.6-6.2,2.3-.9,1.1.6,2.9,1.2,4.2.9,1.9,3.4,3.2,3.3,5.2-.1,2-2.7,2.9-3.8,4.5-1.6,2.4-4.1,4.7-4.3,7.6-.3,3.9,2,7.5,3.1,11.3.5,1.6,2,3.1,1.7,4.8-.3,2.2-2.9,3.7-3.2,5.9-.3,1.9,0,4.2,1.4,5.5,2.7,2.6,6.9,3.2,9.9,5.5,2.1,1.6,3.7,3.8,5.3,6,1.4,1.8,2.7,3.7,3.6,5.8,1.1,2.7.4,6.1,2.1,8.5,2.2,3.2,5.9,5.1,9,7.5,4.2,3.2,8.5,6.2,12.9,9.2.9.6,2,.9,2.9,1.5,3.5,2.7,6.8,5.7,10.1,8.7.5-.2.9-.4,1.4-.3.7.2.7,1.7,1.5,1.7,2,0,4.2-.6,5.8-1.7.8-.6,1.1-1.9.8-2.8-.6-1.6-2.1-2.6-3.2-3.8-.3-.3-.9-.3-1.2-.7-.5-.6-1.4-1.4-1-2.1.4-.6,1.6.1,2.3,0,.6,0,1-.7,1.6-.7,1.7,0,3.4.7,5.1.6,1.1,0,2.8-.1,3-1.2.4-1.9-.6-3.9-1.7-5.6-.7-1.1-2.3-1.1-3.2-2-1.2-1.3-1.4-3.5-2.9-4.3-1-.6-2.3.8-3.5.7-.6,0-.9-1-1.5-1.1-.7-.2-1.4,0-2,.2-1.3.6-2.3,2.8-3.7,2.4-1.3-.3-1.4-2.4-1.2-3.7.1-1.2,1.9-1.8,2-3,.1-1.5-.2-3.4-1.4-4.4-1.6-1.4-4-1.6-6.1-1.9-1.3-.2-2.9,1.5-3.8.6-1.2-1.3.7-4.1-.6-5.3-1.7-1.6-4.4-1.6-6.8-1.6-1,0-1.5,1.8-2.5,1.6-1-.2-.9-1.8-1.7-2.4-.8-.7-2.3-.5-3-1.3-.6-.7.2-1.9-.3-2.6-.5-.7-1.6-.5-2.3-1.1-1.4-1.2-2.3-2.9-3.8-4-.7-.5-1.9-.2-2.6-.8-.7-.5-.5-1.7-1.1-2.2-.9-.7-2.9-.1-3.4-1.2-1.1-2.6.9-5.9-.5-8.3-1-1.7-4.2-.6-5.5-2.1-.7-.9,1.3-2.2,1-3.3-.4-1.3-1.9-1.8-2.8-2.8-1.3-1.4-1.9-4.3-.5-5.2,2.6-1.7,10-1.1,14.8,3.5,2.4,2.3,2.6,6.2,4.8,8.8,1.3,1.5,3.1,2.7,5.1,2.9,1.2.2,2.3-.9,3-1.9,1-1.3.6-3.5,1.8-4.5.8-.7,2.2,0,3.3,0,1.2,0,2.7-1.3,3.5-.4.7.8-.4,2.3-1.2,3.1-.4.4-1.2,0-1.7.1-1,.3-2.2.4-2.8,1.3-.4.6.2,1.4.5,2.1.5,1,1.5,1.6,1.9,2.6.6,1.3,0,3.1,1,4.1.9.9,2.6,1.1,3.9.6,1.5-.6,2.2-2.5,3.6-3.3,2.6-1.4,5.3-2.7,8.2-3.3,1.5-.3,2.9,1.1,4.4.9,3.1-.3,6-2.2,9.1-2.3,4,0,8.1.7,11.9,2,2.7.9,4.8,3.4,7.5,4.4,2,.8,4.4,0,6.3,1,3.5,1.9,5.6,5.8,9.2,7.5,2.6,1.2,5.7,1.2,8.5,1,1.7,0,3.9-.3,4.8-1.7.6-1-1.2-2.2-2.2-2.7-3.2-1.4-6.8-1.3-10-2.6-4.1-1.7-7.8-4.3-11.6-6.6-2.2-1.3-4.2-3-6.6-3.9-2.2-.9-4.8-.5-7-1.3-4.7-1.6-9.5-3.1-13.8-5.7-2.9-1.8-4.2-5.5-7.1-7.2-1.5-.9-3.9,1.2-5.2,0-1.6-1.4-.4-4.6-1.8-6.2-.8-1-2.6-.7-3.9-.6-2.4.2-4.6,1.8-7,1.5-1.8-.3-2.7-2.6-4.4-3.2-3-1-6.4-.6-9.4-1.6-2.5-.8-5-2-6.8-3.9-1.3-1.4-2.2-3.6-2-5.6.2-1.7,2.2-2.6,3-4.1,1.1-2,2.8-4.1,2.6-6.4-.1-1.4-2.1-2-3.5-2.5-2.1-.9-5-.1-6.5-1.8-1.8-1.8-.8-5.4-2.4-7.4-1-1.3-3.9,0-4.7-1.5-.9-1.5-.5-3.9.6-5.3,1-1.3,3.3-.7,4.7-1.7,1.3-.9,1.6-3.3,3.1-3.8,3.4-1,7.1.1,10.6-.3,1.4-.2,3.3-.3,3.8-1.5.4-1-1.8-1.3-2.5-2.1-1.5-1.9-3.8-3.6-4.1-6.1-.2-2,1.1-4.3,2.9-5.1,1.4-.6,2.6,2,4.1,2,1.7,0,3.1-1.8,4.9-1.9.9,0,2,.6,2.5,1.4.7,1.3-.2,3.3.9,4.3,1.3,1.2,3.8.2,5.2,1.4,1.7,1.5,1.7,4.5,3.4,5.9.8.7,2.3,0,3.2-.6,2-1.4,3-4.3,5.3-5.2,1.3-.5,2.3,1.8,3.6,1.9,1.4,0,2.4-1.6,3.8-1.5,2.2,0,4.4.8,6.3,1.9,2.4,1.4,3.5,4.9,6.2,5.5,2.1.4,3.6-2.2,5.6-2.9,2.4-.8,4.9-1.7,7.4-1.7.9,0,1.3,1.6,2.3,1.7,2.6.4,5.4-1.1,8-.3,1.8.6,2.9,2.4,3.7,4.1.7,1.5,0,3.5.7,5,.5.8,2.3.2,2.7,1.1.4,1.2-1.4,2.6-.9,3.8.6,1.4,2.3,2.7,3.8,2.5,2.4-.3,3.9-3,6.2-4,.5-.2,1.3,0,1.4.5.2,1.8-.5,3.6-.7,5.4-.2,2.5-.9,4.9-.6,7.4.2,1.1.9,2.4,2,2.6,3.2.5,6.5-1,9.7-.9,2.5,0,5.1.3,7.2,1.6,2.6,1.7,3.3,5.6,6.1,7,3.8,1.9,8.4,1.5,12.6,2.3,2.5.5,5.2.4,7.6,1.4,2.1.8,5.1,1.7,5.5,3.8.3,1.6-3.2-.3-4.8-.3-2.1,0-5.1-1.6-6.2.1-1,1.5,2.3,2.8,3.7,3.9,1.3,1,4.6.7,4.2,2.3-.3,1.6-3.2.8-4.8.4-3.3-.8-6.5-2.1-9.5-3.7-1.4-.8-2-2.8-3.5-3.3-1.6-.6-3.5.8-5.2.3-3.9-1.1-7.2-3.8-11.1-5-1.5-.4-3.3-.5-4.6.3-.6.4,1,1.1,1.4,1.6.9,1,2.1,1.9,2.7,3.2.6,1.3,0,3,1,4.1,1.1,1.4,3.8,1.1,4.6,2.6.4.9-1.9.9-2.9.8-2.6-.1-5-1.2-7.6-1.4-1.4,0-4.5-.6-4.2.8.5,2.2,3.3,3.3,5.3,4.3,3.7,1.7,8.1,1.4,11.6,3.4,1.8,1.1-4.2-.6-6.3-.4-.8,0-1.9.4-2.1,1.2-.2.8.4,1.7,1,2.2,1.6,1.5,3.3,3.4,5.5,3.8,4.4.8,8.9-1,13.3-.5.9.1,2.7,1.9,1.8,2.2-3.8,1.2-8,0-11.8,1.2-.7.2-.8,1.9-.2,2.3,3.5,2.3,7.4,4.1,11.4,5.2,4.2,1.2,8.8.7,13.1,1.6,2.2.4,4.3,1.1,6.3,2.1.7.4.8,1.5,1.5,2,1.3,1,3.2,1.2,4.2,2.5,1.1,1.4.5,3.7,1.7,5,1.2,1.4,3,2.2,4.8,2.6,1.3.2,2.6-1.3,3.9-1,2.6.6,4.6,3,7.3,3.4.8.1,1.4-1.2,1.4-2.1-.2-2.2-.9-4.4-2.1-6.2-.8-1.1-2.7-1-3.7-2-.8-.8-.5-2.5-1.5-3.1-2.9-1.6-6.6-1.3-9.5-3-.7-.4,0-1.7.5-2.2,1.2-1.1,2.7-1.9,4.3-2.3,2.1-.5,4.3-.5,6.4-.3,1.3.1,2.6.5,3.6,1.3,3.2,2.5,6.4,5.2,8.9,8.4,1.2,1.6,1.9,3.6,2.1,5.6,0,.1-3.3,2.4-1.1,4.3,1,.9,2.7,0,3.9.2,1.2.3,2.2,1.5,3.4,1.4,1.6-.2,3-1.2,4.1-2.4.2-.2,0-1.5-.3-2.3-.7-2-3.2-2.7-3.8-3.5-.4-.5-.6-1.4-.3-2,.2-.4.9-.2,1.3,0,.7.4,5.4,5,6.6,6,3,2.5,6.5,4.6,9.1,7.5.9,1.1.4,2.9,1.2,4.1.8,1,2.6.9,3.4,1.9.5.6.5,1.7,0,2.3-.9,1.4-3.3,1.6-3.8,3.2-1,3.5.4,7.4-.3,11-.4,2-2.4,3.4-3,5.4-.5,1.8-1.3,4.3,0,5.6,1,.9,2.5-1.3,3.4-2.3,2.1-2.2,3.3-5.3,5.7-7.1,1.6-1.2,4-.7,5.7-1.8,1.3-.9,1.1-3.4,2.5-3.8,2.4-.7,5,1.2,7.5.8,1.7-.3,3.2-1.6,4.2-3,.6-.8.3-2.1,0-3-.6-1.5-2.1-2.5-2.9-3.9-1.2-2.3-1.4-5.2-3.1-7.2-1.4-1.6-3.6-2.3-5.7-3-1.3-.5-2.9.2-4.1-.4-2.4-1.3-4-3.7-6.3-5.2-1.6-1-3.8-.9-5.3-2.1-3.3-2.4-6.2-5.3-9-8.3-3.1-3.4-6.1-7-8.6-10.9-.4-.7-.2-1.7.2-2.4.2-.4.9-.8,1.3-.6,1.3.5,1.9,2.1,3.2,2.5,1.8.5,3.8.5,5.7,0,1.7-.4,4.5-.5,4.8-2.3.3-2.2-2-4.1-3.7-5.4-1.4-1.1-3.3-1.2-5.1-1.3-.8,0-1.4.8-2.1,1-.5.2-1.3.6-1.7.2-1.6-1.5-2.1-3.9-3.7-5.3-3-2.3-6.7-3.5-10-5.4-2.8-1.7-5.6-3.5-8.1-5.5-2.9-2.4-5.9-4.9-8.3-7.9-.8-1-1.1-2.3-.9-3.6,0-.6,1.3-.4,1.6-.9.4-.6-.1-1.9.6-2.1,2.3-.5,4.8.7,7.2.3.9-.1,1.9-.9,2.1-1.8.1-.8-.8-1.4-1.4-1.9-2.6-2-5.3-4-8.3-5.4-2.1-1-4.6-.9-6.7-1.8-1.1-.5-2-1.4-2.8-2.2-.2-.2-.2-.7,0-.8.5-.4,1.3-.2,1.7-.6.5-.5.9-1.2,1-1.9,0-.7,0-1.5-.6-1.9-1.3-.9-3-1.3-4.6-1.6-1-.2-2.2.7-3,.2-2.3-1.4-3.6-4.2-5.9-5.6-.9-.6-2.1.2-3.1-.1-.4-.2-1-.9-.7-1.2.5-.6,1.5-.2,2.2-.5.4-.2.6-1,1-1,2.7.5,5,2.2,7.7,2.7.5,0,1.1-.6,1.1-1.1-.1-1.1-.6-2.2-1.5-2.8-5.3-3.7-11-7.1-16.8-10-.7-.3-1.6,0-2.2.5-.5.3,0,1.6-.6,1.6-2,0-3.8-1.4-5.8-1.7-.8-.1-1.7.6-2.5.5-.8-.1-1.3-1.2-2.2-1.2-2.5,0-4.9.8-7.3,1.3-1,.2-1.9.7-2.9.6-1.2-.1-2.1-1-3.3-1.2-3.1-.7-6.5-.3-9.5-1.4-1.5-.6-2.5-2.1-3.3-3.6-.3-.5.7-1.2.5-1.8-.3-1.2-1.6-2.1-1.8-3.3,0-.5.5-1.1,1-1.1,3.1-.1,6.3.4,9.4.7,3.1.3,6.1.9,9.2,1,.5,0,1.2-.2,1.3-.7.1-.4-.4-.9-.8-1.1-1-.5-2.1-.5-3.1-1-.6-.2-1-.8-1.6-1-.6-.1-1.2.3-1.8.2-3.8-.7-7.4-2.1-11.2-2.7-2.6-.5-5.4.2-7.9-.6h0Z" style="fill:url(#radial-gradient-5); fill-rule:evenodd; mix-blend-mode:screen;"/><path d="m251.6,113.8c3,2.3,9.7,1.8,11.3,8.2.3,1.1-5.1,5.2,1,9.5,4.2,3,9.7,4,14.1,6.7,9.4,5.7,6.4,10.8-6.4,8-5.4-1.2-10.8-2.6-16.4-3.4-1.2-.2-2.6-.2-3.7.4s-1.6,2-2.4,3c-1.9,2.3-1.4,3-5.1,1.2-2.4-1.1-4.3-3-6.7-4.1-2.1-.9-4.2-1.9-6.5-2-3.5-.1-6.8,1.2-10.3,1.4-1,0-1.9,0-2.9,0,.3.1.7.3,1.1.3,4.4.8,8.9-1,13.3-.5.9.1,2.7,1.9,1.8,2.2-3.8,1.2-8,0-11.8,1.2-.7.2-.8,1.9-.2,2.3,3.5,2.3,7.4,4.1,11.4,5.2,4.2,1.2,8.8.7,13.1,1.6,2.2.4,4.3,1.1,6.3,2.1.7.4.8,1.5,1.5,2,1.3,1,3.2,1.2,4.2,2.5,1.1,1.4.5,3.7,1.7,5,1.2,1.4,3,2.2,4.8,2.6,1.3.2,2.6-1.3,3.9-1,2.6.6,4.6,3,7.3,3.4.8.1,1.4-1.2,1.4-2.1-.2-2.2-.9-4.4-2.1-6.2-.8-1.1-2.7-1-3.7-2-.8-.8-.5-2.5-1.5-3.1-2.9-1.6-6.6-1.3-9.5-3-.7-.4,0-1.7.5-2.2,1.2-1.1,2.7-1.9,4.3-2.3,2.1-.5,4.3-.5,6.4-.3,1.3.1,2.6.5,3.6,1.3,3.2,2.5,6.4,5.2,8.9,8.4,1.2,1.6,1.9,3.6,2.1,5.6,0,.1-3.3,2.4-1.1,4.3,1,.9,2.7,0,3.9.2,1.2.3,2.2,1.5,3.4,1.4,1.6-.2,3-1.2,4.1-2.4.2-.2,0-1.5-.3-2.3-.7-2-3.2-2.7-3.8-3.5-.4-.5-.6-1.4-.3-2,.2-.4.9-.2,1.3,0,.7.4,5.4,5,6.6,6,3,2.5,6.5,4.6,9.1,7.5.9,1.1.4,2.9,1.2,4.1.8,1,2.6.9,3.4,1.9.5.6.5,1.7,0,2.3-.9,1.4-3.3,1.6-3.8,3.2-1,3.5.4,7.4-.3,11-.4,2-2.4,3.4-3,5.4-.5,1.8-1.3,4.3,0,5.6,1,.9,2.5-1.3,3.4-2.3,2.1-2.2,3.3-5.3,5.7-7.1,1.6-1.2,4-.7,5.7-1.8,1.3-.9,1.1-3.4,2.5-3.8,2.4-.7,5,1.2,7.5.8,1.7-.3,3.2-1.6,4.2-3,.6-.8.3-2.1,0-3-.6-1.5-2.1-2.5-2.9-3.9-1.2-2.3-1.4-5.2-3.1-7.2-1.4-1.6-3.6-2.3-5.7-3-1.3-.5-2.9.2-4.1-.4-2.4-1.3-4-3.7-6.3-5.2-1.6-1-3.8-.9-5.3-2.1-3.3-2.4-6.2-5.3-9-8.3-3.1-3.4-6.1-7-8.6-10.9-.4-.7-.2-1.7.2-2.4.2-.4.9-.8,1.3-.6,1.3.5,1.9,2.1,3.2,2.5,1.8.5,3.8.5,5.7,0,1.7-.4,4.5-.5,4.8-2.3.3-2.2-2-4.1-3.7-5.4-1.4-1.1-3.3-1.2-5.1-1.3-.8,0-1.4.8-2.1,1-.5.2-1.3.6-1.7.2-1.6-1.5-2.1-3.9-3.7-5.3-3-2.3-6.7-3.5-10-5.4-2.8-1.7-5.6-3.5-8.1-5.5-2.9-2.4-5.9-4.9-8.3-7.9-.8-1-1.1-2.3-.9-3.6,0-.6,1.3-.4,1.6-.9.4-.6-.1-1.9.6-2.1,2.3-.5,4.8.7,7.2.3.9-.1,1.9-.9,2.1-1.8.1-.8-.8-1.4-1.4-1.9-2.6-2-5.3-4-8.3-5.4-2.1-1-4.6-.9-6.7-1.8-1.1-.5-2-1.4-2.8-2.2-.2-.2-.2-.7,0-.8.5-.4,1.3-.2,1.7-.6.5-.5.9-1.2,1-1.9,0-.7,0-1.5-.6-1.9-1.3-.9-3-1.3-4.6-1.6-1-.2-2.2.7-3,.2-2.3-1.4-3.6-4.2-5.9-5.6-.9-.6-2.1.2-3.1-.1-.4-.2-1-.9-.7-1.2.5-.6,1.5-.2,2.2-.5.4-.2.6-1,1-1,2.7.5,5,2.2,7.7,2.7.5,0,1.1-.6,1.1-1.1-.1-1.1-.6-2.2-1.5-2.8-5.3-3.7-11-7.1-16.8-10-.7-.3-1.6,0-2.2.5-.5.3,0,1.6-.6,1.6-2,0-3.8-1.4-5.8-1.7-.8-.1-1.7.6-2.5.5-.8-.1-1.3-1.2-2.2-1.2-2.5,0-4.9.8-7.3,1.3-1,.2-1.9.7-2.9.6-1.2-.1-2.1-1-3.3-1.2-3.1-.7-6.5-.3-9.5-1.4-.3-.1-.6-.3-.9-.5.6.7,1.2,1.3,1.9,1.8,1.4.8,3.2.8,4.6,1.5.5.2,1.1.7,1,1.2,0,.6-.7,1.1-1.3,1.3-14.7,3.6,4.5,5.2,9.5,6.7.5.2.3,1.4.9,1.5,4.7.8,10.9-.8,14.9,0,7,1.3-18.9,5.4-5.7,10,.1,0,29.7,3.9,16.5,5-3.6.3.8,2.9,1.9,3.8,1.6,1.3,4.5.9,5.8,2.5.9,1-.9,2.9-.3,4.1,1.3,2.7,3.4,5.2,5.7,7h0ZM175.6,12.5c1.6.1,3.4.4,4.6,1.6.6.6-1.1,1.5-.8,2.3.3.7,4,1.9,3.3,5.2-.2.8-1.2,1.4-2.1,1.3-2.8-.1-5.4-1.7-8.2-1.8-3.7-.1-2.9,3.8-.8,4.5,3.5,1.3,7.5.8,11.1,1.6,2.4.6,2.6,1.8,1.5,2.5-2.3,1.3-5.9,1.2-5.2,2.9.3.6,1.1,1.3,2.2,1.6,2.5.6,4.8.9,7.3.9,3.8,0,8.4-2.8,10.9.3.6.8.3,2,.7,3,1.2,3,6.7.7,10.4.9,2.6.2,1.7,3.8,2,4.6.3.7.9,1.3,1.6,1.5,5,1.9,4.1.2,7-.6,1.2-.3,2.4-.3,3.7-.3,5.6,0,9.3.2,14.3,2.1.2-.1.4-.2.6-.4.4-.5-.3-1.3-.8-1.7-1.3-1.1-2.8-2-4.4-2.5-5.1-1.7-10.5-2.1-15.5-4-2-.8-3-3.2-5-3.9-4.5-1.6-9.5-1.1-14-2.8-4.4-1.7-8.4-4.3-12.1-7.2-.6-.5-.6-1.7-.2-2.5.3-.6,1.1-.7,1.8-.7,2.3,0,4.6.8,7,.7,1.7,0,3.3-1.6,5-1.4,2.5.3,4.6,2.2,7.1,2.9,3.2.8,6.5,1.2,9.7,1.5,1,0,2.6.6,2.9-.4.3-1.1-1.1-2.1-2.1-2.6-4-2.1-8.4-3.6-12.7-5.2-3.8-1.4-7.5-3.1-11.4-3.9-2.2-.4-4.7,1.2-6.8.4-2.1-.8-2.7-3.9-4.7-4.8-2.5-1.1-5.4-.5-8-1.1-2.6-.6-4.9-2.3-7.5-2.6-3.1-.3-6.1-.4-8.9-.2-2.9.2-5.6.5-8.4,1,1,0,2.1,0,3.2.2,5.8.5,11.4,1.7,12.1,3.4.4,1-1.7,1.3-2.6,1.6-1.4.5-1.9,2,.7,2,3.9,0,7.8-.5,11.6-.1h0Z" style="fill:url(#radial-gradient-6); fill-rule:evenodd;"/><path d="m115,68c1.7,0,3.1-1.8,4.9-1.9.9,0,2,.6,2.5,1.4.7,1.3-.2,3.3.9,4.3,1.3,1.2,3.8.2,5.2,1.4,1.7,1.5,1.7,4.5,3.4,5.9.8.7,2.3,0,3.2-.6,2-1.4,3-4.3,5.3-5.2,1.3-.5,2.3,1.8,3.6,1.9,1.4,0,2.4-1.6,3.8-1.5,2.2,0,4.4.8,6.3,1.9,2.4,1.4,3.5,4.9,6.2,5.5,2.1.4,3.6-2.2,5.6-2.9,2.4-.8,4.9-1.7,7.4-1.7.9,0,1.3,1.6,2.3,1.7,2.6.4,5.4-1.1,8-.3.4.1.8.3,1.1.5-.7-.8-1.4-1.6-2.4-1.9-1.4-.5-4.1,1.5-5.3-.3-.3-.5,0-3.9-2.4-4-1.7,0-3.5,2.8-4.5,3.1-.6.1-1-.8-1.6-.8-.8,0-3.6,2.3-6.2.2-1.4-1.1-.9-6.1-4.9-5.4-1.9.3-4.2,4.2-6.4,2.3-.7-.6-1.1-1.5-2-1.8-.8-.2-1.7.9-2.4.6-11.8-5-9.9-15.5-22-19.8-5.4-1.9-8.3,0-5.8,3.6,1.1,1.6,2.4,2.9,1.3,4.4-.7,1-2.5,1.1-3.7,1-3.6-.5-11.5-6.9-15.4-6-3.3.8.9,5.6-.6,6.2-.8.3-12.4-1.9-12,5.9.2,3.8,5.6,5.7,6.4,9.5.3,1.6-3,1.6-3.9,2.9-1.1,1.5-.7,3.8-2,5.2-.9,1-2.8.2-3.9,1-1.4,1.2-1.2,4.1-3,4.6-4.3,1.2-16.1-2.1-18.3,3-1.5,3.5,8.6,7.5,14.9,9.9,12.3,4.6-4.1,5.3,4,9.1,3.5,1.7,7.6,1.9,11.3,3,5.3,1.5.6,4.9,5.8,9.1,1.7,1.3,3.9,2,5.8,3,6,3.3,3.1,4.9.3,4.1-3.6-.9-3.6,3.2-.5,2.8,1.8-.2,4.9-1,7.7-1.5,5.2-.9,9.5-.2,7.9,3.3-.4,1-.1,2.1,1.8,2.1,1.2,0,4.8-1,7.6-1.6,4.9-1.1,5,.1,1.1,1.7-1.3.5-2.9,1.1-3.9,1.8-2.3,1.6-1.7,3.3,1.3,3.1,2.8-.2,7.6-1.4,10.5-2,1.9-.4,4.9,0,6.8,1.3,1.6,1.1.8,1.8,0,2.1-.5.2-.9.6-.7,1.1.8,3.2,18.4,5.7,21.8,5.8,1.7,0,3.3.1,4.9.5,2,.5,6.7,3.9,8.4,5.1,2.4,1.7,4.5,3.9,7,5.4,1.7,1,3.5,1.7,5.4,2.1,1.8.4,3.6,0,5.4.3,2.1.2,4.9.8,3.9,2.3.2-.2.3-.3.5-.6.6-1-1.2-2.2-2.2-2.7-3.2-1.4-6.8-1.3-10-2.6-4.1-1.7-7.8-4.3-11.6-6.6-2.2-1.3-4.2-3-6.6-3.9-2.2-.9-4.8-.5-7-1.3-4.7-1.6-9.5-3.1-13.8-5.7-2.9-1.8-4.2-5.5-7.1-7.2-1.5-.9-3.9,1.2-5.2,0-1.6-1.4-.4-4.6-1.8-6.2-.8-1-2.6-.7-3.9-.6-2.4.2-4.6,1.8-7,1.5-1.8-.3-2.7-2.6-4.4-3.2-3-1-6.4-.6-9.4-1.6-2.5-.8-5-2-6.8-3.9-1.3-1.4-2.2-3.6-2-5.6.2-1.7,2.2-2.6,3-4.1,1.1-2,2.8-4.1,2.6-6.4-.1-1.4-2.1-2-3.5-2.5-2.1-.9-5-.1-6.5-1.8-1.8-1.8-.8-5.4-2.4-7.4-1-1.3-3.9,0-4.7-1.5-.9-1.5-.5-3.9.6-5.3,1-1.3,3.3-.7,4.7-1.7,1.3-.9,1.6-3.3,3.1-3.8,3.4-1,7.1.1,10.6-.3,1.4-.2,3.3-.3,3.8-1.5.4-1-1.8-1.3-2.5-2.1-1.5-1.9-3.8-3.6-4.1-6.1-.2-2,1.1-4.3,2.9-5.1,1.4-.6,2.6,2,4.1,2h0Zm29.4-10.9c.3-1.8-.6-4.1-2.1-5.1-.5-.3-1.5-.1-2.1-.4-1.1-.5-3.2-2.9-5.8-4.1-1-.5-2.1-1-3.3-.9-1.5.1-1.4.8-1.1,1.2,1.8,2.7,4.5,4.6,6.5,7.2.9,1.1,2.3,3.1,3.3,4.9,1.6,2.8,4,.9,4.6-2.7h0Z" style="fill:url(#radial-gradient-7); fill-rule:evenodd;"/><path d="m131,178.9c-1.3-.2-2.9,1.5-3.8.6-1.2-1.3.7-4.1-.6-5.3-1.7-1.6-4.4-1.6-6.8-1.6-1,0-1.5,1.8-2.5,1.6-1-.2-.9-1.8-1.7-2.4-.8-.7-2.3-.5-3-1.3-.6-.7.2-1.9-.3-2.6-.5-.7-1.6-.5-2.3-1.1-1.4-1.2-2.3-2.9-3.8-4-.7-.5-1.9-.2-2.6-.8-.7-.5-.5-1.7-1.1-2.2-.9-.7-2.9-.1-3.4-1.2-1.1-2.6.9-5.9-.5-8.3-1-1.7-4.2-.6-5.5-2.1-.7-.9,1.3-2.2,1-3.3-.4-1.3-1.9-1.8-2.8-2.8-1.3-1.4-1.9-4.3-.5-5.2,1.2-.7,3.2-1,5.6-.7-.4-.1-.7-.2-1.1-.3-2-.4-11.2.1-9.3,3.3.6,1,3.2,1.7,3.2,3.5,0,.8-1.1,1.4-.9,2.1.4,1.3,2.9,1,1.8,3.2-1.1,2.1-3.1,2.7-1.8,6.5,1.3,4.1,4.2,2.7,6,3.7.5.3.3,1.3.8,1.7.9.8,5.3.3,6.4,3.9.3,1-.8,2.3,0,3,.7.7,2.9-.5,4.7.5,1.7.9.9,2.7,1.6,3.5.5.5,1.1.3,1.5.9.5.6.4,1,.8,1.7.7,1.3,2.4,1.9,2.9,3.3.5,1.4-3.4,5.7,1.7,7.9,2.8,1.2,5.9-2,9-2.4,2.2-.3,3.1,1.8,1.7,2.6-.8.5-1.8.6-2.7.9-1.1.2-2.6.5-1.6,2,.3.5.9.9,1.5.8,1.5-.1,3-1,4.4-1.4,1.2-.4,2.5-.5,3.1.9.2.4.1.8-.2,1.1-.5.4-1.2.4-1.9.7-.4.1-.6.7,0,.9.5.3,1.1.4,1.7.4,3.5.4,4.1-.2,5.5,2,.8,1.2,2.7,3.3,4.4,3,1.2-.2,1.9-2.4,2.9-3.1.9-.7,1.2.3,1.3.9,0,.4.2.9.6,1,1.4.4,4-.6,5,.3.8.7-1,1.3.2,2.2,1.6,1.1,2.5.3,3.8.7,1.8.5,2.5,2,3.1,3.5.3-1.8-.7-3.8-1.7-5.4-.7-1.1-2.3-1.1-3.2-2-1.2-1.3-1.4-3.5-2.9-4.3-1-.6-2.3.8-3.5.7-.6,0-.9-1-1.5-1.1-.7-.2-1.4,0-2,.2-1.3.6-2.3,2.8-3.7,2.4-1.3-.3-1.4-2.4-1.2-3.7.1-1.2,1.9-1.8,2-3,.1-1.5-.2-3.4-1.4-4.4-1.6-1.4-4-1.6-6.1-1.9h0Z" style="fill:url(#radial-gradient-8); fill-rule:evenodd; mix-blend-mode:multiply; opacity:.5;"/><path d="m391.4,238.3c0-2.9.7-5.8,1.3-8.6.6-2.8,2-5.4,2.4-8.2.2-1.5-.1-3.1-.7-4.5-.2-.5-.9-.7-1.4-.6-.6.2-1,.8-1.2,1.3-1.1,3.5-1.8,7.2-2.6,10.8-.6,2.8-.7,5.7-1.6,8.4-.5,1.4-2,2.2-2.7,3.5-.4.7-.7,1.5-.7,2.4-.2,2.2.4,4.5,0,6.6-.2,1.1-.7,2.3-1.5,3.1-.3.3-1.1,0-1.1-.4,0-1.8.9-3.6,1-5.4,0-.7,0-1.9-.7-2-.8-.1-1.5.9-2,1.5-.5.6-.5,1.5-1,2-.3.3-1.1,0-1.4.3-2.2,3.2-3.9,6.6-5.8,10-.7,1.3-1,2.9-2,4.2-.4.5-1.1.7-1.6.5-.6-.2-1.4-.9-1.3-1.6.3-1.7,1.8-3.1,2.3-4.8.3-1.2.4-2.5,0-3.7-.2-.9-.7-2.1-1.6-2.4-1.3-.4-2.9,0-4.1.7-.8.5-.6,1.9-1.3,2.5-.7.6-1.9.4-2.7.9-1.5,1-2.5,2.5-4,3.4-1.1.7-2.5,1-3.7,1.6-3,1.5-6.1,2.9-9,4.5-1.3.7-2.1,2.1-3.5,2.6-1.5.6-3.4.6-4.9,1.3-2.5,1.2-4.2,2.7-6.8,4-1.2.6-2.5.6-3.8,1.2-1.6.8-2.5,2.2-4,3.1-1.4.9-3.2,1-4.7,1.7-.7.3-1.4.9-2.1,1.3-1.6,1.1-2.9,2.6-4.7,3.3-1.6.6-3.4.4-5.1.6-1.6.2-3.3.2-4.8.6-1.2.3-2.2,1.3-3.4,1.5-1,.2-2.4,0-3.3.5-2.4,1.4-3.4,3.4-5.8,4.7-2.2,1.1-4.8,1.2-7.2,1.4-4.5.4-8.5-1-12.4-.9-.9,0-2,.3-2.7.9-.3.3.1.9.3,1.3,1.4,2.2,5.1,4.9,7.3,5.1,3,.2,6.1-2.6,8.4-3,.7-.1,1,1.2,1.7,1.5,1.5.5,3.1.8,4.7.7,1.1,0,2.3-.2,3.2-.9,1.8-1.3,2.7-3.6,4.5-4.9,2.1-1.5,4.6-2.5,7.1-3.4,1.3-.5,2.8-.9,4.1-.6.7.2.8,1.4,1.4,1.8.7.5,1.5.9,2.3.8,1.4-.1,2.5-1.1,3.9-1.4.6-.1,1.7-.4,2,.2.4.7-.1,1.7-.7,2.2-1,.9-2.8.7-3.8,1.5-.6.5-.5,1.6-.8,2.4-.2.4-.4.8-.7,1-.8.6-1.9.7-2.7,1.3-.5.4-1,1.1-.9,1.7.1.7.8,1.7,1.6,1.6,2.2-.1,4.1-1.6,6.2-2,1-.2,2.1.4,3.1.1,1.6-.5,3.2-1.1,4.4-2.3,1.3-1.3,1.7-3.4,2.9-4.8,2.6-3.1,4.3-.6,7.7-1.8,1.3-.4,2.6-1.2,3.5-2.3,1.4-1.6,1.7-4,3.2-5.4,1.2-1.1,3-1.3,4.5-1.9,1.1-.4,2.2-.7,3.2-1.2,1.3-.7,2.4-1.9,3.8-2.5,1-.5,2.2-.4,3.3-.8,1-.4,1.8-1.1,2.7-1.4.2,0,.8.1.7.4-.5,1-1.3,1.9-2.2,2.5-1.5,1-3.2,1.5-4.8,2.3-1.8.8-3.6,1.5-5.3,2.5-4,2.4-3.2,2-3.9,5.9-.2.8-1.4,5,.9,4.8,2.7-.2,5-1.8,7.5-2.7,1-.3,2.1-.4,2.9-1,1.1-.9,1.3-2.6,2.3-3.6.5-.5,1.4-.3,1.9-.8.9-.8,1.3-2.2,2.2-3,1-.9,2.4-1.3,3.6-2.1.6-.4,1-1.2,1.7-1.5.3-.1,1,0,1,.4,0,.8-.6,1.5-1.1,2.1-1.2,1.3-2.9,2.2-4.1,3.6-.5.6-.5,1.5-1.1,2.1-1.3,1.2-3.2,1.6-4.4,3-.8.9-.6,2.4-1.2,3.4-.5.8-1.5,1.1-1.9,1.9-.6,1-.4,2.3-1.1,3.2-.8,1.1-2.3,1.5-3.1,2.6-1.2,1.8,1.9,2.8,2.8,2,1.4-1.2,1.2-2.6,2.3-4,.4-.5,1.6-1,2.1-1.5.9-1,.9-2.5,1.7-3.6.4-.6,1.1-1.1,1.8-1.1.7,0,1.1.6,1.8.5.9-.1,1.1-.3,2-.5.4-.1.9,0,1.3,0,1,0,1.9-.8,2.8-.6.5.1.6,1,.4,1.5-.5.9-1.9,1-2.3,1.9-.5,1.2,0,2.6-.3,3.9-.4,1.5-1.4,2.7-1.9,4.2-.6,1.9.7,2.5-2.3,5.1-.9.8-2.5.8-3.3,1.7-.9,1.1-.8,2.8-1.5,4.1-.2.5-1,.5-1.2,1-.8,1.5-1.1,3.2-2,4.6-.7,1-1.7,1.8-2.6,2.5-.6.4-1.5.3-1.9.9-1.1,1.5-1.3,3.6-2.4,5-.8,1-2.3,1.2-3.1,2.2-.5.5-.7,1.5-.4,2.1.3.6,1.2.9,1.8.7,1.7-.6,3.2-1.7,4.5-3,1.1-1.1,1.3-2.7,2.3-3.9,2.7-3.2,6-6,8.6-9.2,2-2.5,3.5-5.3,5.3-7.9,1-1.5,2.2-2.9,3.1-4.5.6-1,.7-2.3,1.4-3.2.8-1.1,1.7-2.6,3.1-2.9.8-.2-.2,1.6-.6,2.3-.9,1.6-2.4,3-3.2,4.6-.7,1.4-.5,3.2-1.3,4.6-.6,1.2-2,1.8-2.7,3-1,1.6-1.4,3.5-2.3,5.2-1.2,2.2-2.5,4.4-3.8,6.6-1.3,2.1-2.7,4.1-4,6.2,5.5-5.7,13.4-13.1,17.7-19.5.5-.8,13.5-21.1,13.6-21.7.1-.5.6-5.5,1.4-8.2.7-2.3,2.2-4.4,3-6.7.7-1.9.8-4,1.6-5.9.7-1.6,2.8-4.2,2.6-4.6-.6-2.3-1.1-12.7-.7-15,.4-2.2,2.3-4,2.5-6.2.2-1.8-1.4-3.4-1.5-5.2h0Zm-134.5,57.4c.7-5.2-6.9-.8-9.2-1.6-2.1-.8-5.6-.1-7.5.7-4.3,1.7-4.8,2.1-9.5,2.6-1.1.1-3.5.5-2.7,2.1,2.2,4,16-3.3,17-1.2.8,1.7,4.7,3.5,6.4,1.2,1-1.4,1.2-3.3,3.5-2.4,1.1.4,2-1.2,2-1.3h0Z" style="fill:url(#radial-gradient-9); fill-rule:evenodd;"/><path d="m175.2,343.7c-.8-1.9.7-2.4,2.3-3.3s12.2,2.5,15.4,2.2c1.2-.1,6.4.2,6.1,2.3-.1.7-1.7,2.2,1.9,2.4,2,.1,4.3-2.3,10.8-.5,1.4.4,3.1,3-1.1,4.3-3.7,1.1,2.3,4-3.5,7.6-.5.3-1.2-.4-1.7-.1-1.5.7-2.1-4.4-4.8-2.9-2.2,1.2-1.3,4.7-5.2,3.1-2-.8-1.1,6.7-3.2,8.4,0,0-.7.9-.8,1-.5.4-1.2.6-1.5,1.2-.2.4-4.2,3.6,2.2,3.1,1.5-.1,5.1,1,4,3-.6,1,.6,1.6-2.7,3.2-1.8.9-2.7,5.8-5.7,5.1-1.4-.3-4.8-1.7-5.5-1.7-.9,0-4,1.4-4.7-.9,0,0,1.7-2.1-.7-1.6,0,0-.3.2-.4.2-.9.3-1.8.4-2.6.8-2.4,1.2-6.4,1.4-7.9-1.1-1.3-2.3-2.4-1.1-5.7-1.2-2.1,0-10.9,1.1-11.6-1.9-.2-.7,2.8-.5,1.9-2.1s-3.3-1.3-4.8-1.4c-1.8,0,2.6,2.9-1.4,3.6-.6,0-2.5,0-3.1-.2-.8-.2-1.5-.4-2.2-.8-1.7-.9-6-5-7.5-5.2-.8-.1.1-.9-2.9-.5-1.8.3-5.1-7.8-6.2-4.7-.4,1.2,3.3,3,.6,4.2-1.9.9-2.8-9.1-6.2-6-2.3,2-2.3-3.6-6.5-3.4-1,0-4-1.9-4.5-3.7-.2-.8-5.7-4.4-7-4.6-3.5-.6-2.1-3.6,1.5-2.1,5.4,2.2,2.3-.8,6.2.6.4.2,9.6,5.3,6.8,1.1-.2-.3-3.2-2.6-3.7-2.9-.6-.3-2.8-2.6-2-3.1,3.2-1.8,2.1,2,5.6,0,1.2-.7,9,4.9,4.6-.5-1.5-1.8,0-1.8-3.9-2.6-.7-.1-3.4-3.3-5.1-4.2-.6-.3-1.3-.7-2.2-1.2-1.8-1-3.7-2-5.3-3.4-2.3-2-8.6-4-11.2-7.2-1-1.2-3.6-2.2-5.4-4.7-3.8-5.2.5-3.5-1.4-6.3-.7-1-.6,1.9-3.1.6-2.5-1.2-4.7-4-6.6-6-1.7-1.9-5.2-6.7-5.9-9.1-.3-1-2-3.3-2.9-3.6-6.2-1.9-8.3-3.2-9.9-10.2-.4-2-6.6-9.2-1.2-8.7,1.9.2,10.6,14.8,13.9,16.7,1.9,1.1,3.3,7.7,7,5.7,5-2.7,2.6-2.1,7.2.4,4.7,2.5,4.4-1.3,7.4,1.7,3.5,3.4,2.2,2.7,7.1,4.4,2.6.8,3.8,1.1,6.5,2.1,2.8,1.1,2.1,2.7,4.4,5.2.4.4,1,.5,1.5.8,2.1,1,7.9.6,9.1-1.6.6-1.2,3.3.3,3.9-2.3.8-3.2,7.8-.4,9.5-.2,3.6.4,9.5,3.3,12,.5.8-.9-6.3-1.6-5.3-2.8,1.8-2-3.7-5.6,7.5-5.7,6.3,0,3.1,1.5,5.3,2.6.3.2,1.5-.6,2.3-.1,1.1.6,2.5.4,3.7.5.5,0,5.7-.6,6-.2.7,1.2-1.7,2.8-3.7,2.6-2.7-.4-8.2.2-10.1,2.2-1,1-2.7.5-2.8,2.3,0,.3-1.4,2.5.9,2.6,1.3,0,2.5-2.4,4.5,1.1.9,1.7,5.3.8,8.2,2.3,3.7,2.1-3.7,3.1-.1,3.5.3,0,2.7,1.2,1.2,2.6-.6.5-.3,1.2-2.1,2.1-1,.5,1.6,2.4,3.4,2.4,1.5,0,9,2.3,4.6,4.8-1.9,1.1-3.2-.1-4.6,2.8-.1.2-2.5.3.4,2.2,0,0,5.6,1.1,2.5,3-.4.2-2.1.3.2,1.8,2.3,1.5,3.6-.9,7.2.7,2.2,1,2.1.9,4.3,1.5,5.5,1.5,2.4-2.1-.7-1.5-.4,0-.3-.2-.5-.7h0Zm-24.2-21.6c.9-2.2-3.2-1.5-4.8-.7s-3.6,2.4-6,2c-3.7-.5-6.7,6.8-10,3.9-.9-.8-5.3.9-7.5-.1-.8-.3-6-1.1-7.5-1.8-1.4-.7-.6,1.7-2.7.8-1.1-.5-11-4.6-8.2-.1,1.8,2.9,5.7,4,8.7,5.9,1.2.7,2.5.5,4.9,2.5.7.6,4.3,2.1,1.7,3.6-1,.6-.7,4.6,3.1,2.6,2.1-1.1,2,4.2,5.9,3.2,1.3-.3,3.5,5.4,5.9,2.1,1.2-1.7,3,3,3-1,0-1.9-2.6-2.1.2-5.3,1-1.2.3-2.8-1.9-2.1-2.7.8-4.9,2.9-7.5-.6-1.4-1.9,3.9-3.7,5.7-3.3,1.6.3,2.5-4.8,6.7-4.5,2.1.1,1.3-3.1,6.1-3.9,3.1-.5,4.1-2.8,4.2-3.1h0Zm2,30.6c-3.1,1.4-5.5,3.7-5.4,7.9,0,2.3,3.9,5.7,5,4.7.4-.4-1.3-1.7-1.9-3.9-.4-1.7.6-3.3,2.8-4.3,4-1.8,6.2-1.7,7.4-1.5,1.4.3,4.2,1.8,1.8,2.1-1.1.2-18.1,1.9.8,10.5,5.7,2.6,12.9,4.3,17-.7,6.2-7.3-12.4-21.5-27.5-14.9h0Zm19.6,4.5c-3.6-1.4-8.1-1.9-6.5.7.3.5,9.9,3,6.1,6.3-1.6,1.4-6.4,0-8.2-1.4-.3-.3-3.6-2.6-3.4-.8.4,3.5,11.8,7.6,16.6,5.6,2.3-.9,2.1-3.3,1.2-5.3-1.2-2.6-3.3-4.1-5.9-5.1h0Zm6.2-54.4c1.2-2.5-1.6-3.7,2.3-5.6,2.4-1.2,1.5.4,6.4-2.8,6.3-4.2,5.2,6.4,16.1,3.5,2-.5.2,1.7,6.5-.6,2-.7,8.3,2.1,12,1,1.3-.4,5.6,2.5-5.1,2.9-1.2,0-8.2.9-8.8,2.3-.5,1.1-3.4,2.7-5.6,1.2-3.1-2.1-8.7-.6-12.3,0-5.9.9-8.2,3.2-14.7,1-.3-.1-12.6.3-5.2-2.9,2.3-1,7,2.8,8.3,0h0Z" style="fill:url(#New_Gradient_Swatch_3); fill-rule:evenodd;"/><path d="m368.8,311.7c.5-.8,13.5-21.1,13.6-21.7.1-.5.6-5.5,1.4-8.2.7-2.3,2.2-4.4,3-6.7.7-1.9.8-4,1.6-5.9.7-1.6,2.8-4.2,2.6-4.6-.2-.6-.3-1.9-.4-3.4-.4-4-.6-9.9-.3-11.7.4-2.2,2.3-4,2.5-6.2.2-1.8-1.4-3.4-1.5-5.2,0-2.9.7-5.8,1.3-8.6.6-2.8,2-5.4,2.4-8.2.2-1.5-.1-3.1-.7-4.5-.2-.5-.9-.7-1.4-.6-.6.2-1,.8-1.2,1.3-1.1,3.5-1.8,7.2-2.6,10.8-.6,2.8-.7,5.7-1.6,8.4-.5,1.4-2,2.2-2.7,3.5-.4.7-.7,1.5-.7,2.4-.2,2.2.4,4.5,0,6.6-.2,1.1-.7,2.3-1.5,3.1-.3.3-1.1,0-1.1-.4,0-1.8.9-3.6,1-5.4,0-.7,0-1.9-.7-2-.8-.1-1.5.9-2,1.5-.5.6-.5,1.5-1,2-.3.3-1.1,0-1.4.3-2.2,3.2-3.9,6.6-5.8,10-.7,1.3-1,2.9-2,4.2-.4.5-1.1.7-1.6.5-.6-.2-1.4-.9-1.3-1.6.3-1.7,1.8-3.1,2.3-4.8.3-1.2.4-2.5,0-3.7-.2-.7-.4-1.5-.9-2-2.1,3-3.5,6.5-4.7,10-1.8,5-1.5,10.7-4.2,15.3-2.1,3.5-4.8,7.4-8.2,9.6-1.6,1-3.6,1.5-5.5,1.5-1.9,0-3.9-1.7-5.7-1.5-.1.6-.2,1.4-.4,2.7-.2.8-1.4,5,.9,4.8,2.7-.2,5-1.8,7.5-2.7,1-.3,2.1-.4,2.9-1,1.1-.9,1.3-2.6,2.3-3.6.5-.5,1.4-.3,1.9-.8.9-.8,1.3-2.2,2.2-3,1-.9,2.4-1.3,3.6-2.1.6-.4,1-1.2,1.7-1.5.3-.1,1,0,1,.4,0,.8-.6,1.5-1.1,2.1-1.2,1.3-2.9,2.2-4.1,3.6-.5.6-.5,1.5-1.1,2.1-1.3,1.2-3.2,1.6-4.4,3-.8.9-.6,2.4-1.2,3.4-.5.8-1.5,1.1-1.9,1.9-.6,1-.4,2.3-1.1,3.2-.8,1.1-2.3,1.5-3.1,2.6-1.2,1.8,1.9,2.8,2.8,2,1.4-1.2,1.2-2.6,2.3-4,.4-.5,1.6-1,2.1-1.5.9-1,.9-2.5,1.7-3.6.4-.6,1.1-1.1,1.8-1.1.7,0,1.1.6,1.8.5.9-.1,1.1-.3,2-.5.4-.1.9,0,1.3,0,1,0,1.9-.8,2.8-.6.5.1.6,1,.4,1.5-.5.9-1.9,1-2.3,1.9-.5,1.2,0,2.6-.3,3.9-.4,1.5-1.4,2.7-1.9,4.2-.6,1.9.7,2.5-2.3,5.1-.9.8-2.5.8-3.3,1.7-.9,1.1-.8,2.8-1.5,4.1-.2.5-1,.5-1.2,1-.8,1.5-1.1,3.2-2,4.6-.7,1-1.7,1.8-2.6,2.5-.6.4-1.5.3-1.9.9-1.1,1.5-1.3,3.6-2.4,5-.8,1-2.3,1.2-3.1,2.2-.5.5-.7,1.5-.4,2.1.3.6,1.2.9,1.8.7,1.7-.6,3.2-1.7,4.5-3,1.1-1.1,1.3-2.7,2.3-3.9,2.7-3.2,6-6,8.6-9.2,2-2.5,3.5-5.3,5.3-7.9,1-1.5,2.2-2.9,3.1-4.5.6-1,.7-2.3,1.4-3.2.8-1.1,1.7-2.6,3.1-2.9.8-.2-.2,1.6-.6,2.3-.9,1.6-2.4,3-3.2,4.6-.7,1.4-.5,3.2-1.3,4.6-.6,1.2-2,1.8-2.7,3-1,1.6-1.4,3.5-2.3,5.2-1.2,2.2-2.5,4.4-3.8,6.6-1.3,2.1-2.7,4.1-4,6.2,5.5-5.7,13.4-13.1,17.7-19.5h0Z" style="fill:url(#radial-gradient-10); fill-rule:evenodd; mix-blend-mode:multiply;"/><path d="m43.8,130.2c-6.8-11.2-19.5-13.7,10-25.4,2.9-1.1,10.4-3.3,4.2-6.4-4.3-2.2-13.9-2.5-15.5-10-.5-2.4,1.8-5,4-6.3,4-2.4,8.8-2.9,13.3-4.1,6.7-1.6,13.7-2.3,20.3-4.2,6.4-1.8,5.1-5.8.6-7-4.9-1.3-10.3-1.1-14.8-3.3-5.1-2.4,2-9.3,5.7-10.6,4.1-1.4,8.6-1,12.9-.8,2,0,3.4-.4,1.6-2-1.7-1.5-4.2-3.4-5.9-5.2-.8-.8-.9-2.1.9-2.4,6.7-.8,13.9-1.1,20-4,2.5-1.2,1.9-5.3,3.8-7.3,1.4-1.4,3.9-1,5.4-2.3,1.1-.9.8-3,2-3.7,3.4-1.9,7.4-2.2,11-3.5,2.6-.9,5.2-1.7,7.5-3.2,4.8-3.2-2.8-6.8,16.2-12.5-3.7.7-7.5,1.5-11.6,2.2-6,.9-16.9,1.7-18.1,2.2-1.2.6-5.7,6-9.3,8.1-2.7,1.6-8.1,1.9-8.9,2.7-8.1,8.7-17.8,15.9-27.4,23-2.6,1.9-8.2,3-9,3.9-1.3,1.5-9,12.8-14.2,18.6-2.3,2.5-6.3,3.4-8,6.3-7.1,12.2-16.5,19-24.7,28.5-.9,1.1-.9,9.4-1.9,14-2.8,13.8-6.4,17-9.6,26.9-2.3,7-4.2,14.2-5.1,21.6-.6,4.9.9,9.9.6,14.9-.2,3.5-2,6.9-2,10.4-.1,6.6.7,13.2,1.5,19.8.3,2.7,1.3,5.3,1.9,8-.2-1.8-.1-3.7.5-5.3.3-.7,1.3-.9,1.6-1.5.3-.7-.2-1.8.2-2.4.4-.6,1.5-.3,1.9-.9.5-.7.3-1.8.4-2.6,0-.8-.3-1.8.2-2.4.4-.5,1.3,0,1.8-.4.6-.4,1.2-1.1,1.4-1.9.3-1.5-.5-3.1,0-4.6.2-.8,1.2-1.5,2-1.5,1.1,0,1.9,1.6,2.9,1.4.9-.1,1.5-1.2,1.7-2.1.3-.9-.2-1.9-.2-2.8,0-.9-.5-2.2.3-2.7s1.1,1.1,1.3,1.8c.5,1.6,0,3.4.7,5,.4.9,1.6,1.3,2.3,2,.8.8,1.8,1.4,2.1,2.5.3,1.3-.4,2.6-.3,3.9,0,.5.4,1,.6,1.5.8,2,1.3,4.2,2.4,6,.5.8,1.4,1.8,2.4,1.8,1.1,0,2.3-.9,2.8-1.9.5-1,.4-2.4-.2-3.4-.7-1.2-2.3-1.6-3.3-2.6-.7-.7-1.4-1.5-1.6-2.5-.3-1.8.4-3.7,0-5.5-.2-1.3-1.9-2.2-1.7-3.5.7-4.2,3.3-7.9,4.4-12.1.2-.9.1-2.1-.4-2.8-1.2-1.6-3.4-2.2-4.7-3.7-.5-.5-.3-1.4-.6-2-.6-1.1-1.7-1.8-2-3-.3-1.1-.3-2.4.1-3.4.4-.9,1.6-1.1,2.3-1.8.6-.6,1.5-1.3,1.5-2.2,0-2.6-1.6-4.9-1.7-7.5,0-.7,1.1-.8,1.4-1.4.5-1.6.3-3.3.8-4.9.1-.3.8-.9.9-.6.1,1.3-.6,2.6-.5,3.9,0,.8.8,1.3.9,2.1,0,1-.9,2-.6,2.9.4,1.5,1.9,2.4,2.4,3.9.6,1.6.4,3.5,1.1,5,.2.5,1,1.1,1.6.8,1.8-.9,2.7-3.3,4.6-3.9,1.1-.3,2.6.4,3,1.5,0,0,0,.1,0,.2,2.1-3.7,5.2-7,6.2-11.1.7-2.9-2.3-5.7-1.8-8.6.7-4.4,8.1-2.5,1.4-13.6h0Z" style="fill:url(#radial-gradient-11); fill-rule:evenodd; mix-blend-mode:multiply;"/><path d="m27.6,177.6c-1.2-1.6-3.4-2.2-4.7-3.7-.5-.5-.3-1.4-.6-2-.6-1.1-1.7-1.8-2-3-.3-1.1-.3-2.4.1-3.4.4-.9,1.6-1.1,2.3-1.8.6-.6,1.5-1.3,1.5-2.2,0-2.6-1.6-4.9-1.7-7.5,0-.7,1.1-.8,1.4-1.4.5-1.6.3-3.3.8-4.9.1-.3.8-.9.9-.6.1,1.3-.6,2.6-.5,3.9,0,.8.8,1.3.9,2.1,0,1-.9,2-.6,2.9.4,1.5,1.9,2.4,2.4,3.9.6,1.6.4,3.5,1.1,5,.2.5,1,1.1,1.6.8,1.8-.9,2.7-3.3,4.6-3.9,1.1-.3,2.6.4,3,1.5.5,1.3-1.4,2.8-1,4.1.6,1.9,2.9,2.8,3.9,4.5.8,1.3.3,3.4,1.4,4.4.6.6,1.7-1.3,2.4-.9.7.4,0,1.8.4,2.5.4.7,1.5.6,1.9,1.3.4.7,0,1.8.3,2.5.6,1.2,1.5,2.2,2.4,3.1.7.7,1.4,1.5,2.3,1.7,1.1.3,2.2,0,3.3-.3.7-.3,1.3-.9,1.6-1.6.6-1.4.2-3.1,1-4.4.4-.6,1.5,0,2.1-.5,1.1-.9,1.3-2.6,2.4-3.5.5-.4,1.5.2,2-.2.8-.6.9-1.9,1.7-2.4.4-.2.9,1,1.2.7,1.2-1,1.5-2.9,2.7-4,.4-.4,1.2-.5,1.7-.2,0,0,0,0,0,0-.6-.6-1.3-1-2.1-.8-1,.2-2.3,2.4-3.6,1.8-.8-.3-1.4-2.9-3.3-1.4-.7.6-1.2,1.7-2.1,2-.6.2-1.1-.7-1.8-.7-.9,0-1.6,1-2.4.8-1.5-.4-2.5-2.1-4-2.6-.7-.2-1.5.2-1.9.7-1.1,1.1-1.6,2.7-2.6,3.9-.8,1-1.7,0-2.1-.9-.5-1.2-.8-5.1-2.1-5.5-2.5-.9-5.2.2-4.3-4,.4-2-1.6-1.9-1.7-3.3-.3-4.3-.3-10.6-1.9-10.9-.9-.2-4.4,5.7-5.1.4-.4-2.9,0-5.9-.2-8.8-.4-14.6-3.4-3.7-6.1,1.3-.2.4-.9.6-1.4.4-.8-.4-.9-1.6-1.7-1.8-.5-.2-1.2.3-1.5.8-1.5,3.1-2.3,6.5-3.7,9.6-.4.8-.9,1.6-1.6,2.2-.2.2-.7.4-.9.1-.9-1.5-.2-3.9-.6-4.8-.3-.5-2.8-.8-3.1-1.8-.4-1.1.4-2.3.3-3.4-.1-.9-.7-1.7-.9-2.5,0,0,0,0,0,0-.3-1-.9-1.9-.9-3,0-2,.6-4,1.1-5.9.5-1.8,1.6-3.4,2-5.2.3-1.3.4-2.7.5-4-2.4,8.1-5.2,11.7-7.8,19.6-2.3,7-4.2,14.2-5.1,21.6-.6,4.9.9,9.9.6,14.9-.2,3.5-2,6.9-2,10.4-.1,6.6.7,13.2,1.5,19.8.3,2.7,1.3,5.3,1.9,8-.2-1.8-.1-3.6.5-5.3.3-.7,1.3-.9,1.6-1.5.3-.7-.2-1.8.2-2.4.4-.6,1.5-.3,1.9-.9.5-.7.3-1.8.4-2.6,0-.8-.3-1.8.2-2.4.4-.5,1.3,0,1.8-.4.6-.4,1.2-1.1,1.4-1.9.3-1.5-.5-3.1,0-4.6.2-.8,1.2-1.5,2-1.5,1.1,0,1.9,1.6,2.9,1.4.9-.1,1.5-1.2,1.7-2.1.3-.9-.2-1.9-.2-2.8,0-.9-.5-2.2.3-2.7s1.1,1.1,1.3,1.8c.5,1.6,0,3.4.7,5,.4.9,1.6,1.3,2.3,2,.8.8,1.8,1.4,2.1,2.5.3,1.3-.4,2.6-.3,3.9,0,.5.4,1,.6,1.5.8,2,1.3,4.2,2.4,6,.5.8,1.4,1.8,2.4,1.8,1.1,0,2.3-.9,2.8-1.9.5-1,.4-2.4-.2-3.4-.7-1.2-2.3-1.6-3.3-2.6-.7-.7-1.4-1.5-1.6-2.5-.3-1.8.4-3.7,0-5.5-.2-1.3-1.9-2.2-1.7-3.5.7-4.2,3.3-7.9,4.4-12.1.2-.9.1-2.1-.4-2.8h0Z" style="fill:url(#radial-gradient-12); fill-rule:evenodd;"/><path d="m27.6,177.6c-1.2-1.6-3.4-2.2-4.7-3.7-.5-.5-.3-1.4-.6-2-.6-1.1-1.7-1.8-2-3-.3-1.1-.3-2.4.1-3.4.4-.9,1.6-1.1,2.3-1.8.6-.6,1.5-1.3,1.5-2.2,0-2.6-1.6-4.9-1.7-7.5,0-.7,1.1-.8,1.4-1.4.5-1.6.3-3.3.8-4.9.1-.3.8-.9.9-.6.1,1.3-.6,2.6-.5,3.9,0,.8.8,1.3.9,2.1,0,1-.9,2-.6,2.9.4,1.5,1.9,2.4,2.4,3.9.6,1.6.4,3.5,1.1,5,.2.5,1,1.1,1.6.8,1.8-.9,2.7-3.3,4.6-3.9,1.1-.3,2.6.4,3,1.5,0,0,0,.1,0,.2.3-.6.7-1.2,1.1-1.7-.5-.5-1.2-.8-1.3-1.7-.3-4.3-.3-10.6-1.9-10.9-.9-.2-4.4,5.7-5.1.4-.4-2.9,0-5.9-.2-8.8-.4-14.6-3.4-3.7-6.1,1.3-.2.4-.9.6-1.4.4-.8-.4-.9-1.6-1.7-1.8-.5-.2-1.2.3-1.5.8-1.5,3.1-2.3,6.5-3.7,9.6-.4.8-.9,1.6-1.6,2.2-.2.2-.7.4-.9.1-.9-1.5-.2-3.9-.6-4.8-.3-.5-2.8-.8-3.1-1.8-.4-1.1.4-2.3.3-3.4-.1-.9-.7-1.7-.9-2.5,0,0,0,0,0,0-.3-1-.9-1.9-.9-3,0-2,.6-4,1.1-5.9.5-1.8,1.6-3.4,2-5.2.3-1.3.4-2.7.5-4-2.4,8.1-5.2,11.7-7.8,19.6-2.3,7-4.2,14.2-5.1,21.6-.6,4.9.9,9.9.6,14.9-.2,3.5-2,6.9-2,10.4-.1,6.6.7,13.2,1.5,19.8.3,2.7,1.3,5.3,1.9,8-.2-1.8-.1-3.6.5-5.3.3-.7,1.3-.9,1.6-1.5.3-.7-.2-1.8.2-2.4.4-.6,1.5-.3,1.9-.9.5-.7.3-1.8.4-2.6,0-.8-.3-1.8.2-2.4.4-.5,1.3,0,1.8-.4.6-.4,1.2-1.1,1.4-1.9.3-1.5-.5-3.1,0-4.6.2-.8,1.2-1.5,2-1.5,1.1,0,1.9,1.6,2.9,1.4.9-.1,1.5-1.2,1.7-2.1.3-.9-.2-1.9-.2-2.8,0-.9-.5-2.2.3-2.7s1.1,1.1,1.3,1.8c.5,1.6,0,3.4.7,5,.4.9,1.6,1.3,2.3,2,.8.8,1.8,1.4,2.1,2.5.3,1.3-.4,2.6-.3,3.9,0,.5.4,1,.6,1.5.8,2,1.3,4.2,2.4,6,.5.8,1.4,1.8,2.4,1.8,1.1,0,2.3-.9,2.8-1.9.5-1,.4-2.4-.2-3.4-.7-1.2-2.3-1.6-3.3-2.6-.7-.7-1.4-1.5-1.6-2.5-.3-1.8.4-3.7,0-5.5-.2-1.3-1.9-2.2-1.7-3.5.7-4.2,3.3-7.9,4.4-12.1.2-.9.1-2.1-.4-2.8h0Z" style="fill:url(#radial-gradient-13); fill-rule:evenodd; mix-blend-mode:multiply;"/><path d="m294.6,23.9c1.6.8,19.1,10.6,19.3,11,2,4.8,4.9,6.1,7.2,7,2.6,4.8,10.5,12.1,12.2,14.2,1.6,2,9.7,13.4,11.6,17.5-1.2-1.4-5.1-7.4-8.4-7.1-3,.2-4.3-2.1-4.6-2.2-2.8-1-2.2,1.8-.7,3.4,1.3,1.4,3.2,2.9,3.4,3.6,2.2,9.2,10,13.2,10.1,15.3.2,4.4,6.2,9.2,5.6,10.3-2.2,4.2-4.4-3.4-7-2.4-2.3.9-2.9-1.6-4.8-4.3-4.7-6.9-6.7-1.9-3.1,1.5,2.5,2.5,2.7,8.1,1.2,6.7-1.6-1.5-2.7.8-4.4-.9-10-9.7-.6,4.7-.9,6.4-1.5,7.6-5.6-4.4-5.7-4.6-4.3-4.4-4,2.1-3.9,2.3.3,1.4,5.3,8.9,4.7,10-2.7,4.7-5.8-5.6-6.7-6.4-4.6-3.7-4.4,2.3-3.4,4.5,1.1,2.3,1.5,9.2,1.5,9.2,1.4,2.5,2,.6,2.7-.2,3.6-4.1,8.8,9.4,8.9,11,.8,10.5-7.5-9.1-9.1-3.9-2.4,7.8-9.7.9-7.8-2.1,2.5-3.8.4-9.9-2.7-12.7-2.7-2.4-2.1-3.7-1.3-4.9,2.7-4-3.2-7.2-5-4.4-.8,1.2-1.2,3-1.4,4.5-.3,2.2-1,3.1-2.6,3.8-2.6,1.1-1.7-4-1.8-5.7-.3-5,1.7-6.7,3.2-8,2.5-2.2,2.9-4.5-1.5-7.3-1.5-1-1.3-2.8-1.4-3.6-.4-3.3-2-7-5.4-4.7-1.3.9-7.4,9.8-10.1,8.2-5.2-3,3-6.5,2.9-7.9,0-3.2,4.4-5.2,4.3-6.9-.2-4.8-6.7,2.2-9.4.9-5.6-2.8,1.5-3.6,1.6-3.7,5.7-5.6-4.8-5.9-4.8-5.9-3.5-2.9-11.1,1.8-11.7-2.9-.5-4.3,5.1-.7,5.9-3.4,1-3.5-6.6-3.4-8.1-6.3-.5-1,6.2-4.3-5.3-5.3-6.8-.6-3.3-4.4-2.5-4.4,2.9,0,.2-2-2.4-3.1-5.4-2.2-13.4-1.6-17.9-1.7-3-.1-4.4-1.4-2.6-2.4,1.7-.9,4.2-1.3,3.7-2.9-.9-2.8-8.6-4.4-8.7-7.2,0-2.9,1.7-3,3.7-2.3,1.3.5,9.2,4.6,10.8,5.6,5.9,3.5,13.9,9.5,15.9,7.6,3.5-3.4-16.2-10-17.9-12.7-2.3-3.6-10.9-2.5-11.5-7-.6-4.8,5.7-2,6.1-2.1,6.3-1.4,17.7,11.9,23.7,10.8,6.5-1.2-1.4-4.9-1.9-7-1.5-6.4,10.8,4.3,11.5,4.3,7.4,0-2-4.3-3-5.3-2.8-2.5-21.4-9-18.6-12.2,2.9-3.2,10.4,5,16,6.2,3.3.7,7.2,5.1,9.8,7.5,11,9.8,5.6,1.2,5.7.5.8-5.2,4.1.7,5.8.6,2.4,0,9.4,7.4,11,9.4.7.9,2.7,3.1,3.6,1.9.3-.5-1.2-1.1.3-1.4,1.5-.2-.5-4.2-4.1-6.6h0Zm-69.9-6.1c-3.5-7.7-9.4-1.1-12.8-4.6-2.6-2.6-8-1.3-11.4-.8-4.5.7-3.8,1.8-.7,2.7,4.5,1.3,9.7.3,13.2,4.7,2.9,3.7,3.3-3.8,8.1.9,2.5,2.5,5.5,1.3,3.6-2.9h0Zm-31.6-5.6c-3.2-.4-.3-1.3-3.5-.2-1.7.6-2-2.3-4.4-.5-.8.6-5-.4-6.4,0-1,.3-10.2.2-4.4,2.5,1,.4,4.3-1.1,7.7.2,1.1.4,5.7.8,6.4,0,2.2-2.5,1.3,0,4.4,0,1,0,.7-1.8.4-1.9h0Z" style="fill:url(#radial-gradient-14); fill-rule:evenodd;"/><path d="m188.3,14.1c2.2-2.5,1.3,0,4.4,0,1,0,.7-1.8.4-1.9-3.2-.4-.3-1.3-3.5-.2-1.7.6-2-2.3-4.4-.5-.8.6-5-.4-6.4,0-1,.3-10.2.2-4.4,2.5,1,.4,4.3-1.1,7.7.2,1.1.4,5.7.8,6.4,0h0Zm11.4,1c4.5,1.3,9.7.3,13.2,4.7,2.9,3.7,3.3-3.8,8.1.9,2.5,2.5,5.5,1.3,3.6-2.9-3.5-7.7-9.4-1.1-12.8-4.6-2.6-2.6-8-1.3-11.4-.8-4.5.7-3.8,1.8-.7,2.7h0Zm27.8,11c0,2.8,7.8,4.4,8.7,7.2.5,1.5-2,1.9-3.7,2.9-1.8,1-.4,2.3,2.6,2.4,4.5.2,12.5-.5,17.9,1.7,2.6,1.1,5.2,3.1,2.4,3.1-.9,0-4.4,3.7,2.5,4.4,11.5,1,4.7,4.3,5.3,5.3,1.4,2.8,9.1,2.7,8.1,6.3-.8,2.7-6.4-.9-5.9,3.4.6,4.7,8.2,0,11.7,2.9,0,0,10.5.3,4.8,5.9,0,0-7.3.9-1.6,3.7,2.7,1.3,9.1-5.8,9.4-.9,0,1.7-4.3,3.7-4.3,6.9,0,1.4-8.2,4.9-2.9,7.9,2.6,1.5,8.7-7.3,10.1-8.2,3.4-2.3,5,1.5,5.4,4.7,0,.8-.1,2.6,1.4,3.6,4.4,2.8,4,5,1.5,7.3-1.5,1.3-3.5,3-3.2,8,.1,1.8-.9,6.9,1.8,5.7,1.7-.7,2.3-1.6,2.6-3.8.2-1.5.6-3.3,1.4-4.5,1.9-2.8,7.7.4,5,4.4-.8,1.2-1.4,2.5,1.3,4.9,3.2,2.8,5.2,8.9,2.7,12.7-2,3,5.4,9.9,7.8,2.1.6-1.8,1.9-.7,3.4,1.2.3-1.8.5-3.6.6-5.4,0-.8,0-1.5,0-2.3-1.3-1.4-2.6-2-3.8-.6s-1.2,2.7-2.7.2c0,0-.5-6.9-1.5-9.2-1-2.2-1.2-8.2,3.4-4.5.6.5,1.9,4.5,3.5,6.5-.6-1.9-1.4-3.7-1.8-5.7-.6-2.6-.7-5.4-1.1-8,0-.1,0-.2,0-.3.5-3.1,1.7-6.1,1.5-9.2-.2-3.2-1.4-6.3-2.8-9.2-1.3-2.7-3.6-4.7-5-7.4-2.1-4-3.1-8.5-5.4-12.4-2.6-4.4-5.8-8.5-9.3-12.3-1.6-1.8-4-2.6-5.9-4.1-1.4-1.2-2.8-2.5-3.9-4-.8-1.1-.8-2.7-1.8-3.6-4.5-4-9.5-7.3-14.5-10.7-1.1-.7-2.3-1.2-3.5-1.7-.4,0-1.1.1-1.9.1-.7,0-13-10.8-11.5-4.3.5,2.1,8.4,5.8,1.9,7-6,1.1-17.4-12.2-23.7-10.8-.5.1-6.7-2.7-6.1,2.1.6,4.6,9.2,3.4,11.5,7,1.7,2.7,21.4,9.3,17.9,12.7-1.9,1.9-10-4.1-15.9-7.6-1.6-1-9.6-5.1-10.8-5.6-2-.7-3.8-.6-3.7,2.3h0Z" style="fill:url(#radial-gradient-15); fill-rule:evenodd; mix-blend-mode:screen;"/><path d="m109,105.1c-.1-1.4-2.1-2-3.5-2.5-2.1-.9-5-.1-6.5-1.8-1.8-1.8-.8-5.4-2.4-7.4-1-1.3-3.9,0-4.7-1.5-.9-1.5-.5-3.9.6-5.3,1-1.3,3.3-.7,4.7-1.7,1.3-.9,1.6-3.3,3.1-3.8,3.4-1,7.1.1,10.6-.3,1.4-.2,3.3-.3,3.8-1.5.4-1-1.8-1.3-2.5-2.1-1.5-1.9-3.8-3.6-4.1-6.1-.2-2,1.1-4.3,2.9-5.1,1.4-.6,2.6,2,4.1,2,1.7,0,3.1-1.8,4.9-1.9.9,0,2,.6,2.5,1.4.7,1.3-.2,3.3.9,4.3,1.3,1.2,3.8.2,5.2,1.4,1.7,1.5,1.7,4.5,3.4,5.9.8.7,2.3,0,3.2-.6,2-1.4,3-4.3,5.3-5.2,1.3-.5,2.3,1.8,3.6,1.9,1.4,0,2.4-1.6,3.8-1.5,2.2,0,4.4.8,6.3,1.9,2.4,1.4,3.5,4.9,6.2,5.5,2.1.4,3.6-2.2,5.6-2.9,2.4-.8,4.9-1.7,7.4-1.7.9,0,1.3,1.6,2.3,1.7,2.6.4,5.4-1.1,8-.3.4.1.8.3,1.1.5-.7-.8-1.4-1.6-2.4-1.9-1.4-.5-4.1,1.5-5.3-.3-.3-.5,0-3.9-2.4-4-1.7,0-3.5,2.8-4.5,3.1-.6.1-1-.8-1.6-.8-.8,0-3.6,2.3-6.2.2-1.4-1.1-.9-6.1-4.9-5.4-1.9.3-4.2,4.2-6.4,2.3-.7-.6-1.1-1.5-2-1.8-.8-.2-1.7.9-2.4.6-11.8-5-9.9-15.5-22-19.8-5.4-1.9-8.3,0-5.8,3.6,1.1,1.6,2.4,2.9,1.3,4.4-.7,1-2.5,1.1-3.7,1-1.4-.2-3.5-1.3-5.8-2.6,0,0-.1,0-.2,0-1.3,0-2.4-.7-3.7-.6-1,0-1.9.5-2.8.8-.1,0-.3,0-.3.2,0,1.1.6,2.2.5,3.3,0,1.4.1,3.2-1,4.1-1.2.9-3.1-.4-4.5.3-1.1.5-2,1.7-2.1,2.8,0,2.8,1.1,5.4,1.8,8.1.1.5,1,1,.7,1.4-.7.9-2.3.6-3,1.5-.7,1,.2,2.7-.6,3.6-.9,1-2.6.4-3.8,1.1-1,.6-2,1.5-2.5,2.6-1.3,2.8-2.3,5.9-2.9,9-.4,2-1,4.2-.2,6,.9,1.8,3.7,2,4.8,3.6.8,1.2,1.4,3.1.5,4.2-1.4,1.6-4.8.6-6.2,2.3-.2.2-.2.4-.3.6,2.9.9,6,1.3,9,2.1,5.3,1.5.6,4.9,5.8,9.1,1.7,1.3,3.9,2,5.8,3,6,3.3,3.1,4.9.3,4.1-3.6-.9-3.6,3.2-.5,2.8,1.8-.2,4.9-1,7.7-1.5,5.2-.9,9.5-.2,7.9,3.3-.4,1-.1,2.1,1.8,2.1,1.2,0,4.8-1,7.6-1.6,4.9-1.1,5,.1,1.1,1.7-1.3.5-2.9,1.1-3.9,1.8-2.3,1.6-1.7,3.3,1.3,3.1,2.8-.2,7.6-1.4,10.5-2,1.9-.4,4.9,0,6.8,1.3,1.6,1.1.8,1.8,0,2.1-.5.2-.9.6-.7,1.1.8,3.2,18.4,5.7,21.8,5.8,1.7,0,3.3.1,4.9.5,2,.5,6.7,3.9,8.4,5.1,2.4,1.7,4.5,3.9,7,5.4,1.7,1,3.5,1.7,5.4,2.1,1.8.4,3.6,0,5.4.3,2.1.2,4.9.8,3.9,2.3.2-.2.3-.3.5-.6.6-1-1.2-2.2-2.2-2.7-3.2-1.4-6.8-1.3-10-2.6-4.1-1.7-7.8-4.3-11.6-6.6-2.2-1.3-4.2-3-6.6-3.9-2.2-.9-4.8-.5-7-1.3-4.7-1.6-9.5-3.1-13.8-5.7-2.9-1.8-4.2-5.5-7.1-7.2-1.5-.9-3.9,1.2-5.2,0-1.6-1.4-.4-4.6-1.8-6.2-.8-1-2.6-.7-3.9-.6-2.4.2-4.6,1.8-7,1.5-1.8-.3-2.7-2.6-4.4-3.2-3-1-6.4-.6-9.4-1.6-2.5-.8-5-2-6.8-3.9-1.3-1.4-2.2-3.6-2-5.6.2-1.7,2.2-2.6,3-4.1,1.1-2,2.8-4.1,2.6-6.4h0Zm27.5-50.2c.9,1.1,2.3,3.1,3.3,4.9,1.6,2.8,4,.9,4.6-2.7.3-1.8-.6-4.1-2.1-5.1-.5-.3-1.5-.1-2.1-.4-1.1-.5-3.2-2.9-5.8-4.1-1-.5-2.1-1-3.3-.9-1.5.1-1.4.8-1.1,1.2,1.8,2.7,4.5,4.6,6.5,7.2h0Z" style="fill:url(#radial-gradient-16); fill-rule:evenodd; mix-blend-mode:screen;"/></g></g></svg>