<svg xmlns='http://www.w3.org/2000/svg'>
	<defs>
		<pattern id='a' patternUnits='userSpaceOnUse' width='50' height='50' patternTransform='scale(0.5) rotate(0)'>
			<!-- <rect x='0' y='0' width='50' height='50' fill='white'/> -->
			<g class="gas_1" opacity="0">
				<circle cx="34.4" cy="46.9" r="2" style="fill:#149927; stroke-width:0px;"/>
				<circle cx="18.7" cy="23" r="2" style="fill:#149927; stroke-width:0px;"/>
			</g>
			<g class="gas_2" opacity="0">
				<circle cx="11.2" cy="13.3" r="5.1" style="fill:#149927; stroke-width:0px;"/>
				<circle cx="39" cy="21.7" r="1.5" style="fill:#149927; stroke-width:0px;"/>
			</g>
			<g class="gas_3" opacity="0">
				<circle cx="12.3" cy="32.2" r="4" style="fill:#149927; stroke-width:0px;"/>
				<circle cx="35.2" cy="37" r="3.1" style="fill:#149927; stroke-width:0px;"/>
			</g>
			<g class="gas_4" opacity="0">
				<circle cx="45.4" cy="25.4" r="1.8" style="fill:#149927; stroke-width:0px;"/>
				<circle cx="29.2" cy="19" r="3.3" style="fill:#149927; stroke-width:0px;"/>
			</g>
			<g class="gas_5" opacity="0">
				<circle cx="24.5" cy="32.1" r="1.5" style="fill:#149927; stroke-width:0px;"/>
				<circle cx="40" cy="5.6" r="2.8" style="fill:#149927; stroke-width:0px;"/>
			</g>
			<g class="gas_6" opacity="0">
				<circle cx="4.8" cy="28.5" r="2" style="fill:#149927; stroke-width:0px;"/>
				<circle cx="48.5" cy="49.8" r="2.5" style="fill:#149927; stroke-width:0px;"/>
			</g>
			<g class="gas_7" opacity="0">
				<circle cx="1.8" cy="19.7" r="1.8" style="fill:#149927; stroke-width:0px;"/>
				<circle cx="51.8" cy="19.7" r="1.8" style="fill:#149927; stroke-width:0px;"/>
				<circle cx="7.2" cy="42.6" r="2.8" style="fill:#149927; stroke-width:0px;"/>
			</g>
			<g class="gas_8" opacity="0">
				<circle cx="32.6" cy="28.8" r="2.6" style="fill:#149927; stroke-width:0px;"/>
				<circle cx="31.8" cy="7.5" r="2.8" style="fill:#149927; stroke-width:0px;"/>
			</g>
			<g class="gas_9" opacity="0">
				<circle cx="22.3" cy="12.2" r="2.6" style="fill:#149927; stroke-width:0px;"/>
				<circle cx="46.8" cy="39.1" r="3.2" style="fill:#149927; stroke-width:0px;"/>
				<circle cx="46.8" cy="30.8" r="1.5" style="fill:#149927; stroke-width:0px;"/>
			</g>
			<g class="gas_10" opacity="0">
				<circle cx="22.9" cy="44.4" r="5.9" style="fill:#149927; stroke-width:0px;"/>
				<circle cx="12.3" cy="52.6" r="2.8" style="fill:#149927; stroke-width:0px;"/>
				<circle cx="12.3" cy="2.8" r="2.8" style="fill:#149927; stroke-width:0px;"/>
				<circle cx="45.9" cy="13.1" r="4.6" style="fill:#149927; stroke-width:0px;"/>
			</g>
		</pattern>
	</defs>
	<rect width='100%' height='100%' transform='translate(0,0)' fill='url(#a)'/>
</svg>